Fira Sans-Regular Italic.ufo
<glyph name="exclam" format="1">
  <advance width="235"/>
  <unicode hex="0021"/>
  <outline>
    <contour>
      <point x="152" y="230" type="line"/>
      <point x="227" y="689" type="line"/>
      <point x="126" y="689" type="line"/>
      <point x="71" y="230" type="line"/>
    </contour>
    <component base="period"/>
  </outline>
</glyph>
<glyph name="numbersign" format="1">
  <advance width="512"/>
  <unicode hex="0023"/>
  <outline>
    <contour>
      <point x="431" y="669" type="line"/>
      <point x="249" y="0" type="line"/>
      <point x="327" y="0" type="line"/>
      <point x="508" y="669" type="line"/>
    </contour>
    <contour>
      <point x="10" y="232" type="line"/>
      <point x="0" y="163" type="line"/>
      <point x="447" y="163" type="line"/>
      <point x="457" y="232" type="line"/>
    </contour>
    <contour>
      <point x="201" y="669" type="line"/>
      <point x="20" y="0" type="line"/>
      <point x="97" y="0" type="line"/>
      <point x="279" y="669" type="line"/>
    </contour>
    <contour>
      <point x="87" y="517" type="line"/>
      <point x="77" y="447" type="line"/>
      <point x="524" y="447" type="line"/>
      <point x="534" y="517" type="line"/>
    </contour>
  </outline>
</glyph>
<glyph name="dollar" format="1">
  <advance width="525"/>
  <unicode hex="0024"/>
  <outline>
    <contour>
      <point x="183" y="-7" type="line"/>
      <point x="162" y="-155" type="line"/>
      <point x="241" y="-155" type="line"/>
      <point x="263" y="2" type="line"/>
    </contour>
    <contour>
      <point x="300" y="824" type="line"/>
      <point x="277" y="662" type="line"/>
      <point x="356" y="664" type="line"/>
      <point x="379" y="824" type="line"/>
    </contour>
    <contour>
      <point x="184" y="680"/>
      <point x="84" y="611"/>
      <point x="84" y="494" type="curve" smooth="yes"/>
      <point x="84" y="408"/>
      <point x="145" y="349"/>
      <point x="258" y="314" type="curve" smooth="yes"/>
      <point x="351" y="282"/>
      <point x="382" y="246"/>
      <point x="382" y="201" type="curve" smooth="yes"/>
      <point x="382" y="101"/>
      <point x="303" y="64"/>
      <point x="216" y="64" type="curve" smooth="yes"/>
      <point x="147" y="64"/>
      <point x="96" y="88"/>
      <point x="58" y="132" type="curve"/>
      <point x="-1" y="77" type="line"/>
      <point x="47" y="22"/>
      <point x="117" y="-12"/>
      <point x="214" y="-12" type="curve" smooth="yes"/>
      <point x="416" y="-12"/>
      <point x="477" y="112"/>
      <point x="477" y="201" type="curve" smooth="yes"/>
      <point x="477" y="307"/>
      <point x="397" y="358"/>
      <point x="303" y="387" type="curve" smooth="yes"/>
      <point x="206" y="420"/>
      <point x="177" y="448"/>
      <point x="177" y="498" type="curve" smooth="yes"/>
      <point x="177" y="576"/>
      <point x="242" y="604"/>
      <point x="316" y="604" type="curve" smooth="yes"/>
      <point x="362" y="604"/>
      <point x="407" y="589"/>
      <point x="454" y="546" type="curve"/>
      <point x="511" y="600" type="line"/>
      <point x="456" y="651"/>
      <point x="402" y="680"/>
      <point x="315" y="680" type="curve" smooth="yes"/>
    </contour>
  </outline>
</glyph>
<glyph name="percent" format="1">
  <advance width="820"/>
  <unicode hex="0025"/>
  <outline>
    <contour>
      <point x="114" y="11" type="line"/>
      <point x="173" y="-31" type="line"/>
      <point x="729" y="669" type="line"/>
      <point x="670" y="711" type="line"/>
    </contour>
    <contour>
      <point x="309" y="617"/>
      <point x="323" y="582"/>
      <point x="323" y="539" type="curve" smooth="yes"/>
      <point x="323" y="498"/>
      <point x="308" y="403"/>
      <point x="222" y="403" type="curve" smooth="yes"/>
      <point x="172" y="403"/>
      <point x="158" y="440"/>
      <point x="158" y="484" type="curve" smooth="yes"/>
      <point x="158" y="527"/>
      <point x="175" y="617"/>
      <point x="260" y="617" type="curve" smooth="yes"/>
    </contour>
    <contour>
      <point x="130" y="679"/>
      <point x="79" y="567"/>
      <point x="79" y="484" type="curve" smooth="yes"/>
      <point x="79" y="399"/>
      <point x="137" y="341"/>
      <point x="221" y="341" type="curve" smooth="yes"/>
      <point x="356" y="341"/>
      <point x="403" y="458"/>
      <point x="403" y="539" type="curve" smooth="yes"/>
      <point x="403" y="622"/>
      <point x="345" y="679"/>
      <point x="260" y="679" type="curve" smooth="yes"/>
    </contour>
    <contour>
      <point x="667" y="264"/>
      <point x="681" y="229"/>
      <point x="681" y="186" type="curve" smooth="yes"/>
      <point x="681" y="145"/>
      <point x="666" y="50"/>
      <point x="580" y="50" type="curve" smooth="yes"/>
      <point x="530" y="50"/>
      <point x="516" y="87"/>
      <point x="516" y="131" type="curve" smooth="yes"/>
      <point x="516" y="174"/>
      <point x="533" y="264"/>
      <point x="618" y="264" type="curve" smooth="yes"/>
    </contour>
    <contour>
      <point x="488" y="326"/>
      <point x="437" y="214"/>
      <point x="437" y="131" type="curve" smooth="yes"/>
      <point x="437" y="46"/>
      <point x="495" y="-12"/>
      <point x="579" y="-12" type="curve" smooth="yes"/>
      <point x="714" y="-12"/>
      <point x="761" y="105"/>
      <point x="761" y="186" type="curve" smooth="yes"/>
      <point x="761" y="269"/>
      <point x="703" y="326"/>
      <point x="618" y="326" type="curve" smooth="yes"/>
    </contour>
  </outline>
</glyph>
<glyph name="ampersand" format="1">
  <advance width="757"/>
  <unicode hex="0026"/>
  <outline>
    <contour>
      <point x="224" y="701"/>
      <point x="157" y="631"/>
      <point x="157" y="534" type="curve" smooth="yes"/>
      <point x="157" y="477"/>
      <point x="187" y="431"/>
      <point x="232" y="380" type="curve"/>
      <point x="106" y="306"/>
      <point x="76" y="245"/>
      <point x="76" y="165" type="curve" smooth="yes"/>
      <point x="76" y="67"/>
      <point x="147" y="-12"/>
      <point x="268" y="-12" type="curve" smooth="yes"/>
      <point x="361" y="-12"/>
      <point x="435" y="20"/>
      <point x="499" y="82" type="curve"/>
      <point x="582" y="-12" type="line"/>
      <point x="652" y="40" type="line"/>
      <point x="557" y="144" type="line"/>
      <point x="596" y="195"/>
      <point x="634" y="258"/>
      <point x="666" y="325" type="curve"/>
      <point x="584" y="355" type="line"/>
      <point x="565" y="304"/>
      <point x="535" y="247"/>
      <point x="505" y="200" type="curve"/>
      <point x="353" y="367" type="line"/>
      <point x="441" y="414"/>
      <point x="522" y="462"/>
      <point x="522" y="560" type="curve" smooth="yes"/>
      <point x="522" y="638"/>
      <point x="448" y="701"/>
      <point x="347" y="701" type="curve" smooth="yes"/>
    </contour>
    <contour>
      <point x="450" y="136" type="line"/>
      <point x="399" y="89"/>
      <point x="346" y="61"/>
      <point x="281" y="61" type="curve" smooth="yes"/>
      <point x="210" y="61"/>
      <point x="169" y="110"/>
      <point x="169" y="169" type="curve"/>
      <point x="169" y="219"/>
      <point x="180" y="268"/>
      <point x="278" y="326" type="curve"/>
    </contour>
    <contour>
      <point x="397" y="633"/>
      <point x="433" y="603"/>
      <point x="433" y="560" type="curve" smooth="yes"/>
      <point x="433" y="496"/>
      <point x="379" y="459"/>
      <point x="303" y="417" type="curve"/>
      <point x="266" y="456"/>
      <point x="246" y="492"/>
      <point x="246" y="534" type="curve" smooth="yes"/>
      <point x="246" y="592"/>
      <point x="282" y="633"/>
      <point x="347" y="633" type="curve" smooth="yes"/>
    </contour>
  </outline>
</glyph>
<glyph name="quotesingle" format="1">
  <advance width="213"/>
  <unicode hex="0027"/>
  <outline>
    <contour>
      <point x="164" y="427" type="line"/>
      <point x="216" y="689" type="line"/>
      <point x="118" y="689" type="line"/>
      <point x="95" y="427" type="line"/>
    </contour>
  </outline>
</glyph>
<glyph name="parenleft" format="1">
  <advance width="318"/>
  <unicode hex="0028"/>
  <outline>
    <contour>
      <point x="186" y="708"/>
      <point x="84" y="590"/>
      <point x="51" y="355" type="curve" smooth="yes"/>
      <point x="17" y="116"/>
      <point x="89" y="-4"/>
      <point x="167" y="-143" type="curve"/>
      <point x="227" y="-109" type="line"/>
      <point x="157" y="24"/>
      <point x="115" y="133"/>
      <point x="144" y="345" type="curve" smooth="yes"/>
      <point x="175" y="562"/>
      <point x="249" y="670"/>
      <point x="357" y="803" type="curve"/>
      <point x="303" y="847" type="line"/>
    </contour>
  </outline>
</glyph>
<glyph name="parenright" format="1">
  <advance width="318"/>
  <unicode hex="0029"/>
  <outline>
    <contour>
      <point x="115" y="809" type="line"/>
      <point x="186" y="676"/>
      <point x="228" y="568"/>
      <point x="198" y="355" type="curve" smooth="yes"/>
      <point x="168" y="139"/>
      <point x="93" y="30"/>
      <point x="-15" y="-103" type="curve"/>
      <point x="39" y="-147" type="line"/>
      <point x="156" y="-8"/>
      <point x="258" y="110"/>
      <point x="291" y="345" type="curve" smooth="yes"/>
      <point x="325" y="584"/>
      <point x="253" y="704"/>
      <point x="175" y="843" type="curve"/>
    </contour>
  </outline>
</glyph>
<glyph name="asterisk" format="1">
  <advance width="433"/>
  <unicode hex="002A"/>
  <outline>
    <contour>
      <point x="243" y="505" type="line"/>
      <point x="309" y="359" type="line"/>
      <point x="386" y="412" type="line"/>
      <point x="292" y="537" type="line"/>
      <point x="255" y="543" type="line"/>
    </contour>
    <contour>
      <point x="237" y="739" type="line"/>
      <point x="231" y="569" type="line"/>
      <point x="255" y="543" type="line"/>
      <point x="289" y="569" type="line"/>
      <point x="330" y="739" type="line"/>
    </contour>
    <contour>
      <point x="278" y="576" type="line"/>
      <point x="255" y="543" type="line"/>
      <point x="288" y="525" type="line"/>
      <point x="456" y="561" type="line"/>
      <point x="438" y="644" type="line"/>
    </contour>
    <contour>
      <point x="60" y="561" type="line"/>
      <point x="219" y="525" type="line"/>
      <point x="255" y="543" type="line"/>
      <point x="242" y="576" type="line"/>
      <point x="96" y="641" type="line"/>
    </contour>
    <contour>
      <point x="217" y="538" type="line"/>
      <point x="88" y="411" type="line"/>
      <point x="153" y="359" type="line"/>
      <point x="257" y="504" type="line"/>
      <point x="255" y="543" type="line"/>
    </contour>
  </outline>
</glyph>
<glyph name="plus" format="1">
  <advance width="493"/>
  <unicode hex="002B"/>
  <outline>
    <contour>
      <point x="240" y="519" type="line"/>
      <point x="219" y="369" type="line"/>
      <point x="76" y="369" type="line"/>
      <point x="65" y="293" type="line"/>
      <point x="208" y="293" type="line"/>
      <point x="187" y="144" type="line"/>
      <point x="271" y="144" type="line"/>
      <point x="292" y="293" type="line"/>
      <point x="436" y="293" type="line"/>
      <point x="447" y="369" type="line"/>
      <point x="303" y="369" type="line"/>
      <point x="324" y="519" type="line"/>
    </contour>
  </outline>
</glyph>
<glyph name="comma" format="1">
  <advance width="241"/>
  <unicode hex="002C"/>
  <outline>
    <contour>
      <point x="57" y="127"/>
      <point x="24" y="92"/>
      <point x="24" y="51" type="curve" smooth="yes"/>
      <point x="24" y="30"/>
      <point x="32" y="13"/>
      <point x="45" y="2" type="curve"/>
      <point x="-20" y="-166" type="line"/>
      <point x="47" y="-166" type="line"/>
      <point x="135" y="-15" type="line" smooth="yes"/>
      <point x="154" y="19"/>
      <point x="161" y="40"/>
      <point x="161" y="64" type="curve" smooth="yes"/>
      <point x="161" y="99"/>
      <point x="135" y="127"/>
      <point x="98" y="127" type="curve" smooth="yes"/>
    </contour>
  </outline>
</glyph>
<glyph name="hyphen" format="1">
  <advance width="397"/>
  <unicode hex="002D"/>
  <outline>
    <contour>
      <point x="340" y="274" type="line"/>
      <point x="351" y="352" type="line"/>
      <point x="70" y="352" type="line"/>
      <point x="59" y="274" type="line"/>
    </contour>
  </outline>
</glyph>
<glyph name="period" format="1">
  <advance width="240"/>
  <unicode hex="002E"/>
  <outline>
    <contour>
      <point x="56" y="127"/>
      <point x="23" y="93"/>
      <point x="23" y="51" type="curve" smooth="yes"/>
      <point x="23" y="16"/>
      <point x="48" y="-12"/>
      <point x="85" y="-12" type="curve" smooth="yes"/>
      <point x="127" y="-12"/>
      <point x="160" y="22"/>
      <point x="160" y="64" type="curve" smooth="yes"/>
      <point x="160" y="99"/>
      <point x="135" y="127"/>
      <point x="97" y="127" type="curve" smooth="yes"/>
    </contour>
  </outline>
</glyph>
<glyph name="slash" format="1">
  <advance width="514"/>
  <unicode hex="002F"/>
  <outline>
    <contour>
      <point x="53" y="-83" type="line"/>
      <point x="130" y="-104" type="line"/>
      <point x="485" y="789" type="line"/>
      <point x="408" y="809" type="line"/>
    </contour>
  </outline>
</glyph>
<glyph name="zero" format="1">
  <advance width="552"/>
  <unicode hex="0030"/>
  <outline>
    <contour>
      <point x="116" y="679"/>
      <point x="56" y="411"/>
      <point x="56" y="229" type="curve" smooth="yes"/>
      <point x="56" y="74"/>
      <point x="119" y="-12"/>
      <point x="242" y="-12" type="curve" smooth="yes"/>
      <point x="454" y="-12"/>
      <point x="515" y="256"/>
      <point x="515" y="438" type="curve" smooth="yes"/>
      <point x="515" y="593"/>
      <point x="452" y="679"/>
      <point x="328" y="679" type="curve" smooth="yes"/>
    </contour>
    <contour>
      <point x="390" y="606"/>
      <point x="423" y="563"/>
      <point x="423" y="455" type="curve" smooth="yes"/>
      <point x="423" y="422"/>
      <point x="420" y="384"/>
      <point x="414" y="339" type="curve" smooth="yes"/>
      <point x="386" y="140"/>
      <point x="328" y="61"/>
      <point x="244" y="61" type="curve" smooth="yes"/>
      <point x="182" y="61"/>
      <point x="149" y="104"/>
      <point x="149" y="212" type="curve" smooth="yes"/>
      <point x="149" y="245"/>
      <point x="152" y="283"/>
      <point x="158" y="329" type="curve" smooth="yes"/>
      <point x="186" y="527"/>
      <point x="243" y="606"/>
      <point x="328" y="606" type="curve" smooth="yes"/>
    </contour>
  </outline>
</glyph>
<glyph name="one" format="1">
  <advance width="427"/>
  <unicode hex="0031"/>
  <outline>
    <contour>
      <point x="295" y="669" type="line"/>
      <point x="72" y="541" type="line"/>
      <point x="103" y="467" type="line"/>
      <point x="270" y="562" type="line"/>
      <point x="190" y="0" type="line"/>
      <point x="282" y="0" type="line"/>
      <point x="376" y="669" type="line"/>
    </contour>
  </outline>
</glyph>
<glyph name="two" format="1">
  <advance width="489"/>
  <unicode hex="0032"/>
  <outline>
    <contour>
      <point x="198" y="679"/>
      <point x="130" y="647"/>
      <point x="66" y="581" type="curve"/>
      <point x="124" y="528" type="line"/>
      <point x="173" y="579"/>
      <point x="215" y="603"/>
      <point x="272" y="603" type="curve" smooth="yes"/>
      <point x="329" y="603"/>
      <point x="367" y="571"/>
      <point x="367" y="508" type="curve" smooth="yes"/>
      <point x="367" y="416"/>
      <point x="318" y="358"/>
      <point x="11" y="75" type="curve"/>
      <point x="1" y="0" type="line"/>
      <point x="392" y="0" type="line"/>
      <point x="414" y="77" type="line"/>
      <point x="117" y="75" type="line"/>
      <point x="399" y="319"/>
      <point x="462" y="406"/>
      <point x="462" y="511" type="curve" smooth="yes"/>
      <point x="462" y="610"/>
      <point x="392" y="679"/>
      <point x="279" y="679" type="curve" smooth="yes"/>
    </contour>
  </outline>
</glyph>
<glyph name="three" format="1">
  <advance width="493"/>
  <unicode hex="0033"/>
  <outline>
    <contour>
      <point x="206" y="679"/>
      <point x="142" y="655"/>
      <point x="77" y="601" type="curve"/>
      <point x="122" y="543" type="line"/>
      <point x="172" y="585"/>
      <point x="215" y="605"/>
      <point x="269" y="605" type="curve" smooth="yes"/>
      <point x="327" y="605"/>
      <point x="362" y="574"/>
      <point x="362" y="520" type="curve" smooth="yes"/>
      <point x="362" y="465"/>
      <point x="319" y="385"/>
      <point x="222" y="385" type="curve" smooth="yes"/>
      <point x="190" y="385" type="line"/>
      <point x="169" y="314" type="line"/>
      <point x="221" y="314" type="line" smooth="yes"/>
      <point x="292" y="314"/>
      <point x="337" y="294"/>
      <point x="337" y="227" type="curve" smooth="yes"/>
      <point x="337" y="131"/>
      <point x="273" y="63"/>
      <point x="178" y="63" type="curve" smooth="yes"/>
      <point x="127" y="63"/>
      <point x="84" y="81"/>
      <point x="49" y="130" type="curve"/>
      <point x="-11" y="80" type="line"/>
      <point x="31" y="19"/>
      <point x="97" y="-12"/>
      <point x="178" y="-12" type="curve" smooth="yes"/>
      <point x="360" y="-12"/>
      <point x="430" y="124"/>
      <point x="430" y="216" type="curve" smooth="yes"/>
      <point x="430" y="300"/>
      <point x="374" y="348"/>
      <point x="302" y="354" type="curve"/>
      <point x="413" y="379"/>
      <point x="454" y="455"/>
      <point x="454" y="522" type="curve" smooth="yes"/>
      <point x="454" y="608"/>
      <point x="393" y="679"/>
      <point x="276" y="679" type="curve" smooth="yes"/>
    </contour>
  </outline>
</glyph>
<glyph name="four" format="1">
  <advance width="526"/>
  <unicode hex="0034"/>
  <outline>
    <contour>
      <point x="34" y="231" type="line"/>
      <point x="25" y="165" type="line"/>
      <point x="483" y="165" type="line"/>
      <point x="493" y="238" type="line"/>
      <point x="135" y="238" type="line"/>
      <point x="369" y="647" type="line"/>
      <point x="292" y="679" type="line"/>
    </contour>
    <contour>
      <point x="353" y="418" type="line"/>
      <point x="316" y="222" type="line"/>
      <point x="285" y="0" type="line"/>
      <point x="374" y="0" type="line"/>
      <point x="433" y="418" type="line"/>
    </contour>
  </outline>
</glyph>
<glyph name="five" format="1">
  <advance width="495"/>
  <unicode hex="0035"/>
  <outline>
    <contour>
      <point x="127" y="669" type="line"/>
      <point x="80" y="332" type="line"/>
      <point x="152" y="331" type="line"/>
      <point x="187" y="347"/>
      <point x="214" y="355"/>
      <point x="252" y="355" type="curve" smooth="yes"/>
      <point x="310" y="355"/>
      <point x="353" y="329"/>
      <point x="353" y="247" type="curve" smooth="yes"/>
      <point x="353" y="178"/>
      <point x="313" y="63"/>
      <point x="190" y="63" type="curve"/>
      <point x="134" y="63"/>
      <point x="94" y="82"/>
      <point x="60" y="126" type="curve"/>
      <point x="0" y="75" type="line"/>
      <point x="44" y="22"/>
      <point x="100" y="-12"/>
      <point x="188" y="-12" type="curve"/>
      <point x="375" y="-12"/>
      <point x="446" y="140"/>
      <point x="446" y="245" type="curve" smooth="yes"/>
      <point x="446" y="361"/>
      <point x="383" y="426"/>
      <point x="282" y="426" type="curve" smooth="yes"/>
      <point x="248" y="426"/>
      <point x="212" y="419"/>
      <point x="174" y="401" type="curve"/>
      <point x="204" y="597" type="line"/>
      <point x="463" y="597" type="line"/>
      <point x="485" y="669" type="line"/>
    </contour>
  </outline>
</glyph>
<glyph name="six" format="1">
  <advance width="525"/>
  <unicode hex="0036"/>
  <outline>
    <contour>
      <point x="202" y="679"/>
      <point x="90" y="536"/>
      <point x="60" y="319" type="curve" smooth="yes"/>
      <point x="55" y="284"/>
      <point x="53" y="251"/>
      <point x="53" y="221" type="curve" smooth="yes"/>
      <point x="53" y="80"/>
      <point x="106" y="-12"/>
      <point x="241" y="-12" type="curve" smooth="yes"/>
      <point x="411" y="-12"/>
      <point x="483" y="155"/>
      <point x="483" y="264" type="curve" smooth="yes"/>
      <point x="483" y="382"/>
      <point x="412" y="440"/>
      <point x="324" y="440" type="curve" smooth="yes"/>
      <point x="258" y="440"/>
      <point x="198" y="411"/>
      <point x="141" y="337" type="curve"/>
      <point x="135" y="256" type="line"/>
      <point x="177" y="320"/>
      <point x="239" y="367"/>
      <point x="306" y="367" type="curve" smooth="yes"/>
      <point x="357" y="367"/>
      <point x="392" y="342"/>
      <point x="392" y="267" type="curve" smooth="yes"/>
      <point x="392" y="194"/>
      <point x="359" y="61"/>
      <point x="244" y="61" type="curve" smooth="yes"/>
      <point x="173" y="61"/>
      <point x="141" y="105"/>
      <point x="141" y="200" type="curve" smooth="yes"/>
      <point x="141" y="228"/>
      <point x="144" y="260"/>
      <point x="149" y="297" type="curve"/>
      <point x="152" y="326" type="line"/>
      <point x="174" y="492"/>
      <point x="251" y="606"/>
      <point x="354" y="606" type="curve" smooth="yes"/>
      <point x="388" y="606"/>
      <point x="422" y="596"/>
      <point x="449" y="577" type="curve"/>
      <point x="490" y="637" type="line"/>
      <point x="455" y="663"/>
      <point x="412" y="679"/>
      <point x="357" y="679" type="curve" smooth="yes"/>
    </contour>
  </outline>
</glyph>
<glyph name="seven" format="1">
  <advance width="438"/>
  <unicode hex="0037"/>
  <outline>
    <contour>
      <point x="81" y="669" type="line"/>
      <point x="70" y="594" type="line"/>
      <point x="362" y="594" type="line"/>
      <point x="43" y="18" type="line"/>
      <point x="126" y="-10" type="line"/>
      <point x="457" y="600" type="line"/>
      <point x="466" y="669" type="line"/>
    </contour>
  </outline>
</glyph>
<glyph name="eight" format="1">
  <advance width="545"/>
  <unicode hex="0038"/>
  <outline>
    <contour>
      <point x="218" y="679"/>
      <point x="105" y="620"/>
      <point x="105" y="493" type="curve" smooth="yes"/>
      <point x="105" y="429"/>
      <point x="137" y="375"/>
      <point x="206" y="344" type="curve"/>
      <point x="225" y="335" type="line"/>
      <point x="271" y="320" type="line" smooth="yes"/>
      <point x="361" y="287"/>
      <point x="397" y="260"/>
      <point x="397" y="206" type="curve" smooth="yes"/>
      <point x="397" y="122"/>
      <point x="334" y="61"/>
      <point x="240" y="61" type="curve" smooth="yes"/>
      <point x="168" y="61"/>
      <point x="125" y="99"/>
      <point x="125" y="163" type="curve" smooth="yes"/>
      <point x="125" y="221"/>
      <point x="150" y="288"/>
      <point x="260" y="332" type="curve"/>
      <point x="200" y="359" type="line"/>
      <point x="67" y="309"/>
      <point x="31" y="240"/>
      <point x="31" y="162" type="curve" smooth="yes"/>
      <point x="31" y="60"/>
      <point x="109" y="-12"/>
      <point x="236" y="-12" type="curve" smooth="yes"/>
      <point x="380" y="-12"/>
      <point x="490" y="77"/>
      <point x="490" y="202" type="curve" smooth="yes"/>
      <point x="490" y="278"/>
      <point x="442" y="332"/>
      <point x="355" y="365" type="curve"/>
      <point x="337" y="374" type="line"/>
      <point x="299" y="386" type="line" smooth="yes"/>
      <point x="233" y="409"/>
      <point x="193" y="432"/>
      <point x="193" y="494" type="curve" smooth="yes"/>
      <point x="193" y="543"/>
      <point x="224" y="610"/>
      <point x="326" y="610" type="curve" smooth="yes"/>
      <point x="389" y="610"/>
      <point x="421" y="577"/>
      <point x="421" y="524" type="curve" smooth="yes"/>
      <point x="421" y="474"/>
      <point x="403" y="424"/>
      <point x="294" y="372" type="curve"/>
      <point x="358" y="349" type="line"/>
      <point x="463" y="393"/>
      <point x="510" y="442"/>
      <point x="510" y="525" type="curve" smooth="yes"/>
      <point x="510" y="627"/>
      <point x="419" y="679"/>
      <point x="325" y="679" type="curve" smooth="yes"/>
    </contour>
  </outline>
</glyph>
<glyph name="nine" format="1">
  <advance width="519"/>
  <unicode hex="0039"/>
  <outline>
    <contour>
      <point x="407" y="416" type="line"/>
      <point x="366" y="356"/>
      <point x="313" y="315"/>
      <point x="249" y="315" type="curve" smooth="yes"/>
      <point x="195" y="315"/>
      <point x="159" y="351"/>
      <point x="159" y="420" type="curve" smooth="yes"/>
      <point x="159" y="495"/>
      <point x="189" y="606"/>
      <point x="307" y="606" type="curve" smooth="yes"/>
      <point x="369" y="606"/>
      <point x="405" y="568"/>
      <point x="405" y="477" type="curve" smooth="yes"/>
      <point x="405" y="448"/>
      <point x="402" y="423"/>
      <point x="394" y="382" type="curve"/>
      <point x="386" y="336" type="line"/>
      <point x="362" y="179"/>
      <point x="242" y="97"/>
      <point x="65" y="48" type="curve"/>
      <point x="80" y="-23" type="line"/>
      <point x="438" y="64"/>
      <point x="496" y="277"/>
      <point x="496" y="466" type="curve" smooth="yes"/>
      <point x="496" y="595"/>
      <point x="431" y="679"/>
      <point x="305" y="679" type="curve" smooth="yes"/>
      <point x="138" y="679"/>
      <point x="69" y="543"/>
      <point x="69" y="424" type="curve" smooth="yes"/>
      <point x="69" y="314"/>
      <point x="138" y="243"/>
      <point x="231" y="243" type="curve" smooth="yes"/>
      <point x="302" y="243"/>
      <point x="359" y="282"/>
      <point x="392" y="331" type="curve"/>
    </contour>
  </outline>
</glyph>
<glyph name="less" format="1">
  <advance width="496"/>
  <unicode hex="003C"/>
  <outline>
    <contour>
      <point x="62" y="380" type="line"/>
      <point x="49" y="286" type="line"/>
      <point x="389" y="115" type="line"/>
      <point x="432" y="189" type="line"/>
      <point x="128" y="331" type="line"/>
      <point x="476" y="472" type="line"/>
      <point x="448" y="551" type="line"/>
    </contour>
  </outline>
</glyph>
<glyph name="greater" format="1">
  <advance width="494"/>
  <unicode hex="003E"/>
  <outline>
    <contour>
      <point x="79" y="475" type="line"/>
      <point x="383" y="338" type="line"/>
      <point x="36" y="191" type="line"/>
      <point x="62" y="115" type="line"/>
      <point x="448" y="286" type="line"/>
      <point x="461" y="380" type="line"/>
      <point x="121" y="551" type="line"/>
    </contour>
  </outline>
</glyph>
<glyph name="question" format="1">
  <advance width="453"/>
  <unicode hex="003F"/>
  <outline>
    <contour>
      <point x="212" y="701"/>
      <point x="141" y="671"/>
      <point x="76" y="604" type="curve"/>
      <point x="133" y="551" type="line"/>
      <point x="180" y="601"/>
      <point x="233" y="625"/>
      <point x="284" y="625" type="curve" smooth="yes"/>
      <point x="337" y="625"/>
      <point x="369" y="602"/>
      <point x="369" y="558" type="curve" smooth="yes"/>
      <point x="369" y="416"/>
      <point x="130" y="449"/>
      <point x="130" y="269" type="curve" smooth="yes"/>
      <point x="130" y="257"/>
      <point x="134" y="234"/>
      <point x="140" y="219" type="curve"/>
      <point x="222" y="233" type="line"/>
      <point x="219" y="245"/>
      <point x="219" y="254"/>
      <point x="219" y="262" type="curve" smooth="yes"/>
      <point x="219" y="404"/>
      <point x="464" y="363"/>
      <point x="464" y="560" type="curve" smooth="yes"/>
      <point x="464" y="635"/>
      <point x="408" y="701"/>
      <point x="292" y="701" type="curve" smooth="yes"/>
    </contour>
    <component base="period" xOffset="90"/>
  </outline>
</glyph>
<glyph name="at" format="1">
  <advance width="1014"/>
  <unicode hex="0040"/>
  <outline>
    <contour>
      <point x="197" y="701"/>
      <point x="62" y="398"/>
      <point x="62" y="185" type="curve" smooth="yes"/>
      <point x="62" y="-48"/>
      <point x="228" y="-213"/>
      <point x="469" y="-213" type="curve" smooth="yes"/>
      <point x="557" y="-213"/>
      <point x="619" y="-198"/>
      <point x="688" y="-175" type="curve"/>
      <point x="669" y="-102" type="line"/>
      <point x="614" y="-121"/>
      <point x="549" y="-137"/>
      <point x="473" y="-137" type="curve" smooth="yes"/>
      <point x="270" y="-137"/>
      <point x="154" y="3"/>
      <point x="154" y="183" type="curve" smooth="yes"/>
      <point x="154" y="365"/>
      <point x="255" y="625"/>
      <point x="568" y="625" type="curve" smooth="yes"/>
      <point x="758" y="625"/>
      <point x="862" y="527"/>
      <point x="862" y="357" type="curve" smooth="yes"/>
      <point x="862" y="251"/>
      <point x="827" y="80"/>
      <point x="715" y="80" type="curve" smooth="yes"/>
      <point x="663" y="80"/>
      <point x="660" y="120"/>
      <point x="665" y="168" type="curve" smooth="yes"/>
      <point x="702" y="451" type="line"/>
      <point x="652" y="481"/>
      <point x="605" y="492"/>
      <point x="551" y="492" type="curve" smooth="yes"/>
      <point x="365" y="492"/>
      <point x="299" y="320"/>
      <point x="299" y="186" type="curve" smooth="yes"/>
      <point x="299" y="80"/>
      <point x="353" y="11"/>
      <point x="447" y="11" type="curve" smooth="yes"/>
      <point x="524" y="11"/>
      <point x="572" y="60"/>
      <point x="600" y="110" type="curve"/>
      <point x="605" y="64"/>
      <point x="635" y="9"/>
      <point x="716" y="9" type="curve" smooth="yes"/>
      <point x="896" y="9"/>
      <point x="952" y="223"/>
      <point x="952" y="351" type="curve" smooth="yes"/>
      <point x="952" y="548"/>
      <point x="820" y="701"/>
      <point x="570" y="701" type="curve" smooth="yes"/>
    </contour>
    <contour>
      <point x="411" y="78"/>
      <point x="387" y="111"/>
      <point x="387" y="175" type="curve" smooth="yes"/>
      <point x="387" y="285"/>
      <point x="420" y="426"/>
      <point x="553" y="426" type="curve" smooth="yes"/>
      <point x="581" y="426"/>
      <point x="600" y="421"/>
      <point x="619" y="412" type="curve"/>
      <point x="584" y="173" type="line"/>
      <point x="573" y="147"/>
      <point x="535" y="78"/>
      <point x="459" y="78" type="curve" smooth="yes"/>
    </contour>
  </outline>
</glyph>
<glyph name="A" format="1">
  <advance width="567"/>
  <unicode hex="0041"/>
  <outline>
    <contour>
      <point x="284" y="689" type="line"/>
      <point x="-32" y="0" type="line"/>
      <point x="65" y="0" type="line"/>
      <point x="332" y="610" type="line"/>
      <point x="427" y="0" type="line"/>
      <point x="524" y="0" type="line"/>
      <point x="403" y="689" type="line"/>
    </contour>
    <contour>
      <point x="158" y="250" type="line"/>
      <point x="124" y="173" type="line"/>
      <point x="412" y="173" type="line"/>
      <point x="400" y="250" type="line"/>
    </contour>
    <contour>
      <point x="495" y="0" type="move" name="ogonek"/>
    </contour>
    <contour>
      <point x="344" y="689" type="move" name="top"/>
    </contour>
    <contour>
      <point x="227" y="689" type="move" name="topleft"/>
    </contour>
    <contour>
      <point x="246" y="0" type="move" name="bottom"/>
    </contour>
  </outline>
</glyph>
<glyph name="B" format="1">
  <advance width="602"/>
  <unicode hex="0042"/>
  <outline>
    <contour>
      <point x="159" y="689" type="line"/>
      <point x="62" y="0" type="line"/>
      <point x="252" y="0" type="line" smooth="yes"/>
      <point x="478" y="0"/>
      <point x="550" y="99"/>
      <point x="550" y="220" type="curve" smooth="yes"/>
      <point x="550" y="317"/>
      <point x="482" y="351"/>
      <point x="411" y="364" type="curve"/>
      <point x="493" y="381"/>
      <point x="565" y="438"/>
      <point x="565" y="535" type="curve" smooth="yes"/>
      <point x="565" y="641"/>
      <point x="474" y="689"/>
      <point x="349" y="689" type="curve" smooth="yes"/>
    </contour>
    <contour>
      <point x="414" y="614"/>
      <point x="469" y="599"/>
      <point x="469" y="532" type="curve" smooth="yes"/>
      <point x="469" y="437"/>
      <point x="396" y="397"/>
      <point x="313" y="397" type="curve" smooth="yes"/>
      <point x="197" y="397" type="line"/>
      <point x="187" y="324" type="line"/>
      <point x="316" y="324" type="line" smooth="yes"/>
      <point x="391" y="324"/>
      <point x="452" y="301"/>
      <point x="452" y="222" type="curve" smooth="yes"/>
      <point x="452" y="139"/>
      <point x="411" y="76"/>
      <point x="256" y="76" type="curve" smooth="yes"/>
      <point x="167" y="76" type="line"/>
      <point x="242" y="614" type="line"/>
      <point x="352" y="614" type="line" smooth="yes"/>
    </contour>
    <contour>
      <point x="338" y="689" type="move" name="top"/>
    </contour>
  </outline>
</glyph>
<glyph name="C" format="1">
  <advance width="555"/>
  <unicode hex="0043"/>
  <outline>
    <contour>
      <point x="155" y="701"/>
      <point x="61" y="452"/>
      <point x="61" y="268" type="curve" smooth="yes"/>
      <point x="61" y="86"/>
      <point x="159" y="-12"/>
      <point x="306" y="-12" type="curve" smooth="yes"/>
      <point x="396" y="-12"/>
      <point x="464" y="25"/>
      <point x="509" y="63" type="curve"/>
      <point x="467" y="128" type="line"/>
      <point x="425" y="99"/>
      <point x="379" y="68"/>
      <point x="312" y="68" type="curve" smooth="yes"/>
      <point x="224" y="68"/>
      <point x="160" y="122"/>
      <point x="160" y="260" type="curve" smooth="yes"/>
      <point x="160" y="415"/>
      <point x="219" y="623"/>
      <point x="398" y="623" type="curve" smooth="yes"/>
      <point x="445" y="623"/>
      <point x="484" y="609"/>
      <point x="523" y="575" type="curve"/>
      <point x="579" y="630" type="line"/>
      <point x="531" y="675"/>
      <point x="474" y="701"/>
      <point x="394" y="701" type="curve" smooth="yes"/>
    </contour>
    <contour>
      <point x="405" y="689" type="move" name="top"/>
    </contour>
    <contour>
      <point x="307" y="0" type="move" name="bottom"/>
    </contour>
  </outline>
</glyph>
<glyph name="D" format="1">
  <advance width="639"/>
  <unicode hex="0044"/>
  <outline>
    <contour>
      <point x="159" y="689" type="line"/>
      <point x="62" y="0" type="line"/>
      <point x="228" y="0" type="line" smooth="yes"/>
      <point x="500" y="0"/>
      <point x="601" y="207"/>
      <point x="601" y="428" type="curve" smooth="yes"/>
      <point x="601" y="643"/>
      <point x="456" y="689"/>
      <point x="300" y="689" type="curve" smooth="yes"/>
    </contour>
    <contour>
      <point x="410" y="613"/>
      <point x="505" y="591"/>
      <point x="505" y="430" type="curve" smooth="yes"/>
      <point x="505" y="265"/>
      <point x="442" y="75"/>
      <point x="242" y="75" type="curve" smooth="yes"/>
      <point x="167" y="75" type="line"/>
      <point x="242" y="613" type="line"/>
      <point x="314" y="613" type="line" smooth="yes"/>
    </contour>
    <contour>
      <point x="331" y="345" type="move" name="center"/>
    </contour>
    <contour>
      <point x="251" y="0" type="move" name="bottom"/>
    </contour>
    <contour>
      <point x="360" y="689" type="move" name="top"/>
    </contour>
  </outline>
</glyph>
<glyph name="E" format="1">
  <advance width="529"/>
  <unicode hex="0045"/>
  <outline>
    <contour>
      <point x="159" y="689" type="line"/>
      <point x="62" y="0" type="line"/>
      <point x="439" y="0" type="line"/>
      <point x="450" y="76" type="line"/>
      <point x="167" y="76" type="line"/>
      <point x="200" y="312" type="line"/>
      <point x="430" y="312" type="line"/>
      <point x="440" y="388" type="line"/>
      <point x="210" y="388" type="line"/>
      <point x="242" y="613" type="line"/>
      <point x="507" y="613" type="line"/>
      <point x="528" y="689" type="line"/>
    </contour>
    <contour>
      <point x="409" y="0" type="move" name="ogonek"/>
    </contour>
    <contour>
      <point x="347" y="689" type="move" name="top"/>
    </contour>
    <contour>
      <point x="139" y="689" type="move" name="topleft"/>
    </contour>
    <contour>
      <point x="251" y="0" type="move" name="bottom"/>
    </contour>
  </outline>
</glyph>
<glyph name="F" format="1">
  <advance width="485"/>
  <unicode hex="0046"/>
  <outline>
    <contour>
      <point x="159" y="689" type="line"/>
      <point x="62" y="0" type="line"/>
      <point x="156" y="0" type="line"/>
      <point x="199" y="303" type="line"/>
      <point x="422" y="303" type="line"/>
      <point x="432" y="378" type="line"/>
      <point x="209" y="378" type="line"/>
      <point x="242" y="613" type="line"/>
      <point x="500" y="613" type="line"/>
      <point x="521" y="689" type="line"/>
    </contour>
    <contour>
      <point x="340" y="689" type="move" name="top"/>
    </contour>
  </outline>
</glyph>
<glyph name="G" format="1">
  <advance width="625"/>
  <unicode hex="0047"/>
  <outline>
    <contour>
      <point x="163" y="701"/>
      <point x="60" y="457"/>
      <point x="60" y="259" type="curve" smooth="yes"/>
      <point x="60" y="79"/>
      <point x="154" y="-12"/>
      <point x="302" y="-12" type="curve" smooth="yes"/>
      <point x="396" y="-12"/>
      <point x="468" y="11"/>
      <point x="535" y="54" type="curve"/>
      <point x="580" y="382" type="line"/>
      <point x="356" y="382" type="line"/>
      <point x="356" y="305" type="line"/>
      <point x="476" y="305" type="line"/>
      <point x="446" y="101" type="line"/>
      <point x="404" y="76"/>
      <point x="359" y="66"/>
      <point x="315" y="66" type="curve" smooth="yes"/>
      <point x="213" y="66"/>
      <point x="159" y="119"/>
      <point x="159" y="247" type="curve" smooth="yes"/>
      <point x="159" y="413"/>
      <point x="227" y="623"/>
      <point x="406" y="623" type="curve" smooth="yes"/>
      <point x="465" y="623"/>
      <point x="502" y="608"/>
      <point x="545" y="569" type="curve"/>
      <point x="607" y="622" type="line"/>
      <point x="555" y="672"/>
      <point x="494" y="701"/>
      <point x="405" y="701" type="curve" smooth="yes"/>
    </contour>
    <contour>
      <point x="412" y="689" type="move" name="top"/>
    </contour>
    <contour>
      <point x="303" y="0" type="move" name="bottom"/>
    </contour>
  </outline>
</glyph>
<glyph name="H" format="1">
  <advance width="674"/>
  <unicode hex="0048"/>
  <outline>
    <contour>
      <point x="538" y="0" type="line"/>
      <point x="635" y="689" type="line"/>
      <point x="541" y="689" type="line"/>
      <point x="500" y="401" type="line"/>
      <point x="212" y="401" type="line"/>
      <point x="253" y="689" type="line"/>
      <point x="159" y="689" type="line"/>
      <point x="62" y="0" type="line"/>
      <point x="156" y="0" type="line"/>
      <point x="201" y="323" type="line"/>
      <point x="489" y="323" type="line"/>
      <point x="444" y="0" type="line"/>
    </contour>
    <contour>
      <point x="308" y="0" type="move" name="bottom"/>
    </contour>
    <contour>
      <point x="397" y="689" type="move" name="top"/>
    </contour>
    <contour>
      <point x="139" y="689" type="move" name="topleft"/>
    </contour>
    <contour>
      <point x="548" y="0" type="move" name="bottomright"/>
    </contour>
    <contour>
      <point x="348" y="345" type="move" name="center"/>
    </contour>
  </outline>
</glyph>
<glyph name="I" format="1">
  <advance width="292"/>
  <unicode hex="0049"/>
  <outline>
    <contour>
      <point x="159" y="689" type="line"/>
      <point x="62" y="0" type="line"/>
      <point x="156" y="0" type="line"/>
      <point x="253" y="689" type="line"/>
    </contour>
    <contour>
      <point x="144" y="0" type="move" name="ogonek"/>
    </contour>
    <contour>
      <point x="206" y="689" type="move" name="top"/>
    </contour>
    <contour>
      <point x="48" y="534" type="move" name="topleft"/>
    </contour>
    <contour>
      <point x="108" y="0" type="move" name="bottom"/>
    </contour>
  </outline>
</glyph>
<glyph name="J" format="1">
  <advance width="300"/>
  <unicode hex="004A"/>
  <outline>
    <contour>
      <point x="172" y="689" type="line"/>
      <point x="89" y="103" type="line" smooth="yes"/>
      <point x="77" y="11"/>
      <point x="50" y="-31"/>
      <point x="-45" y="-67" type="curve"/>
      <point x="-26" y="-138" type="line"/>
      <point x="88" y="-103"/>
      <point x="162" y="-51"/>
      <point x="182" y="93" type="curve" smooth="yes"/>
      <point x="266" y="689" type="line"/>
    </contour>
    <contour>
      <point x="219" y="689" type="move" name="top"/>
    </contour>
  </outline>
</glyph>
<glyph name="K" format="1">
  <advance width="583"/>
  <unicode hex="004B"/>
  <outline>
    <contour>
      <point x="515" y="689" type="line"/>
      <point x="213" y="368" type="line"/>
      <point x="434" y="0" type="line"/>
      <point x="546" y="0" type="line"/>
      <point x="319" y="365" type="line"/>
      <point x="626" y="689" type="line"/>
    </contour>
    <contour>
      <point x="159" y="689" type="line"/>
      <point x="62" y="0" type="line"/>
      <point x="157" y="0" type="line"/>
      <point x="254" y="689" type="line"/>
    </contour>
    <contour>
      <point x="385" y="689" type="move" name="top"/>
    </contour>
    <contour>
      <point x="275" y="0" type="move" name="bottom"/>
    </contour>
  </outline>
</glyph>
<glyph name="L" format="1">
  <advance width="492"/>
  <unicode hex="004C"/>
  <outline>
    <contour>
      <point x="159" y="689" type="line"/>
      <point x="62" y="0" type="line"/>
      <point x="426" y="0" type="line"/>
      <point x="448" y="83" type="line"/>
      <point x="168" y="83" type="line"/>
      <point x="253" y="689" type="line"/>
    </contour>
    <contour>
      <point x="244" y="0" type="move" name="bottom"/>
    </contour>
    <contour>
      <point x="206" y="689" type="move" name="top"/>
    </contour>
    <contour>
      <point x="278" y="689" type="move" name="topright"/>
    </contour>
    <contour>
      <point x="404" y="390" type="move" name="center"/>
    </contour>
  </outline>
</glyph>
<glyph name="M" format="1">
  <advance width="790"/>
  <unicode hex="004D"/>
  <outline>
    <contour>
      <point x="580" y="689" type="line"/>
      <point x="376" y="190" type="line"/>
      <point x="298" y="689" type="line"/>
      <point x="179" y="689" type="line"/>
      <point x="25" y="0" type="line"/>
      <point x="115" y="0" type="line"/>
      <point x="179" y="301" type="line" smooth="yes"/>
      <point x="201" y="402"/>
      <point x="223" y="514"/>
      <point x="232" y="590" type="curve"/>
      <point x="315" y="78" type="line"/>
      <point x="405" y="78" type="line"/>
      <point x="623" y="591" type="line"/>
      <point x="616" y="528"/>
      <point x="608" y="422"/>
      <point x="602" y="314" type="curve" smooth="yes"/>
      <point x="582" y="0" type="line"/>
      <point x="673" y="0" type="line"/>
      <point x="713" y="689" type="line"/>
    </contour>
    <contour>
      <point x="439" y="689" type="move" name="top"/>
    </contour>
    <contour>
      <point x="358" y="0" type="move" name="bottom"/>
    </contour>
    <contour>
      <point x="683" y="0" type="move" name="bottomright"/>
    </contour>
  </outline>
</glyph>
<glyph name="N" format="1">
  <advance width="677"/>
  <unicode hex="004E"/>
  <outline>
    <contour>
      <point x="549" y="689" type="line"/>
      <point x="496" y="316" type="line" smooth="yes"/>
      <point x="485" y="232"/>
      <point x="481" y="172"/>
      <point x="481" y="81" type="curve"/>
      <point x="283" y="689" type="line"/>
      <point x="159" y="689" type="line"/>
      <point x="62" y="0" type="line"/>
      <point x="151" y="0" type="line"/>
      <point x="195" y="313" type="line" smooth="yes"/>
      <point x="213" y="441"/>
      <point x="220" y="523"/>
      <point x="221" y="607" type="curve"/>
      <point x="418" y="0" type="line"/>
      <point x="541" y="0" type="line"/>
      <point x="638" y="689" type="line"/>
    </contour>
    <contour>
      <point x="410" y="689" type="move" name="top"/>
    </contour>
    <contour>
      <point x="303" y="0" type="move" name="bottom"/>
    </contour>
  </outline>
</glyph>
<glyph name="O" format="1">
  <advance width="686"/>
  <unicode hex="004F"/>
  <outline>
    <contour>
      <point x="147" y="701"/>
      <point x="61" y="441"/>
      <point x="61" y="265" type="curve" smooth="yes"/>
      <point x="61" y="85"/>
      <point x="158" y="-12"/>
      <point x="308" y="-12" type="curve" smooth="yes"/>
      <point x="562" y="-12"/>
      <point x="648" y="239"/>
      <point x="648" y="421" type="curve" smooth="yes"/>
      <point x="648" y="603"/>
      <point x="552" y="701"/>
      <point x="402" y="701" type="curve" smooth="yes"/>
    </contour>
    <contour>
      <point x="494" y="623"/>
      <point x="550" y="566"/>
      <point x="550" y="428" type="curve" smooth="yes"/>
      <point x="550" y="288"/>
      <point x="500" y="66"/>
      <point x="311" y="66" type="curve" smooth="yes"/>
      <point x="219" y="66"/>
      <point x="159" y="120"/>
      <point x="159" y="262" type="curve" smooth="yes"/>
      <point x="159" y="403"/>
      <point x="211" y="623"/>
      <point x="398" y="623" type="curve" smooth="yes"/>
    </contour>
    <contour>
      <point x="407" y="689" type="move" name="top"/>
    </contour>
    <contour>
      <point x="603" y="689" type="move" name="topright"/>
    </contour>
    <contour>
      <point x="169" y="689" type="move" name="topleft"/>
    </contour>
    <contour>
      <point x="303" y="0" type="move" name="bottom"/>
    </contour>
  </outline>
</glyph>
<glyph name="P" format="1">
  <advance width="575"/>
  <unicode hex="0050"/>
  <outline>
    <contour>
      <point x="242" y="615" type="line"/>
      <point x="329" y="615" type="line" smooth="yes"/>
      <point x="419" y="615"/>
      <point x="476" y="588"/>
      <point x="476" y="507" type="curve" smooth="yes"/>
      <point x="476" y="418"/>
      <point x="438" y="328"/>
      <point x="282" y="328" type="curve" smooth="yes"/>
      <point x="186" y="328" type="line"/>
      <point x="176" y="253" type="line"/>
      <point x="280" y="253" type="line" smooth="yes"/>
      <point x="500" y="253"/>
      <point x="576" y="379"/>
      <point x="576" y="507" type="curve" smooth="yes"/>
      <point x="576" y="631"/>
      <point x="486" y="689"/>
      <point x="336" y="689" type="curve" smooth="yes"/>
      <point x="159" y="689" type="line"/>
      <point x="62" y="0" type="line"/>
      <point x="156" y="0" type="line"/>
    </contour>
    <contour>
      <point x="348" y="689" type="move" name="top"/>
    </contour>
    <contour>
      <point x="251" y="0" type="move" name="bottom"/>
    </contour>
    <contour>
      <point x="139" y="687" type="move" name="topleft"/>
    </contour>
  </outline>
</glyph>
<glyph name="Q" format="1">
  <advance width="683"/>
  <unicode hex="0051"/>
  <outline>
    <contour>
      <point x="308" y="-12" type="line"/>
      <point x="432" y="-12"/>
      <point x="485" y="-33"/>
      <point x="552" y="-103" type="curve"/>
      <point x="622" y="-26" type="line"/>
      <point x="577" y="8"/>
      <point x="522" y="37"/>
      <point x="444" y="37" type="curve"/>
    </contour>
    <contour>
      <point x="147" y="701"/>
      <point x="61" y="441"/>
      <point x="61" y="265" type="curve" smooth="yes"/>
      <point x="61" y="85"/>
      <point x="158" y="-12"/>
      <point x="308" y="-12" type="curve" smooth="yes"/>
      <point x="347" y="-12"/>
      <point x="381" y="-6"/>
      <point x="412" y="4" type="curve"/>
      <point x="434" y="30" type="line"/>
      <point x="593" y="86"/>
      <point x="648" y="275"/>
      <point x="648" y="421" type="curve" smooth="yes"/>
      <point x="648" y="603"/>
      <point x="552" y="701"/>
      <point x="402" y="701" type="curve" smooth="yes"/>
    </contour>
    <contour>
      <point x="494" y="623"/>
      <point x="550" y="566"/>
      <point x="550" y="438" type="curve" smooth="yes"/>
      <point x="550" y="288"/>
      <point x="500" y="66"/>
      <point x="311" y="66" type="curve" smooth="yes"/>
      <point x="219" y="66"/>
      <point x="159" y="120"/>
      <point x="159" y="255" type="curve" smooth="yes"/>
      <point x="159" y="403"/>
      <point x="211" y="623"/>
      <point x="398" y="623" type="curve" smooth="yes"/>
    </contour>
    <contour>
      <point x="401" y="689" type="move" name="top"/>
    </contour>
    <contour>
      <point x="304" y="0" type="move" name="bottom"/>
    </contour>
  </outline>
</glyph>
<glyph name="R" format="1">
  <advance width="599"/>
  <unicode hex="0052"/>
  <outline>
    <contour>
      <point x="159" y="689" type="line"/>
      <point x="62" y="0" type="line"/>
      <point x="156" y="0" type="line"/>
      <point x="242" y="615" type="line"/>
      <point x="331" y="615" type="line" smooth="yes"/>
      <point x="429" y="615"/>
      <point x="473" y="588"/>
      <point x="473" y="518" type="curve" smooth="yes"/>
      <point x="473" y="449"/>
      <point x="438" y="365"/>
      <point x="308" y="365" type="curve" smooth="yes"/>
      <point x="192" y="365" type="line"/>
      <point x="182" y="292" type="line"/>
      <point x="312" y="292" type="line"/>
      <point x="509" y="307"/>
      <point x="572" y="418"/>
      <point x="572" y="518" type="curve" smooth="yes"/>
      <point x="572" y="632"/>
      <point x="494" y="689"/>
      <point x="336" y="689" type="curve" smooth="yes"/>
    </contour>
    <contour>
      <point x="300" y="306" type="line"/>
      <point x="433" y="0" type="line"/>
      <point x="537" y="0" type="line"/>
      <point x="393" y="317" type="line"/>
    </contour>
    <contour>
      <point x="356" y="689" type="move" name="top"/>
    </contour>
    <contour>
      <point x="269" y="0" type="move" name="bottom"/>
    </contour>
  </outline>
</glyph>
<glyph name="S" format="1">
  <advance width="539"/>
  <unicode hex="0053"/>
  <outline>
    <contour>
      <point x="156" y="701"/>
      <point x="87" y="586"/>
      <point x="87" y="507" type="curve" smooth="yes"/>
      <point x="87" y="408"/>
      <point x="150" y="360"/>
      <point x="267" y="324" type="curve" smooth="yes"/>
      <point x="362" y="291"/>
      <point x="394" y="264"/>
      <point x="394" y="204" type="curve" smooth="yes"/>
      <point x="394" y="114"/>
      <point x="312" y="66"/>
      <point x="224" y="66" type="curve" smooth="yes"/>
      <point x="151" y="66"/>
      <point x="100" y="91"/>
      <point x="59" y="136" type="curve"/>
      <point x="-1" y="80" type="line"/>
      <point x="48" y="24"/>
      <point x="121" y="-12"/>
      <point x="222" y="-12" type="curve" smooth="yes"/>
      <point x="430" y="-12"/>
      <point x="492" y="123"/>
      <point x="492" y="209" type="curve" smooth="yes"/>
      <point x="492" y="327"/>
      <point x="408" y="368"/>
      <point x="312" y="398" type="curve" smooth="yes"/>
      <point x="211" y="432"/>
      <point x="183" y="459"/>
      <point x="183" y="511" type="curve" smooth="yes"/>
      <point x="183" y="583"/>
      <point x="250" y="623"/>
      <point x="325" y="623" type="curve" smooth="yes"/>
      <point x="379" y="623"/>
      <point x="424" y="607"/>
      <point x="468" y="563" type="curve"/>
      <point x="527" y="618" type="line"/>
      <point x="476" y="671"/>
      <point x="414" y="701"/>
      <point x="323" y="701" type="curve" smooth="yes"/>
    </contour>
    <contour>
      <point x="333" y="689" type="move" name="top"/>
    </contour>
    <contour>
      <point x="227" y="0" type="move" name="bottom"/>
    </contour>
  </outline>
</glyph>
<glyph name="T" format="1">
  <advance width="511"/>
  <unicode hex="0054"/>
  <outline>
    <contour>
      <point x="74" y="689" type="line"/>
      <point x="62" y="608" type="line"/>
      <point x="256" y="608" type="line"/>
      <point x="171" y="0" type="line"/>
      <point x="265" y="0" type="line"/>
      <point x="350" y="608" type="line"/>
      <point x="540" y="608" type="line"/>
      <point x="562" y="689" type="line"/>
    </contour>
    <contour>
      <point x="219" y="0" type="move" name="bottom"/>
    </contour>
    <contour>
      <point x="314" y="689" type="move" name="top"/>
    </contour>
    <contour>
      <point x="275" y="0" type="move" name="bottomright"/>
    </contour>
    <contour>
      <point x="267" y="345" type="move" name="center"/>
    </contour>
  </outline>
</glyph>
<glyph name="U" format="1">
  <advance width="656"/>
  <unicode hex="0055"/>
  <outline>
    <contour>
      <point x="532" y="689" type="line"/>
      <point x="467" y="231" type="line" smooth="yes"/>
      <point x="452" y="124"/>
      <point x="396" y="68"/>
      <point x="296" y="68" type="curve" smooth="yes"/>
      <point x="201" y="68"/>
      <point x="163" y="118"/>
      <point x="178" y="225" type="curve" smooth="yes"/>
      <point x="243" y="689" type="line"/>
      <point x="149" y="689" type="line"/>
      <point x="83" y="224" type="line" smooth="yes"/>
      <point x="64" y="87"/>
      <point x="135" y="-12"/>
      <point x="292" y="-12" type="curve" smooth="yes"/>
      <point x="444" y="-12"/>
      <point x="541" y="81"/>
      <point x="561" y="218" type="curve" smooth="yes"/>
      <point x="627" y="689" type="line"/>
    </contour>
    <contour>
      <point x="387" y="0" type="move" name="ogonek"/>
    </contour>
    <contour>
      <point x="388" y="689" type="move" name="top"/>
    </contour>
    <contour>
      <point x="637" y="689" type="move" name="topright"/>
    </contour>
    <contour>
      <point x="291" y="0" type="move" name="bottom"/>
    </contour>
  </outline>
</glyph>
<glyph name="V" format="1">
  <advance width="550"/>
  <unicode hex="0056"/>
  <outline>
    <contour>
      <point x="506" y="689" type="line"/>
      <point x="251" y="103" type="line"/>
      <point x="163" y="689" type="line"/>
      <point x="65" y="689" type="line"/>
      <point x="188" y="0" type="line"/>
      <point x="289" y="0" type="line"/>
      <point x="604" y="689" type="line"/>
    </contour>
    <contour>
      <point x="335" y="689" type="move" name="top"/>
    </contour>
    <contour>
      <point x="238" y="0" type="move" name="bottom"/>
    </contour>
  </outline>
</glyph>
<glyph name="W" format="1">
  <advance width="820"/>
  <unicode hex="0057"/>
  <outline>
    <contour>
      <point x="768" y="689" type="line"/>
      <point x="568" y="83" type="line"/>
      <point x="519" y="689" type="line"/>
      <point x="417" y="689" type="line"/>
      <point x="200" y="83" type="line"/>
      <point x="176" y="689" type="line"/>
      <point x="86" y="689" type="line"/>
      <point x="128" y="0" type="line"/>
      <point x="246" y="0" type="line"/>
      <point x="454" y="577" type="line"/>
      <point x="498" y="0" type="line"/>
      <point x="619" y="0" type="line"/>
      <point x="855" y="689" type="line"/>
    </contour>
    <contour>
      <point x="470" y="689" type="move" name="top"/>
    </contour>
    <contour>
      <point x="373" y="0" type="move" name="bottom"/>
    </contour>
  </outline>
</glyph>
<glyph name="X" format="1">
  <advance width="534"/>
  <unicode hex="0058"/>
  <outline>
    <contour>
      <point x="83" y="689" type="line"/>
      <point x="226" y="367" type="line"/>
      <point x="276" y="305" type="line"/>
      <point x="389" y="0" type="line"/>
      <point x="492" y="0" type="line"/>
      <point x="335" y="372" type="line"/>
      <point x="285" y="430" type="line"/>
      <point x="186" y="689" type="line"/>
    </contour>
    <contour>
      <point x="463" y="689" type="line"/>
      <point x="285" y="430" type="line"/>
      <point x="223" y="367" type="line"/>
      <point x="-33" y="0" type="line"/>
      <point x="72" y="0" type="line"/>
      <point x="276" y="305" type="line"/>
      <point x="338" y="372" type="line"/>
      <point x="567" y="689" type="line"/>
    </contour>
    <contour>
      <point x="327" y="689" type="move" name="top"/>
    </contour>
    <contour>
      <point x="230" y="0" type="move" name="bottom"/>
    </contour>
    <contour>
      <point x="454" y="0" type="move" name="bottomright"/>
    </contour>
  </outline>
</glyph>
<glyph name="Y" format="1">
  <advance width="544"/>
  <unicode hex="0059"/>
  <outline>
    <contour>
      <point x="497" y="689" type="line"/>
      <point x="282" y="348" type="line"/>
      <point x="164" y="689" type="line"/>
      <point x="65" y="689" type="line"/>
      <point x="225" y="264" type="line"/>
      <point x="187" y="0" type="line"/>
      <point x="283" y="0" type="line"/>
      <point x="320" y="265" type="line"/>
      <point x="600" y="689" type="line"/>
    </contour>
    <contour>
      <point x="335" y="689" type="move" name="top"/>
    </contour>
    <contour>
      <point x="235" y="0" type="move" name="bottom"/>
    </contour>
    <contour>
      <point x="66" y="689" type="move" name="topleft"/>
    </contour>
  </outline>
</glyph>
<glyph name="Z" format="1">
  <advance width="516"/>
  <unicode hex="005A"/>
  <outline>
    <contour>
      <point x="424" y="0" type="line"/>
      <point x="446" y="81" type="line"/>
      <point x="111" y="80" type="line"/>
      <point x="522" y="612" type="line"/>
      <point x="532" y="689" type="line"/>
      <point x="125" y="689" type="line"/>
      <point x="114" y="609" type="line"/>
      <point x="416" y="609" type="line"/>
      <point x="2" y="76" type="line"/>
      <point x="-8" y="0" type="line"/>
    </contour>
    <contour>
      <point x="329" y="689" type="move" name="top"/>
    </contour>
    <contour>
      <point x="208" y="0" type="move" name="bottom"/>
    </contour>
  </outline>
</glyph>
<glyph name="bracketleft" format="1">
  <advance width="316"/>
  <unicode hex="005B"/>
  <outline>
    <contour>
      <point x="141" y="816" type="line"/>
      <point x="10" y="-116" type="line"/>
      <point x="215" y="-116" type="line"/>
      <point x="225" y="-40" type="line"/>
      <point x="106" y="-40" type="line"/>
      <point x="216" y="739" type="line"/>
      <point x="335" y="739" type="line"/>
      <point x="346" y="816" type="line"/>
    </contour>
  </outline>
</glyph>
<glyph name="backslash" format="1">
  <advance width="514"/>
  <unicode hex="005C"/>
  <outline>
    <contour>
      <point x="179" y="789" type="line"/>
      <point x="282" y="-104" type="line"/>
      <point x="360" y="-87" type="line"/>
      <point x="255" y="805" type="line"/>
    </contour>
  </outline>
</glyph>
<glyph name="bracketright" format="1">
  <advance width="316"/>
  <unicode hex="005D"/>
  <outline>
    <contour>
      <point x="126" y="816" type="line"/>
      <point x="115" y="739" type="line"/>
      <point x="234" y="739" type="line"/>
      <point x="124" y="-40" type="line"/>
      <point x="5" y="-40" type="line"/>
      <point x="-5" y="-116" type="line"/>
      <point x="200" y="-116" type="line"/>
      <point x="331" y="816" type="line"/>
    </contour>
  </outline>
</glyph>
<glyph name="asciicircum" format="1">
  <advance width="534"/>
  <unicode hex="005E"/>
  <outline>
    <contour>
      <point x="307" y="840" type="line"/>
      <point x="75" y="527" type="line"/>
      <point x="173" y="527" type="line"/>
      <point x="338" y="760" type="line"/>
      <point x="435" y="527" type="line"/>
      <point x="531" y="527" type="line"/>
      <point x="388" y="840" type="line"/>
    </contour>
  </outline>
</glyph>
<glyph name="underscore" format="1">
  <advance width="514"/>
  <unicode hex="005F"/>
  <outline>
    <contour>
      <point x="441" y="-142" type="line"/>
      <point x="452" y="-63" type="line"/>
      <point x="-30" y="-63" type="line"/>
      <point x="-41" y="-142" type="line"/>
    </contour>
  </outline>
</glyph>
<glyph name="grave" format="1">
  <advance width="294"/>
  <unicode hex="0060"/>
  <outline>
    <contour>
      <point x="93" y="724" type="line"/>
      <point x="292" y="638" type="line"/>
      <point x="325" y="687" type="line"/>
      <point x="144" y="801" type="line"/>
    </contour>
  </outline>
</glyph>
<glyph name="a" format="1">
  <advance width="569"/>
  <unicode hex="0061"/>
  <outline>
    <contour>
      <point x="126" y="539"/>
      <point x="50" y="334"/>
      <point x="50" y="190" type="curve" smooth="yes"/>
      <point x="50" y="69"/>
      <point x="108" y="-12"/>
      <point x="218" y="-12" type="curve" smooth="yes"/>
      <point x="280" y="-12"/>
      <point x="334" y="23"/>
      <point x="375" y="76" type="curve"/>
      <point x="382" y="19"/>
      <point x="415" y="-5"/>
      <point x="468" y="-12" type="curve"/>
      <point x="494" y="51" type="line"/>
      <point x="473" y="59"/>
      <point x="460" y="70"/>
      <point x="460" y="99" type="curve" smooth="yes"/>
      <point x="460" y="105"/>
      <point x="461" y="112"/>
      <point x="462" y="120" type="curve" smooth="yes"/>
      <point x="519" y="494" type="line"/>
      <point x="449" y="528"/>
      <point x="394" y="539"/>
      <point x="331" y="539" type="curve" smooth="yes"/>
    </contour>
    <contour>
      <point x="370" y="466"/>
      <point x="392" y="462"/>
      <point x="422" y="449" type="curve"/>
      <point x="378" y="158" type="line"/>
      <point x="337" y="103"/>
      <point x="296" y="61"/>
      <point x="240" y="61" type="curve" smooth="yes"/>
      <point x="181" y="61"/>
      <point x="148" y="101"/>
      <point x="148" y="189" type="curve" smooth="yes"/>
      <point x="148" y="307"/>
      <point x="199" y="466"/>
      <point x="333" y="466" type="curve" smooth="yes"/>
    </contour>
    <contour>
      <point x="476" y="-12" type="move" name="ogonek"/>
    </contour>
    <contour>
      <point x="276" y="0" type="move" name="bottom"/>
    </contour>
    <contour>
      <point x="338" y="527" type="move" name="top"/>
    </contour>
  </outline>
</glyph>
<glyph name="b" format="1">
  <advance width="579"/>
  <unicode hex="0062"/>
  <outline>
    <contour>
      <point x="161" y="739" type="line"/>
      <point x="60" y="23" type="line"/>
      <point x="136" y="-2"/>
      <point x="186" y="-12"/>
      <point x="246" y="-12" type="curve" smooth="yes"/>
      <point x="454" y="-12"/>
      <point x="528" y="184"/>
      <point x="528" y="332" type="curve" smooth="yes"/>
      <point x="528" y="465"/>
      <point x="468" y="539"/>
      <point x="368" y="539" type="curve" smooth="yes"/>
      <point x="310" y="539"/>
      <point x="262" y="516"/>
      <point x="215" y="475" type="curve"/>
      <point x="253" y="750" type="line"/>
    </contour>
    <contour>
      <point x="394" y="466"/>
      <point x="433" y="433"/>
      <point x="433" y="339" type="curve" smooth="yes"/>
      <point x="433" y="221"/>
      <point x="384" y="61"/>
      <point x="253" y="61" type="curve" smooth="yes"/>
      <point x="216" y="61"/>
      <point x="193" y="65"/>
      <point x="160" y="77" type="curve"/>
      <point x="203" y="390" type="line"/>
      <point x="241" y="430"/>
      <point x="284" y="466"/>
      <point x="339" y="466" type="curve" smooth="yes"/>
    </contour>
    <contour>
      <point x="368" y="739" type="move" name="top"/>
    </contour>
    <contour>
      <point x="252" y="0" type="move" name="bottom"/>
    </contour>
  </outline>
</glyph>
<glyph name="c" format="1">
  <advance width="472"/>
  <unicode hex="0063"/>
  <outline>
    <contour>
      <point x="124" y="539"/>
      <point x="52" y="341"/>
      <point x="52" y="203" type="curve" smooth="yes"/>
      <point x="52" y="68"/>
      <point x="124" y="-12"/>
      <point x="249" y="-12" type="curve" smooth="yes"/>
      <point x="307" y="-12"/>
      <point x="362" y="6"/>
      <point x="414" y="43" type="curve"/>
      <point x="377" y="107" type="line"/>
      <point x="335" y="81"/>
      <point x="301" y="66"/>
      <point x="255" y="66" type="curve" smooth="yes"/>
      <point x="188" y="66"/>
      <point x="148" y="104"/>
      <point x="148" y="196" type="curve" smooth="yes"/>
      <point x="148" y="305"/>
      <point x="187" y="463"/>
      <point x="320" y="463" type="curve" smooth="yes"/>
      <point x="361" y="463"/>
      <point x="391" y="452"/>
      <point x="423" y="424" type="curve"/>
      <point x="472" y="481" type="line"/>
      <point x="429" y="522"/>
      <point x="378" y="539"/>
      <point x="319" y="539" type="curve" smooth="yes"/>
    </contour>
    <contour>
      <point x="323" y="527" type="move" name="top"/>
    </contour>
    <contour>
      <point x="244" y="0" type="move" name="bottom"/>
    </contour>
  </outline>
</glyph>
<glyph name="d" format="1">
  <advance width="592"/>
  <unicode hex="0064"/>
  <outline>
    <contour>
      <point x="436" y="473" type="line"/>
      <point x="407" y="510"/>
      <point x="363" y="539"/>
      <point x="301" y="539" type="curve" smooth="yes"/>
      <point x="121" y="539"/>
      <point x="56" y="333"/>
      <point x="56" y="197" type="curve" smooth="yes"/>
      <point x="56" y="70"/>
      <point x="114" y="-12"/>
      <point x="223" y="-12" type="curve" smooth="yes"/>
      <point x="291" y="-12"/>
      <point x="345" y="26"/>
      <point x="382" y="87" type="curve"/>
      <point x="381" y="0" type="line"/>
      <point x="461" y="0" type="line"/>
      <point x="565" y="738" type="line"/>
      <point x="475" y="748" type="line"/>
    </contour>
    <contour>
      <point x="367" y="466"/>
      <point x="400" y="443"/>
      <point x="427" y="402" type="curve"/>
      <point x="396" y="183" type="line"/>
      <point x="349" y="109"/>
      <point x="306" y="61"/>
      <point x="241" y="61" type="curve" smooth="yes"/>
      <point x="186" y="61"/>
      <point x="153" y="101"/>
      <point x="153" y="190" type="curve" smooth="yes"/>
      <point x="153" y="295"/>
      <point x="190" y="466"/>
      <point x="318" y="466" type="curve" smooth="yes"/>
    </contour>
    <contour>
      <point x="257" y="0" type="move" name="bottom"/>
    </contour>
    <contour>
      <point x="346" y="739" type="move" name="top"/>
    </contour>
    <contour>
      <point x="575" y="739" type="move" name="topright"/>
    </contour>
    <contour>
      <point x="300" y="264" type="move" name="center"/>
    </contour>
  </outline>
</glyph>
<glyph name="e" format="1">
  <advance width="522"/>
  <unicode hex="0065"/>
  <outline>
    <contour>
      <point x="123" y="539"/>
      <point x="52" y="346"/>
      <point x="52" y="202" type="curve" smooth="yes"/>
      <point x="52" y="69"/>
      <point x="124" y="-12"/>
      <point x="253" y="-12" type="curve" smooth="yes"/>
      <point x="323" y="-12"/>
      <point x="385" y="11"/>
      <point x="442" y="52" type="curve"/>
      <point x="403" y="114" type="line"/>
      <point x="355" y="80"/>
      <point x="311" y="65"/>
      <point x="262" y="65" type="curve" smooth="yes"/>
      <point x="194" y="65"/>
      <point x="148" y="101"/>
      <point x="148" y="202" type="curve" smooth="yes"/>
      <point x="148" y="307"/>
      <point x="186" y="466"/>
      <point x="322" y="466" type="curve" smooth="yes"/>
      <point x="379" y="466"/>
      <point x="394" y="427"/>
      <point x="394" y="402" type="curve" smooth="yes"/>
      <point x="394" y="310"/>
      <point x="300" y="282"/>
      <point x="143" y="265" type="curve"/>
      <point x="134" y="195" type="line"/>
      <point x="324" y="214"/>
      <point x="490" y="253"/>
      <point x="490" y="405" type="curve" smooth="yes"/>
      <point x="490" y="475"/>
      <point x="435" y="539"/>
      <point x="323" y="539" type="curve" smooth="yes"/>
    </contour>
    <contour>
      <point x="360" y="6" type="move" name="ogonek"/>
    </contour>
    <contour>
      <point x="254" y="0" type="move" name="bottom"/>
    </contour>
    <contour>
      <point x="314" y="527" type="move" name="top"/>
    </contour>
  </outline>
</glyph>
<glyph name="g" format="1">
  <advance width="580"/>
  <unicode hex="0067"/>
  <outline>
    <contour>
      <point x="130" y="539"/>
      <point x="51" y="355"/>
      <point x="51" y="198" type="curve" smooth="yes"/>
      <point x="51" y="78"/>
      <point x="112" y="0"/>
      <point x="222" y="0" type="curve" smooth="yes"/>
      <point x="278" y="0"/>
      <point x="331" y="33"/>
      <point x="370" y="80" type="curve"/>
      <point x="361" y="13" type="line" smooth="yes"/>
      <point x="343" y="-116"/>
      <point x="274" y="-137"/>
      <point x="204" y="-137" type="curve" smooth="yes"/>
      <point x="149" y="-137"/>
      <point x="94" y="-114"/>
      <point x="62" y="-95" type="curve"/>
      <point x="27" y="-165" type="line"/>
      <point x="77" y="-196"/>
      <point x="146" y="-216"/>
      <point x="209" y="-216" type="curve" smooth="yes"/>
      <point x="333" y="-216"/>
      <point x="425" y="-158"/>
      <point x="450" y="12" type="curve" smooth="yes"/>
      <point x="523" y="494" type="line"/>
      <point x="453" y="528"/>
      <point x="398" y="539"/>
      <point x="335" y="539" type="curve" smooth="yes"/>
    </contour>
    <contour>
      <point x="374" y="466"/>
      <point x="396" y="462"/>
      <point x="426" y="449" type="curve"/>
      <point x="383" y="172" type="line"/>
      <point x="342" y="117"/>
      <point x="297" y="73"/>
      <point x="239" y="73" type="curve" smooth="yes"/>
      <point x="185" y="73"/>
      <point x="149" y="110"/>
      <point x="149" y="197" type="curve" smooth="yes"/>
      <point x="149" y="325"/>
      <point x="203" y="466"/>
      <point x="337" y="466" type="curve" smooth="yes"/>
    </contour>
    <contour>
      <point x="330" y="527" type="move" name="top"/>
    </contour>
    <contour>
      <point x="209" y="-202" type="move" name="bottom"/>
    </contour>
  </outline>
</glyph>
<glyph name="h" format="1">
  <advance width="581"/>
  <unicode hex="0068"/>
  <outline>
    <contour>
      <point x="308" y="539"/>
      <point x="251" y="494"/>
      <point x="207" y="428" type="curve"/>
      <point x="253" y="748" type="line"/>
      <point x="161" y="738" type="line"/>
      <point x="57" y="0" type="line"/>
      <point x="148" y="0" type="line"/>
      <point x="191" y="316" type="line"/>
      <point x="233" y="391"/>
      <point x="292" y="462"/>
      <point x="362" y="462" type="curve" smooth="yes"/>
      <point x="400" y="462"/>
      <point x="425" y="442"/>
      <point x="415" y="368" type="curve" smooth="yes"/>
      <point x="363" y="0" type="line"/>
      <point x="454" y="0" type="line"/>
      <point x="507" y="373" type="line" smooth="yes"/>
      <point x="521" y="475"/>
      <point x="473" y="539"/>
      <point x="381" y="539" type="curve" smooth="yes"/>
    </contour>
    <contour>
      <point x="289" y="264" type="move" name="center"/>
    </contour>
    <contour>
      <point x="256" y="0" type="move" name="bottom"/>
    </contour>
    <contour>
      <point x="356" y="739" type="move" name="top"/>
    </contour>
  </outline>
</glyph>
<glyph name="k" format="1">
  <advance width="545"/>
  <unicode hex="006B"/>
  <outline>
    <contour>
      <point x="161" y="739" type="line"/>
      <point x="57" y="0" type="line"/>
      <point x="148" y="0" type="line"/>
      <point x="192" y="316" type="line"/>
      <point x="237" y="419"/>
      <point x="307" y="466"/>
      <point x="363" y="466" type="curve" smooth="yes"/>
      <point x="399" y="466"/>
      <point x="420" y="446"/>
      <point x="420" y="409" type="curve" smooth="yes"/>
      <point x="420" y="336"/>
      <point x="369" y="292"/>
      <point x="245" y="257" type="curve"/>
      <point x="371" y="0" type="line"/>
      <point x="473" y="0" type="line"/>
      <point x="354" y="233" type="line"/>
      <point x="464" y="268"/>
      <point x="517" y="336"/>
      <point x="517" y="419" type="curve" smooth="yes"/>
      <point x="517" y="489"/>
      <point x="464" y="539"/>
      <point x="389" y="539" type="curve" smooth="yes"/>
      <point x="323" y="539"/>
      <point x="259" y="506"/>
      <point x="209" y="435" type="curve"/>
      <point x="253" y="750" type="line"/>
    </contour>
    <contour>
      <point x="354" y="739" type="move" name="top"/>
    </contour>
    <contour>
      <point x="252" y="0" type="move" name="bottom"/>
    </contour>
  </outline>
</glyph>
<glyph name="l" format="1">
  <advance width="288"/>
  <unicode hex="006C"/>
  <outline>
    <contour>
      <point x="157" y="739" type="line"/>
      <point x="69" y="118" type="line" smooth="yes"/>
      <point x="57" y="31"/>
      <point x="94" y="-12"/>
      <point x="164" y="-12" type="curve" smooth="yes"/>
      <point x="187" y="-12"/>
      <point x="210" y="-7"/>
      <point x="237" y="5" type="curve"/>
      <point x="218" y="72" type="line"/>
      <point x="206" y="67"/>
      <point x="194" y="64"/>
      <point x="182" y="64" type="curve" smooth="yes"/>
      <point x="160" y="64"/>
      <point x="155" y="75"/>
      <point x="158" y="103" type="curve" smooth="yes"/>
      <point x="249" y="750" type="line"/>
    </contour>
    <contour>
      <point x="159" y="0" type="move" name="bottom"/>
    </contour>
    <contour>
      <point x="202" y="739" type="move" name="top"/>
    </contour>
    <contour>
      <point x="257" y="739" type="move" name="topright"/>
    </contour>
    <contour>
      <point x="311" y="380" type="move" name="center"/>
    </contour>
  </outline>
</glyph>
<glyph name="n" format="1">
  <advance width="580"/>
  <unicode hex="006E"/>
  <outline>
    <contour>
      <point x="308" y="539"/>
      <point x="250" y="493"/>
      <point x="201" y="424" type="curve"/>
      <point x="209" y="527" type="line"/>
      <point x="131" y="527" type="line"/>
      <point x="57" y="0" type="line"/>
      <point x="148" y="0" type="line"/>
      <point x="191" y="316" type="line"/>
      <point x="233" y="391"/>
      <point x="292" y="462"/>
      <point x="359" y="462" type="curve" smooth="yes"/>
      <point x="399" y="462"/>
      <point x="425" y="442"/>
      <point x="415" y="368" type="curve" smooth="yes"/>
      <point x="363" y="0" type="line"/>
      <point x="454" y="0" type="line"/>
      <point x="506" y="370" type="line" smooth="yes"/>
      <point x="521" y="475"/>
      <point x="472" y="539"/>
      <point x="384" y="539" type="curve" smooth="yes"/>
    </contour>
    <contour>
      <point x="327" y="527" type="move" name="top"/>
    </contour>
    <contour>
      <point x="256" y="0" type="move" name="bottom"/>
    </contour>
    <contour>
      <point x="121" y="527" type="move" name="topleft"/>
    </contour>
  </outline>
</glyph>
<glyph name="o" format="1">
  <advance width="578"/>
  <unicode hex="006F"/>
  <outline>
    <contour>
      <point x="119" y="539"/>
      <point x="52" y="336"/>
      <point x="52" y="206" type="curve" smooth="yes"/>
      <point x="52" y="72"/>
      <point x="123" y="-12"/>
      <point x="254" y="-12" type="curve" smooth="yes"/>
      <point x="461" y="-12"/>
      <point x="526" y="194"/>
      <point x="526" y="321" type="curve" smooth="yes"/>
      <point x="526" y="455"/>
      <point x="456" y="539"/>
      <point x="325" y="539" type="curve" smooth="yes"/>
    </contour>
    <contour>
      <point x="392" y="465"/>
      <point x="430" y="423"/>
      <point x="430" y="331" type="curve" smooth="yes"/>
      <point x="430" y="230"/>
      <point x="394" y="62"/>
      <point x="257" y="62" type="curve" smooth="yes"/>
      <point x="186" y="62"/>
      <point x="148" y="104"/>
      <point x="148" y="196" type="curve" smooth="yes"/>
      <point x="148" y="297"/>
      <point x="185" y="465"/>
      <point x="322" y="465" type="curve" smooth="yes"/>
    </contour>
    <contour>
      <point x="326" y="527" type="move" name="top"/>
    </contour>
    <contour>
      <point x="254" y="0" type="move" name="bottom"/>
    </contour>
    <contour>
      <point x="512" y="527" type="move" name="topright"/>
    </contour>
  </outline>
</glyph>
<glyph name="p" format="1">
  <advance width="584"/>
  <unicode hex="0070"/>
  <outline>
    <contour>
      <point x="313" y="539"/>
      <point x="263" y="522"/>
      <point x="207" y="460" type="curve"/>
      <point x="209" y="527" type="line"/>
      <point x="131" y="527" type="line"/>
      <point x="27" y="-216" type="line"/>
      <point x="118" y="-204" type="line"/>
      <point x="148" y="5" type="line"/>
      <point x="181" y="-6"/>
      <point x="212" y="-12"/>
      <point x="248" y="-12" type="curve" smooth="yes"/>
      <point x="454" y="-12"/>
      <point x="528" y="184"/>
      <point x="528" y="332" type="curve" smooth="yes"/>
      <point x="528" y="465"/>
      <point x="468" y="539"/>
      <point x="368" y="539" type="curve" smooth="yes"/>
    </contour>
    <contour>
      <point x="394" y="466"/>
      <point x="433" y="433"/>
      <point x="433" y="339" type="curve" smooth="yes"/>
      <point x="433" y="221"/>
      <point x="384" y="61"/>
      <point x="253" y="61" type="curve" smooth="yes"/>
      <point x="216" y="61"/>
      <point x="193" y="65"/>
      <point x="160" y="77" type="curve"/>
      <point x="203" y="390" type="line"/>
      <point x="241" y="430"/>
      <point x="284" y="466"/>
      <point x="339" y="466" type="curve" smooth="yes"/>
    </contour>
    <contour>
      <point x="331" y="527" type="move" name="top"/>
    </contour>
    <contour>
      <point x="227" y="-202" type="move" name="bottom"/>
    </contour>
  </outline>
</glyph>
<glyph name="q" format="1">
  <advance width="575"/>
  <unicode hex="0071"/>
  <outline>
    <contour>
      <point x="126" y="539"/>
      <point x="50" y="334"/>
      <point x="50" y="190" type="curve" smooth="yes"/>
      <point x="50" y="69"/>
      <point x="108" y="-12"/>
      <point x="218" y="-12" type="curve" smooth="yes"/>
      <point x="280" y="-12"/>
      <point x="334" y="23"/>
      <point x="366" y="64" type="curve"/>
      <point x="327" y="-216" type="line"/>
      <point x="420" y="-205" type="line"/>
      <point x="519" y="494" type="line"/>
      <point x="449" y="528"/>
      <point x="394" y="539"/>
      <point x="331" y="539" type="curve" smooth="yes"/>
    </contour>
    <contour>
      <point x="370" y="466"/>
      <point x="392" y="462"/>
      <point x="422" y="449" type="curve"/>
      <point x="378" y="158" type="line"/>
      <point x="337" y="103"/>
      <point x="296" y="61"/>
      <point x="240" y="61" type="curve" smooth="yes"/>
      <point x="181" y="61"/>
      <point x="148" y="101"/>
      <point x="148" y="189" type="curve" smooth="yes"/>
      <point x="148" y="307"/>
      <point x="199" y="466"/>
      <point x="333" y="466" type="curve" smooth="yes"/>
    </contour>
    <contour>
      <point x="330" y="527" type="move" name="top"/>
    </contour>
    <contour>
      <point x="205" y="-202" type="move" name="bottom"/>
    </contour>
  </outline>
</glyph>
<glyph name="r" format="1">
  <advance width="381"/>
  <unicode hex="0072"/>
  <outline>
    <contour>
      <point x="298" y="539"/>
      <point x="243" y="501"/>
      <point x="203" y="419" type="curve"/>
      <point x="209" y="527" type="line"/>
      <point x="131" y="527" type="line"/>
      <point x="57" y="0" type="line"/>
      <point x="148" y="0" type="line"/>
      <point x="188" y="279" type="line"/>
      <point x="225" y="386"/>
      <point x="271" y="448"/>
      <point x="339" y="448" type="curve" smooth="yes"/>
      <point x="356" y="448"/>
      <point x="367" y="447"/>
      <point x="382" y="443" type="curve"/>
      <point x="409" y="532" type="line"/>
      <point x="393" y="536"/>
      <point x="375" y="539"/>
      <point x="356" y="539" type="curve" smooth="yes"/>
    </contour>
    <contour>
      <point x="273" y="527" type="move" name="top"/>
    </contour>
    <contour>
      <point x="103" y="0" type="move" name="bottom"/>
    </contour>
  </outline>
</glyph>
<glyph name="s" format="1">
  <advance width="461"/>
  <unicode hex="0073"/>
  <outline>
    <contour>
      <point x="126" y="539"/>
      <point x="64" y="459"/>
      <point x="64" y="389" type="curve" smooth="yes"/>
      <point x="64" y="317"/>
      <point x="104" y="276"/>
      <point x="205" y="245" type="curve" smooth="yes"/>
      <point x="289" y="219"/>
      <point x="316" y="201"/>
      <point x="316" y="148" type="curve" smooth="yes"/>
      <point x="316" y="113"/>
      <point x="290" y="62"/>
      <point x="197" y="62" type="curve" smooth="yes"/>
      <point x="138" y="62"/>
      <point x="89" y="84"/>
      <point x="51" y="118" type="curve"/>
      <point x="-2" y="64" type="line"/>
      <point x="39" y="24"/>
      <point x="101" y="-12"/>
      <point x="193" y="-12" type="curve" smooth="yes"/>
      <point x="303" y="-12"/>
      <point x="412" y="40"/>
      <point x="412" y="157" type="curve" smooth="yes"/>
      <point x="412" y="240"/>
      <point x="362" y="284"/>
      <point x="263" y="315" type="curve" smooth="yes"/>
      <point x="192" y="337"/>
      <point x="157" y="353"/>
      <point x="157" y="395" type="curve" smooth="yes"/>
      <point x="157" y="439"/>
      <point x="198" y="466"/>
      <point x="262" y="466" type="curve" smooth="yes"/>
      <point x="308" y="466"/>
      <point x="352" y="450"/>
      <point x="392" y="419" type="curve"/>
      <point x="436" y="474" type="line"/>
      <point x="391" y="514"/>
      <point x="336" y="539"/>
      <point x="263" y="539" type="curve" smooth="yes"/>
    </contour>
    <contour>
      <point x="275" y="527" type="move" name="top"/>
    </contour>
    <contour>
      <point x="195" y="0" type="move" name="bottom"/>
    </contour>
  </outline>
</glyph>
<glyph name="t" format="1">
  <advance width="355"/>
  <unicode hex="0074"/>
  <outline>
    <contour>
      <point x="173" y="649" type="line"/>
      <point x="132" y="497" type="line"/>
      <point x="82" y="141" type="line" smooth="yes"/>
      <point x="68" y="43"/>
      <point x="114" y="-12"/>
      <point x="205" y="-12" type="curve" smooth="yes"/>
      <point x="247" y="-12"/>
      <point x="286" y="-1"/>
      <point x="324" y="23" type="curve"/>
      <point x="294" y="89" type="line"/>
      <point x="266" y="73"/>
      <point x="244" y="65"/>
      <point x="220" y="65" type="curve" smooth="yes"/>
      <point x="177" y="65"/>
      <point x="165" y="86"/>
      <point x="173" y="139" type="curve" smooth="yes"/>
      <point x="245" y="657" type="line"/>
    </contour>
    <contour>
      <point x="45" y="527" type="line"/>
      <point x="35" y="456" type="line"/>
      <point x="331" y="456" type="line"/>
      <point x="351" y="527" type="line"/>
    </contour>
    <contour>
      <point x="194" y="0" type="move" name="bottom"/>
    </contour>
    <contour>
      <point x="208" y="649" type="move" name="top"/>
    </contour>
    <contour>
      <point x="277" y="745" type="move" name="topright"/>
    </contour>
    <contour>
      <point x="177" y="264" type="move" name="center"/>
    </contour>
  </outline>
</glyph>
<glyph name="u" format="1">
  <advance width="576"/>
  <unicode hex="0075"/>
  <outline>
    <contour>
      <point x="428" y="527" type="line"/>
      <point x="380" y="184" type="line"/>
      <point x="339" y="123"/>
      <point x="286" y="60"/>
      <point x="220" y="60" type="curve" smooth="yes"/>
      <point x="173" y="60"/>
      <point x="155" y="84"/>
      <point x="165" y="156" type="curve" smooth="yes"/>
      <point x="217" y="527" type="line"/>
      <point x="126" y="527" type="line"/>
      <point x="73" y="152" type="line" smooth="yes"/>
      <point x="59" y="49"/>
      <point x="106" y="-12"/>
      <point x="200" y="-12" type="curve" smooth="yes"/>
      <point x="273" y="-12"/>
      <point x="325" y="30"/>
      <point x="374" y="97" type="curve"/>
      <point x="367" y="0" type="line"/>
      <point x="445" y="0" type="line"/>
      <point x="519" y="527" type="line"/>
    </contour>
    <contour>
      <point x="454" y="0" type="move" name="ogonek"/>
    </contour>
    <contour>
      <point x="323" y="527" type="move" name="top"/>
    </contour>
    <contour>
      <point x="529" y="527" type="move" name="topright"/>
    </contour>
    <contour>
      <point x="455" y="0" type="move" name="bottomright"/>
    </contour>
    <contour>
      <point x="251" y="0" type="move" name="bottom"/>
    </contour>
  </outline>
</glyph>
<glyph name="v" format="1">
  <advance width="486"/>
  <unicode hex="0076"/>
  <outline>
    <contour>
      <point x="414" y="527" type="line"/>
      <point x="218" y="83" type="line"/>
      <point x="146" y="527" type="line"/>
      <point x="47" y="527" type="line"/>
      <point x="153" y="0" type="line"/>
      <point x="262" y="0" type="line"/>
      <point x="514" y="527" type="line"/>
    </contour>
    <contour>
      <point x="280" y="527" type="move" name="top"/>
    </contour>
    <contour>
      <point x="208" y="0" type="move" name="bottom"/>
    </contour>
  </outline>
</glyph>
<glyph name="w" format="1">
  <advance width="711"/>
  <unicode hex="0077"/>
  <outline>
    <contour>
      <point x="640" y="527" type="line"/>
      <point x="480" y="64" type="line"/>
      <point x="447" y="527" type="line"/>
      <point x="344" y="527" type="line"/>
      <point x="177" y="64" type="line"/>
      <point x="148" y="527" type="line"/>
      <point x="58" y="527" type="line"/>
      <point x="106" y="0" type="line"/>
      <point x="227" y="0" type="line"/>
      <point x="384" y="444" type="line"/>
      <point x="412" y="0" type="line"/>
      <point x="537" y="0" type="line"/>
      <point x="728" y="527" type="line"/>
    </contour>
    <contour>
      <point x="393" y="527" type="move" name="top"/>
    </contour>
    <contour>
      <point x="318" y="0" type="move" name="bottom"/>
    </contour>
  </outline>
</glyph>
<glyph name="x" format="1">
  <advance width="480"/>
  <unicode hex="0078"/>
  <outline>
    <contour>
      <point x="64" y="527" type="line"/>
      <point x="189" y="283" type="line"/>
      <point x="235" y="222" type="line"/>
      <point x="335" y="0" type="line"/>
      <point x="438" y="0" type="line"/>
      <point x="297" y="275" type="line"/>
      <point x="250" y="334" type="line"/>
      <point x="166" y="527" type="line"/>
    </contour>
    <contour>
      <point x="388" y="527" type="line"/>
      <point x="250" y="334" type="line"/>
      <point x="189" y="283" type="line"/>
      <point x="-32" y="0" type="line"/>
      <point x="72" y="0" type="line"/>
      <point x="235" y="222" type="line"/>
      <point x="297" y="275" type="line"/>
      <point x="493" y="527" type="line"/>
    </contour>
    <contour>
      <point x="277" y="527" type="move" name="top"/>
    </contour>
    <contour>
      <point x="204" y="0" type="move" name="bottom"/>
    </contour>
    <contour>
      <point x="395" y="0" type="move" name="bottomright"/>
    </contour>
  </outline>
</glyph>
<glyph name="y" format="1">
  <advance width="486"/>
  <unicode hex="0079"/>
  <outline>
    <contour>
      <point x="419" y="527" type="line"/>
      <point x="217" y="70" type="line"/>
      <point x="143" y="527" type="line"/>
      <point x="47" y="527" type="line"/>
      <point x="148" y="0" type="line"/>
      <point x="183" y="2" type="line"/>
      <point x="139" y="-81"/>
      <point x="100" y="-123"/>
      <point x="-9" y="-141" type="curve"/>
      <point x="-5" y="-213" type="line"/>
      <point x="141" y="-197"/>
      <point x="219" y="-117"/>
      <point x="270" y="-5" type="curve" smooth="yes"/>
      <point x="514" y="527" type="line"/>
    </contour>
    <contour>
      <point x="280" y="527" type="move" name="top"/>
    </contour>
    <contour>
      <point x="192" y="-202" type="move" name="bottom"/>
    </contour>
  </outline>
</glyph>
<glyph name="z" format="1">
  <advance width="431"/>
  <unicode hex="007A"/>
  <outline>
    <contour>
      <point x="84" y="527" type="line"/>
      <point x="73" y="449" type="line"/>
      <point x="313" y="449" type="line"/>
      <point x="-4" y="69" type="line"/>
      <point x="-13" y="0" type="line"/>
      <point x="355" y="0" type="line"/>
      <point x="376" y="77" type="line"/>
      <point x="109" y="77" type="line"/>
      <point x="427" y="457" type="line"/>
      <point x="436" y="527" type="line"/>
    </contour>
    <contour>
      <point x="260" y="527" type="move" name="top"/>
    </contour>
    <contour>
      <point x="171" y="0" type="move" name="bottom"/>
    </contour>
  </outline>
</glyph>
<glyph name="braceleft" format="1">
  <advance width="316"/>
  <unicode hex="007B"/>
  <outline>
    <contour>
      <point x="217" y="836"/>
      <point x="168" y="795"/>
      <point x="153" y="690" type="curve" smooth="yes"/>
      <point x="122" y="468" type="line" smooth="yes"/>
      <point x="114" y="413"/>
      <point x="91" y="387"/>
      <point x="38" y="387" type="curve"/>
      <point x="27" y="311" type="line"/>
      <point x="85" y="311"/>
      <point x="97" y="293"/>
      <point x="89" y="238" type="curve" smooth="yes"/>
      <point x="58" y="16" type="line" smooth="yes"/>
      <point x="43" y="-89"/>
      <point x="100" y="-136"/>
      <point x="219" y="-136" type="curve"/>
      <point x="225" y="-65" type="line"/>
      <point x="158" y="-65"/>
      <point x="135" y="-50"/>
      <point x="142" y="0" type="curve" smooth="yes"/>
      <point x="176" y="239" type="line" smooth="yes"/>
      <point x="186" y="312"/>
      <point x="159" y="332"/>
      <point x="116" y="347" type="curve"/>
      <point x="167" y="364"/>
      <point x="196" y="382"/>
      <point x="206" y="455" type="curve" smooth="yes"/>
      <point x="240" y="694" type="line" smooth="yes"/>
      <point x="247" y="744"/>
      <point x="278" y="765"/>
      <point x="345" y="765" type="curve"/>
      <point x="351" y="836" type="line"/>
    </contour>
  </outline>
</glyph>
<glyph name="bar" format="1">
  <advance width="397"/>
  <unicode hex="007C"/>
  <outline>
    <contour>
      <point x="233" y="807" type="line"/>
      <point x="106" y="-102" type="line"/>
      <point x="189" y="-102" type="line"/>
      <point x="316" y="807" type="line"/>
    </contour>
  </outline>
</glyph>
<glyph name="braceright" format="1">
  <advance width="315"/>
  <unicode hex="007D"/>
  <outline>
    <contour>
      <point x="123" y="-136"/>
      <point x="172" y="-95"/>
      <point x="187" y="10" type="curve" smooth="yes"/>
      <point x="218" y="232" type="line" smooth="yes"/>
      <point x="226" y="287"/>
      <point x="249" y="313"/>
      <point x="302" y="313" type="curve"/>
      <point x="313" y="389" type="line"/>
      <point x="255" y="389"/>
      <point x="243" y="407"/>
      <point x="251" y="462" type="curve" smooth="yes"/>
      <point x="282" y="684" type="line" smooth="yes"/>
      <point x="297" y="789"/>
      <point x="240" y="836"/>
      <point x="121" y="836" type="curve"/>
      <point x="115" y="765" type="line"/>
      <point x="182" y="765"/>
      <point x="205" y="750"/>
      <point x="198" y="700" type="curve" smooth="yes"/>
      <point x="164" y="461" type="line" smooth="yes"/>
      <point x="154" y="388"/>
      <point x="181" y="368"/>
      <point x="224" y="353" type="curve"/>
      <point x="173" y="336"/>
      <point x="144" y="318"/>
      <point x="134" y="245" type="curve" smooth="yes"/>
      <point x="100" y="6" type="line" smooth="yes"/>
      <point x="93" y="-44"/>
      <point x="62" y="-65"/>
      <point x="-5" y="-65" type="curve"/>
      <point x="-11" y="-136" type="line"/>
    </contour>
  </outline>
</glyph>
<glyph name="asciitilde" format="1">
  <advance width="482"/>
  <unicode hex="007E"/>
  <outline>
    <contour>
      <point x="388" y="250"/>
      <point x="433" y="298"/>
      <point x="460" y="339" type="curve"/>
      <point x="407" y="373" type="line"/>
      <point x="389" y="347"/>
      <point x="360" y="323"/>
      <point x="325" y="323" type="curve" smooth="yes"/>
      <point x="276" y="323"/>
      <point x="251" y="384"/>
      <point x="183" y="384" type="curve" smooth="yes"/>
      <point x="110" y="384"/>
      <point x="63" y="330"/>
      <point x="37" y="289" type="curve"/>
      <point x="91" y="256" type="line"/>
      <point x="109" y="282"/>
      <point x="137" y="312"/>
      <point x="175" y="312" type="curve" smooth="yes"/>
      <point x="221" y="312"/>
      <point x="246" y="250"/>
      <point x="317" y="250" type="curve"/>
    </contour>
  </outline>
</glyph>
<glyph name="exclamdown" format="1">
  <advance width="235"/>
  <unicode hex="00A1"/>
  <outline>
    <contour>
      <point x="79" y="247" type="line"/>
      <point x="6" y="-202" type="line"/>
      <point x="107" y="-202" type="line"/>
      <point x="160" y="247" type="line"/>
    </contour>
    <component base="period" xOffset="52" yOffset="368"/>
  </outline>
</glyph>
<glyph name="cent" format="1">
  <advance width="472"/>
  <unicode hex="00A2"/>
  <outline>
    <contour>
      <point x="292" y="684" type="line"/>
      <point x="271" y="533" type="line"/>
      <point x="349" y="534" type="line"/>
      <point x="370" y="684" type="line"/>
    </contour>
    <contour>
      <point x="173" y="-154" type="line"/>
      <point x="252" y="-154" type="line"/>
      <point x="273" y="-7" type="line"/>
      <point x="194" y="-6" type="line"/>
    </contour>
    <component base="c"/>
  </outline>
</glyph>
<glyph name="sterling" format="1">
  <advance width="519"/>
  <unicode hex="00A3"/>
  <outline>
    <contour>
      <point x="243" y="679"/>
      <point x="168" y="603"/>
      <point x="153" y="496" type="curve" smooth="yes"/>
      <point x="137" y="382" type="line"/>
      <point x="72" y="382" type="line"/>
      <point x="63" y="322" type="line"/>
      <point x="128" y="322" type="line"/>
      <point x="112" y="208" type="line" smooth="yes"/>
      <point x="101" y="126"/>
      <point x="82" y="99"/>
      <point x="10" y="74" type="curve"/>
      <point x="2" y="0" type="line"/>
      <point x="419" y="0" type="line"/>
      <point x="441" y="77" type="line"/>
      <point x="126" y="76" type="line"/>
      <point x="177" y="103"/>
      <point x="193" y="136"/>
      <point x="202" y="201" type="curve" smooth="yes"/>
      <point x="219" y="322" type="line"/>
      <point x="424" y="322" type="line"/>
      <point x="433" y="382" type="line"/>
      <point x="228" y="382" type="line"/>
      <point x="243" y="491" type="line" smooth="yes"/>
      <point x="253" y="563"/>
      <point x="298" y="604"/>
      <point x="364" y="604" type="curve" smooth="yes"/>
      <point x="411" y="604"/>
      <point x="441" y="589"/>
      <point x="467" y="552" type="curve"/>
      <point x="530" y="594" type="line"/>
      <point x="490" y="651"/>
      <point x="436" y="679"/>
      <point x="361" y="679" type="curve" smooth="yes"/>
    </contour>
  </outline>
</glyph>
<glyph name="currency" format="1">
  <advance width="560"/>
  <unicode hex="00A4"/>
  <outline>
    <contour>
      <point x="157" y="549"/>
      <point x="71" y="456"/>
      <point x="71" y="341" type="curve" smooth="yes"/>
      <point x="71" y="225"/>
      <point x="157" y="132"/>
      <point x="278" y="132" type="curve" smooth="yes"/>
      <point x="409" y="132"/>
      <point x="492" y="225"/>
      <point x="492" y="341" type="curve" smooth="yes"/>
      <point x="492" y="456"/>
      <point x="409" y="549"/>
      <point x="278" y="549" type="curve" smooth="yes"/>
    </contour>
    <contour>
      <point x="29" y="143" type="line"/>
      <point x="84" y="88" type="line"/>
      <point x="171" y="176" type="line"/>
      <point x="117" y="231" type="line"/>
    </contour>
    <contour>
      <point x="388" y="174" type="line"/>
      <point x="476" y="88" type="line"/>
      <point x="531" y="143" type="line"/>
      <point x="445" y="228" type="line"/>
    </contour>
    <contour>
      <point x="29" y="540" type="line"/>
      <point x="115" y="451" type="line"/>
      <point x="171" y="506" type="line"/>
      <point x="84" y="595" type="line"/>
    </contour>
    <contour>
      <point x="389" y="508" type="line"/>
      <point x="446" y="454" type="line"/>
      <point x="531" y="540" type="line"/>
      <point x="476" y="595" type="line"/>
    </contour>
    <contour>
      <point x="361" y="479"/>
      <point x="403" y="427"/>
      <point x="403" y="342" type="curve" smooth="yes"/>
      <point x="403" y="256"/>
      <point x="361" y="205"/>
      <point x="281" y="205" type="curve" smooth="yes"/>
      <point x="201" y="205"/>
      <point x="158" y="256"/>
      <point x="158" y="342" type="curve" smooth="yes"/>
      <point x="158" y="427"/>
      <point x="201" y="479"/>
      <point x="281" y="479" type="curve" smooth="yes"/>
    </contour>
  </outline>
</glyph>
<glyph name="yen" format="1">
  <advance width="530"/>
  <unicode hex="00A5"/>
  <outline>
    <contour>
      <point x="486" y="669" type="line"/>
      <point x="282" y="374" type="line"/>
      <point x="162" y="669" type="line"/>
      <point x="62" y="669" type="line"/>
      <point x="225" y="303" type="line"/>
      <point x="181" y="0" type="line"/>
      <point x="275" y="0" type="line"/>
      <point x="318" y="304" type="line"/>
      <point x="583" y="669" type="line"/>
    </contour>
    <contour>
      <point x="71" y="194" type="line"/>
      <point x="63" y="133" type="line"/>
      <point x="430" y="133" type="line"/>
      <point x="438" y="194" type="line"/>
    </contour>
    <contour>
      <point x="93" y="346" type="line"/>
      <point x="84" y="284" type="line"/>
      <point x="451" y="284" type="line"/>
      <point x="460" y="346" type="line"/>
    </contour>
  </outline>
</glyph>
<glyph name="brokenbar" format="1">
  <advance width="397"/>
  <unicode hex="00A6"/>
  <outline>
    <contour>
      <point x="233" y="807" type="line"/>
      <point x="182" y="443" type="line"/>
      <point x="265" y="443" type="line"/>
      <point x="316" y="807" type="line"/>
    </contour>
    <contour>
      <point x="157" y="262" type="line"/>
      <point x="106" y="-102" type="line"/>
      <point x="189" y="-102" type="line"/>
      <point x="240" y="262" type="line"/>
    </contour>
  </outline>
</glyph>
<glyph name="section" format="1">
  <advance width="527"/>
  <unicode hex="00A7"/>
  <outline>
    <contour>
      <point x="224" y="677"/>
      <point x="130" y="628"/>
      <point x="130" y="525" type="curve" smooth="yes"/>
      <point x="130" y="454"/>
      <point x="186" y="414"/>
      <point x="284" y="378" type="curve" smooth="yes"/>
      <point x="354" y="350"/>
      <point x="375" y="325"/>
      <point x="375" y="291" type="curve" smooth="yes"/>
      <point x="375" y="263"/>
      <point x="357" y="232"/>
      <point x="306" y="196" type="curve"/>
      <point x="358" y="164" type="line"/>
      <point x="428" y="203"/>
      <point x="463" y="244"/>
      <point x="463" y="299" type="curve" smooth="yes"/>
      <point x="463" y="363"/>
      <point x="417" y="410"/>
      <point x="325" y="443" type="curve" smooth="yes"/>
      <point x="243" y="473"/>
      <point x="220" y="492"/>
      <point x="220" y="531" type="curve" smooth="yes"/>
      <point x="220" y="568"/>
      <point x="245" y="606"/>
      <point x="329" y="606" type="curve" smooth="yes"/>
      <point x="377" y="606"/>
      <point x="415" y="593"/>
      <point x="457" y="566" type="curve"/>
      <point x="497" y="621" type="line"/>
      <point x="455" y="653"/>
      <point x="401" y="677"/>
      <point x="332" y="677" type="curve" smooth="yes"/>
    </contour>
    <contour>
      <point x="112" y="409"/>
      <point x="74" y="362"/>
      <point x="74" y="306" type="curve" smooth="yes"/>
      <point x="74" y="236"/>
      <point x="121" y="192"/>
      <point x="212" y="162" type="curve" smooth="yes"/>
      <point x="296" y="132"/>
      <point x="319" y="117"/>
      <point x="319" y="75" type="curve" smooth="yes"/>
      <point x="319" y="36"/>
      <point x="293" y="1"/>
      <point x="209" y="1" type="curve" smooth="yes"/>
      <point x="162" y="1"/>
      <point x="118" y="12"/>
      <point x="78" y="40" type="curve"/>
      <point x="38" y="-20" type="line"/>
      <point x="79" y="-49"/>
      <point x="136" y="-71"/>
      <point x="204" y="-71" type="curve" smooth="yes"/>
      <point x="352" y="-71"/>
      <point x="410" y="4"/>
      <point x="410" y="75" type="curve" smooth="yes"/>
      <point x="410" y="154"/>
      <point x="353" y="193"/>
      <point x="242" y="230" type="curve" smooth="yes"/>
      <point x="184" y="252"/>
      <point x="164" y="274"/>
      <point x="164" y="312" type="curve" smooth="yes"/>
      <point x="164" y="341"/>
      <point x="178" y="373"/>
      <point x="231" y="410" type="curve"/>
      <point x="180" y="444" type="line"/>
    </contour>
  </outline>
</glyph>
<glyph name="dieresis" format="1">
  <advance width="379"/>
  <unicode hex="00A8"/>
  <outline>
    <contour>
      <point x="330" y="768"/>
      <point x="305" y="746"/>
      <point x="301" y="716" type="curve" smooth="yes"/>
      <point x="296" y="682"/>
      <point x="318" y="654"/>
      <point x="352" y="654" type="curve" smooth="yes"/>
      <point x="383" y="654"/>
      <point x="408" y="676"/>
      <point x="412" y="706" type="curve" smooth="yes"/>
      <point x="417" y="740"/>
      <point x="395" y="768"/>
      <point x="360" y="768" type="curve" smooth="yes"/>
    </contour>
    <contour>
      <point x="122" y="768"/>
      <point x="97" y="746"/>
      <point x="93" y="716" type="curve" smooth="yes"/>
      <point x="88" y="682"/>
      <point x="110" y="654"/>
      <point x="145" y="654" type="curve" smooth="yes"/>
      <point x="175" y="654"/>
      <point x="200" y="676"/>
      <point x="204" y="706" type="curve" smooth="yes"/>
      <point x="209" y="740"/>
      <point x="187" y="768"/>
      <point x="153" y="768" type="curve" smooth="yes"/>
    </contour>
  </outline>
</glyph>
<glyph name="ordfeminine" format="1">
  <advance width="494"/>
  <unicode hex="00AA"/>
  <outline>
    <contour>
      <point x="254" y="689"/>
      <point x="203" y="681"/>
      <point x="148" y="662" type="curve"/>
      <point x="165" y="598" type="line"/>
      <point x="209" y="612"/>
      <point x="250" y="620"/>
      <point x="281" y="620" type="curve" smooth="yes"/>
      <point x="329" y="620"/>
      <point x="351" y="608"/>
      <point x="351" y="569" type="curve" smooth="yes"/>
      <point x="351" y="564"/>
      <point x="351" y="558"/>
      <point x="349" y="545" type="curve" smooth="yes"/>
      <point x="346" y="525" type="line"/>
      <point x="287" y="525" type="line" smooth="yes"/>
      <point x="124" y="525"/>
      <point x="82" y="451"/>
      <point x="82" y="385" type="curve" smooth="yes"/>
      <point x="82" y="320"/>
      <point x="125" y="271"/>
      <point x="204" y="271" type="curve" smooth="yes"/>
      <point x="253" y="271"/>
      <point x="300" y="288"/>
      <point x="335" y="330" type="curve"/>
      <point x="345" y="293"/>
      <point x="372" y="276"/>
      <point x="414" y="272" type="curve"/>
      <point x="439" y="332" type="line"/>
      <point x="413" y="341"/>
      <point x="411" y="356"/>
      <point x="415" y="381" type="curve" smooth="yes"/>
      <point x="438" y="551" type="line" smooth="yes"/>
      <point x="439" y="560"/>
      <point x="440" y="569"/>
      <point x="440" y="578" type="curve" smooth="yes"/>
      <point x="440" y="648"/>
      <point x="396" y="689"/>
      <point x="298" y="689" type="curve" smooth="yes"/>
    </contour>
    <contour>
      <point x="328" y="394" type="line"/>
      <point x="302" y="358"/>
      <point x="269" y="337"/>
      <point x="227" y="337" type="curve" smooth="yes"/>
      <point x="192" y="337"/>
      <point x="174" y="357"/>
      <point x="174" y="389" type="curve" smooth="yes"/>
      <point x="174" y="425"/>
      <point x="199" y="470"/>
      <point x="293" y="470" type="curve" smooth="yes"/>
      <point x="339" y="470" type="line"/>
    </contour>
    <component base="minus" xOffset="-37" yOffset="-294"/>
  </outline>
</glyph>
<glyph name="logicalnot" format="1">
  <advance width="494"/>
  <unicode hex="00AC"/>
  <outline>
    <contour>
      <point x="75" y="361" type="line"/>
      <point x="64" y="284" type="line"/>
      <point x="354" y="284" type="line"/>
      <point x="334" y="141" type="line"/>
      <point x="416" y="141" type="line"/>
      <point x="447" y="361" type="line"/>
    </contour>
  </outline>
</glyph>
<glyph name="macron" format="1">
  <advance width="327"/>
  <unicode hex="00AF"/>
  <outline>
    <contour>
      <point x="365" y="736" type="line"/>
      <point x="94" y="736" type="line"/>
      <point x="85" y="667" type="line"/>
      <point x="356" y="667" type="line"/>
    </contour>
  </outline>
</glyph>
<glyph name="degree" format="1">
  <advance width="517"/>
  <unicode hex="00B0"/>
  <outline>
    <contour>
      <point x="194" y="443"/>
      <point x="159" y="471"/>
      <point x="168" y="536" type="curve" smooth="yes"/>
      <point x="178" y="605"/>
      <point x="227" y="638"/>
      <point x="273" y="638" type="curve" smooth="yes"/>
      <point x="317" y="638"/>
      <point x="351" y="609"/>
      <point x="342" y="545" type="curve" smooth="yes"/>
      <point x="332" y="477"/>
      <point x="284" y="443"/>
      <point x="237" y="443" type="curve" smooth="yes"/>
    </contour>
    <contour>
      <point x="318" y="381"/>
      <point x="402" y="434"/>
      <point x="416" y="535" type="curve" smooth="yes"/>
      <point x="431" y="640"/>
      <point x="358" y="701"/>
      <point x="273" y="701" type="curve" smooth="yes"/>
      <point x="193" y="701"/>
      <point x="108" y="647"/>
      <point x="94" y="546" type="curve" smooth="yes"/>
      <point x="79" y="441"/>
      <point x="153" y="381"/>
      <point x="237" y="381" type="curve" smooth="yes"/>
    </contour>
  </outline>
</glyph>
<glyph name="acute" format="1">
  <advance width="294"/>
  <unicode hex="00B4"/>
  <outline>
    <contour>
      <point x="89" y="687" type="line"/>
      <point x="110" y="638" type="line"/>
      <point x="330" y="724" type="line"/>
      <point x="300" y="801" type="line"/>
    </contour>
  </outline>
</glyph>
<glyph name="paragraph" format="1">
  <advance width="728"/>
  <unicode hex="00B6"/>
  <outline>
    <contour>
      <point x="392" y="688" type="line"/>
      <point x="364" y="642" type="line"/>
      <point x="244" y="-215" type="line"/>
      <point x="329" y="-202" type="line"/>
      <point x="442" y="615" type="line"/>
      <point x="555" y="615" type="line"/>
      <point x="439" y="-215" type="line"/>
      <point x="524" y="-202" type="line"/>
      <point x="649" y="689" type="line"/>
    </contour>
    <contour>
      <point x="241" y="688"/>
      <point x="139" y="618"/>
      <point x="121" y="490" type="curve" smooth="yes"/>
      <point x="104" y="372"/>
      <point x="167" y="282"/>
      <point x="338" y="282" type="curve"/>
      <point x="391" y="688" type="line"/>
    </contour>
  </outline>
</glyph>
<glyph name="cedilla" format="1">
  <advance width="269"/>
  <unicode hex="00B8"/>
  <outline>
    <contour>
      <point x="55" y="16" type="line"/>
      <point x="27" y="-99" type="line"/>
      <point x="91" y="-99"/>
      <point x="110" y="-109"/>
      <point x="109" y="-138" type="curve" smooth="yes"/>
      <point x="108" y="-166"/>
      <point x="86" y="-181"/>
      <point x="51" y="-181" type="curve" smooth="yes"/>
      <point x="25" y="-181"/>
      <point x="8" y="-175"/>
      <point x="-7" y="-165" type="curve"/>
      <point x="-38" y="-214" type="line"/>
      <point x="-18" y="-229"/>
      <point x="12" y="-241"/>
      <point x="51" y="-241" type="curve" smooth="yes"/>
      <point x="141" y="-241"/>
      <point x="184" y="-187"/>
      <point x="184" y="-136" type="curve" smooth="yes"/>
      <point x="184" y="-95"/>
      <point x="161" y="-61"/>
      <point x="102" y="-56" type="curve"/>
      <point x="114" y="16" type="line"/>
    </contour>
  </outline>
</glyph>
<glyph name="ordmasculine" format="1">
  <advance width="494"/>
  <unicode hex="00BA"/>
  <outline>
    <contour>
      <point x="136" y="689"/>
      <point x="83" y="545"/>
      <point x="83" y="441" type="curve" smooth="yes"/>
      <point x="83" y="336"/>
      <point x="145" y="271"/>
      <point x="255" y="271" type="curve" smooth="yes"/>
      <point x="421" y="271"/>
      <point x="472" y="415"/>
      <point x="472" y="519" type="curve" smooth="yes"/>
      <point x="472" y="624"/>
      <point x="411" y="689"/>
      <point x="302" y="689" type="curve" smooth="yes"/>
    </contour>
    <contour>
      <point x="353" y="620"/>
      <point x="379" y="592"/>
      <point x="379" y="528" type="curve" smooth="yes"/>
      <point x="379" y="456"/>
      <point x="354" y="340"/>
      <point x="254" y="340" type="curve" smooth="yes"/>
      <point x="203" y="340"/>
      <point x="176" y="369"/>
      <point x="176" y="433" type="curve" smooth="yes"/>
      <point x="176" y="512"/>
      <point x="202" y="620"/>
      <point x="302" y="620" type="curve" smooth="yes"/>
    </contour>
    <component base="minus" xOffset="-40" yOffset="-294"/>
  </outline>
</glyph>
<glyph name="questiondown" format="1">
  <advance width="454"/>
  <unicode hex="00BF"/>
  <outline>
    <contour>
      <point x="235" y="-216"/>
      <point x="306" y="-186"/>
      <point x="371" y="-119" type="curve"/>
      <point x="314" y="-66" type="line"/>
      <point x="267" y="-116"/>
      <point x="214" y="-140"/>
      <point x="163" y="-140" type="curve" smooth="yes"/>
      <point x="110" y="-140"/>
      <point x="78" y="-117"/>
      <point x="78" y="-73" type="curve" smooth="yes"/>
      <point x="78" y="69"/>
      <point x="317" y="36"/>
      <point x="317" y="216" type="curve" smooth="yes"/>
      <point x="317" y="228"/>
      <point x="313" y="251"/>
      <point x="307" y="266" type="curve"/>
      <point x="225" y="252" type="line"/>
      <point x="228" y="240"/>
      <point x="228" y="231"/>
      <point x="228" y="223" type="curve" smooth="yes"/>
      <point x="228" y="81"/>
      <point x="-17" y="122"/>
      <point x="-17" y="-75" type="curve" smooth="yes"/>
      <point x="-17" y="-150"/>
      <point x="39" y="-216"/>
      <point x="155" y="-216" type="curve" smooth="yes"/>
    </contour>
    <component base="period" xOffset="357" yOffset="495" xScale="-1" yScale="-1"/>
  </outline>
</glyph>
<glyph name="AE" format="1">
  <advance width="808"/>
  <unicode hex="00C6"/>
  <outline>
    <contour>
      <point x="317" y="689" type="line"/>
      <point x="-49" y="0" type="line"/>
      <point x="51" y="0" type="line"/>
      <point x="364" y="613" type="line"/>
      <point x="421" y="0" type="line"/>
      <point x="718" y="0" type="line"/>
      <point x="729" y="76" type="line"/>
      <point x="504" y="76" type="line"/>
      <point x="446" y="613" type="line"/>
      <point x="753" y="613" type="line"/>
      <point x="775" y="689" type="line"/>
    </contour>
    <contour>
      <point x="158" y="250" type="line"/>
      <point x="120" y="173" type="line"/>
      <point x="416" y="173" type="line"/>
      <point x="410" y="250" type="line"/>
    </contour>
    <contour>
      <point x="455" y="387" type="line"/>
      <point x="465" y="311" type="line"/>
      <point x="713" y="311" type="line"/>
      <point x="723" y="387" type="line"/>
    </contour>
    <contour>
      <point x="530" y="689" type="move" name="top"/>
    </contour>
    <contour>
      <point x="367" y="0" type="move" name="bottom"/>
    </contour>
  </outline>
</glyph>
<glyph name="Eth" format="1">
  <advance width="649"/>
  <unicode hex="00D0"/>
  <outline>
    <contour>
      <point x="129" y="388" type="line"/>
      <point x="38" y="388" type="line"/>
      <point x="29" y="318" type="line"/>
      <point x="369" y="318" type="line"/>
      <point x="378" y="388" type="line"/>
    </contour>
    <component base="D" xOffset="10"/>
  </outline>
</glyph>
<glyph name="multiply" format="1">
  <advance width="494"/>
  <unicode hex="00D7"/>
  <outline>
    <contour>
      <point x="260" y="363" type="line"/>
      <point x="156" y="486" type="line"/>
      <point x="94" y="429" type="line"/>
      <point x="198" y="307" type="line"/>
      <point x="60" y="185" type="line"/>
      <point x="109" y="129" type="line"/>
      <point x="246" y="251" type="line"/>
      <point x="350" y="129" type="line"/>
      <point x="412" y="185" type="line"/>
      <point x="308" y="307" type="line"/>
      <point x="446" y="429" type="line"/>
      <point x="397" y="486" type="line"/>
    </contour>
  </outline>
</glyph>
<glyph name="Oslash" format="1">
  <advance width="686"/>
  <unicode hex="00D8"/>
  <outline>
    <contour>
      <point x="465" y="689" type="line"/>
      <point x="445" y="626" type="line"/>
      <point x="207" y="86" type="line"/>
      <point x="172" y="32" type="line"/>
      <point x="111" y="-106" type="line"/>
      <point x="188" y="-127" type="line"/>
      <point x="243" y="0" type="line"/>
      <point x="263" y="63" type="line"/>
      <point x="501" y="606" type="line"/>
      <point x="535" y="657" type="line"/>
      <point x="599" y="798" type="line"/>
      <point x="522" y="819" type="line"/>
    </contour>
    <contour>
      <point x="147" y="701"/>
      <point x="61" y="441"/>
      <point x="61" y="265" type="curve" smooth="yes"/>
      <point x="61" y="85"/>
      <point x="158" y="-12"/>
      <point x="308" y="-12" type="curve" smooth="yes"/>
      <point x="562" y="-12"/>
      <point x="648" y="239"/>
      <point x="648" y="421" type="curve" smooth="yes"/>
      <point x="648" y="603"/>
      <point x="552" y="701"/>
      <point x="402" y="701" type="curve" smooth="yes"/>
    </contour>
    <contour>
      <point x="494" y="623"/>
      <point x="550" y="576"/>
      <point x="550" y="438" type="curve" smooth="yes"/>
      <point x="550" y="288"/>
      <point x="500" y="66"/>
      <point x="311" y="66" type="curve" smooth="yes"/>
      <point x="219" y="66"/>
      <point x="159" y="110"/>
      <point x="159" y="255" type="curve" smooth="yes"/>
      <point x="159" y="403"/>
      <point x="211" y="623"/>
      <point x="398" y="623" type="curve" smooth="yes"/>
    </contour>
    <contour>
      <point x="400" y="704" type="move" name="top"/>
    </contour>
    <contour>
      <point x="306" y="0" type="move" name="bottom"/>
    </contour>
  </outline>
</glyph>
<glyph name="Thorn" format="1">
  <advance width="575"/>
  <unicode hex="00DE"/>
  <outline>
    <contour>
      <point x="202" y="571" type="line"/>
      <point x="217" y="497" type="line"/>
      <point x="313" y="497" type="line" smooth="yes"/>
      <point x="403" y="497"/>
      <point x="459" y="470"/>
      <point x="459" y="385" type="curve" smooth="yes"/>
      <point x="459" y="294"/>
      <point x="417" y="202"/>
      <point x="264" y="202" type="curve" smooth="yes"/>
      <point x="168" y="202" type="line"/>
      <point x="158" y="127" type="line"/>
      <point x="262" y="127" type="line" smooth="yes"/>
      <point x="490" y="127"/>
      <point x="559" y="265"/>
      <point x="559" y="385" type="curve" smooth="yes"/>
      <point x="559" y="513"/>
      <point x="469" y="571"/>
      <point x="319" y="571" type="curve" smooth="yes"/>
    </contour>
    <contour>
      <point x="159" y="689" type="line"/>
      <point x="62" y="0" type="line"/>
      <point x="156" y="0" type="line"/>
      <point x="253" y="689" type="line"/>
    </contour>
    <contour>
      <point x="347" y="689" type="move" name="top"/>
    </contour>
    <contour>
      <point x="250" y="0" type="move" name="bottom"/>
    </contour>
  </outline>
</glyph>
<glyph name="germandbls" format="1">
  <advance width="583"/>
  <unicode hex="00DF"/>
  <outline>
    <contour>
      <point x="380" y="492"/>
      <point x="516" y="499"/>
      <point x="516" y="621" type="curve" smooth="yes"/>
      <point x="516" y="694"/>
      <point x="457" y="750"/>
      <point x="353" y="750" type="curve" smooth="yes"/>
      <point x="228" y="750"/>
      <point x="147" y="675"/>
      <point x="129" y="542" type="curve"/>
      <point x="57" y="29" type="line" smooth="yes"/>
      <point x="41" y="-84"/>
      <point x="-3" y="-112"/>
      <point x="-75" y="-144" type="curve"/>
      <point x="-49" y="-213" type="line"/>
      <point x="68" y="-163"/>
      <point x="127" y="-120"/>
      <point x="148" y="29" type="curve" smooth="yes"/>
      <point x="219" y="536" type="line"/>
      <point x="232" y="631"/>
      <point x="280" y="678"/>
      <point x="352" y="678" type="curve" smooth="yes"/>
      <point x="395" y="678"/>
      <point x="429" y="660"/>
      <point x="429" y="618" type="curve" smooth="yes"/>
      <point x="429" y="521"/>
      <point x="293" y="524"/>
      <point x="293" y="409" type="curve" smooth="yes"/>
      <point x="293" y="305"/>
      <point x="439" y="290"/>
      <point x="439" y="172" type="curve" smooth="yes"/>
      <point x="439" y="126"/>
      <point x="410" y="62"/>
      <point x="324" y="62" type="curve" smooth="yes"/>
      <point x="295" y="62"/>
      <point x="264" y="70"/>
      <point x="243" y="81" type="curve"/>
      <point x="210" y="19" type="line"/>
      <point x="237" y="3"/>
      <point x="280" y="-12"/>
      <point x="331" y="-12" type="curve" smooth="yes"/>
      <point x="466" y="-12"/>
      <point x="531" y="90"/>
      <point x="531" y="175" type="curve" smooth="yes"/>
      <point x="531" y="331"/>
      <point x="380" y="344"/>
      <point x="380" y="422" type="curve" smooth="yes"/>
    </contour>
  </outline>
</glyph>
<glyph name="ae" format="1">
  <advance width="829"/>
  <unicode hex="00E6"/>
  <outline>
    <contour>
      <point x="228" y="539"/>
      <point x="174" y="527"/>
      <point x="120" y="507" type="curve"/>
      <point x="138" y="438" type="line"/>
      <point x="191" y="455"/>
      <point x="226" y="464"/>
      <point x="277" y="464" type="curve" smooth="yes"/>
      <point x="343" y="464"/>
      <point x="388" y="431"/>
      <point x="391" y="384" type="curve"/>
      <point x="387" y="372"/>
      <point x="380" y="352"/>
      <point x="371" y="308" type="curve"/>
      <point x="290" y="308" type="line" smooth="yes"/>
      <point x="97" y="308"/>
      <point x="34" y="220"/>
      <point x="34" y="127" type="curve" smooth="yes"/>
      <point x="34" y="44"/>
      <point x="89" y="-12"/>
      <point x="186" y="-12" type="curve" smooth="yes"/>
      <point x="263" y="-12"/>
      <point x="327" y="12"/>
      <point x="385" y="81" type="curve"/>
      <point x="416" y="22"/>
      <point x="476" y="-12"/>
      <point x="559" y="-12" type="curve" smooth="yes"/>
      <point x="629" y="-12"/>
      <point x="691" y="11"/>
      <point x="748" y="52" type="curve"/>
      <point x="709" y="114" type="line"/>
      <point x="661" y="80"/>
      <point x="617" y="65"/>
      <point x="568" y="65" type="curve" smooth="yes"/>
      <point x="500" y="65"/>
      <point x="450" y="101"/>
      <point x="449" y="200" type="curve"/>
      <point x="635" y="219"/>
      <point x="796" y="255"/>
      <point x="796" y="405" type="curve" smooth="yes"/>
      <point x="796" y="475"/>
      <point x="741" y="539"/>
      <point x="629" y="539" type="curve" smooth="yes"/>
      <point x="547" y="539"/>
      <point x="486" y="502"/>
      <point x="449" y="456" type="curve"/>
      <point x="426" y="506"/>
      <point x="379" y="539"/>
      <point x="291" y="539" type="curve" smooth="yes"/>
    </contour>
    <contour>
      <point x="360" y="230"/>
      <point x="360" y="167"/>
      <point x="363" y="151" type="curve"/>
      <point x="315" y="87"/>
      <point x="267" y="57"/>
      <point x="209" y="57" type="curve" smooth="yes"/>
      <point x="159" y="57"/>
      <point x="134" y="79"/>
      <point x="134" y="126" type="curve" smooth="yes"/>
      <point x="134" y="213"/>
      <point x="193" y="245"/>
      <point x="298" y="245" type="curve" smooth="yes"/>
      <point x="362" y="245" type="line"/>
    </contour>
    <contour>
      <point x="685" y="466"/>
      <point x="700" y="427"/>
      <point x="700" y="402" type="curve" smooth="yes"/>
      <point x="700" y="311"/>
      <point x="608" y="287"/>
      <point x="455" y="270" type="curve"/>
      <point x="470" y="364"/>
      <point x="519" y="466"/>
      <point x="628" y="466" type="curve" smooth="yes"/>
    </contour>
    <contour>
      <point x="461" y="527" type="move" name="top"/>
    </contour>
    <contour>
      <point x="379" y="0" type="move" name="bottom"/>
    </contour>
  </outline>
</glyph>
<glyph name="eth" format="1">
  <advance width="564"/>
  <unicode hex="00F0"/>
  <outline>
    <contour>
      <point x="466" y="729" type="line"/>
      <point x="418" y="776" type="line"/>
      <point x="336" y="699" type="line"/>
      <point x="295" y="724"/>
      <point x="250" y="738"/>
      <point x="196" y="749" type="curve"/>
      <point x="171" y="680" type="line"/>
      <point x="210" y="672"/>
      <point x="241" y="663"/>
      <point x="277" y="647" type="curve"/>
      <point x="192" y="571" type="line"/>
      <point x="252" y="539" type="line"/>
      <point x="335" y="610" type="line"/>
      <point x="392" y="556"/>
      <point x="417" y="494"/>
      <point x="421" y="413" type="curve"/>
      <point x="391" y="452"/>
      <point x="345" y="475"/>
      <point x="281" y="475" type="curve" smooth="yes"/>
      <point x="109" y="475"/>
      <point x="49" y="311"/>
      <point x="49" y="190" type="curve" smooth="yes"/>
      <point x="49" y="61"/>
      <point x="130" y="-12"/>
      <point x="240" y="-12" type="curve" smooth="yes"/>
      <point x="379" y="-12"/>
      <point x="479" y="94"/>
      <point x="503" y="260" type="curve" smooth="yes"/>
      <point x="509" y="302"/>
      <point x="512" y="341"/>
      <point x="512" y="377" type="curve" smooth="yes"/>
      <point x="512" y="498"/>
      <point x="477" y="589"/>
      <point x="392" y="660" type="curve"/>
    </contour>
    <contour>
      <point x="180" y="61"/>
      <point x="142" y="103"/>
      <point x="142" y="188" type="curve" smooth="yes"/>
      <point x="142" y="279"/>
      <point x="167" y="403"/>
      <point x="293" y="403" type="curve" smooth="yes"/>
      <point x="352" y="403"/>
      <point x="392" y="378"/>
      <point x="418" y="328" type="curve"/>
      <point x="417" y="310"/>
      <point x="415" y="291"/>
      <point x="412" y="271" type="curve" smooth="yes"/>
      <point x="393" y="134"/>
      <point x="324" y="61"/>
      <point x="242" y="61" type="curve" smooth="yes"/>
    </contour>
    <contour>
      <point x="336" y="739" type="move" name="top"/>
    </contour>
    <contour>
      <point x="244" y="0" type="move" name="bottom"/>
    </contour>
  </outline>
</glyph>
<glyph name="oslash" format="1">
  <advance width="578"/>
  <unicode hex="00F8"/>
  <outline>
    <contour>
      <point x="201" y="-7" type="line"/>
      <point x="217" y="-10"/>
      <point x="235" y="-12"/>
      <point x="254" y="-12" type="curve" smooth="yes"/>
      <point x="461" y="-12"/>
      <point x="526" y="194"/>
      <point x="526" y="321" type="curve" smooth="yes"/>
      <point x="526" y="405"/>
      <point x="498" y="469"/>
      <point x="446" y="506" type="curve"/>
      <point x="506" y="634" type="line"/>
      <point x="433" y="656" type="line"/>
      <point x="378" y="534" type="line"/>
      <point x="362" y="537"/>
      <point x="344" y="539"/>
      <point x="325" y="539" type="curve" smooth="yes"/>
      <point x="119" y="539"/>
      <point x="52" y="336"/>
      <point x="52" y="206" type="curve" smooth="yes"/>
      <point x="52" y="122"/>
      <point x="80" y="57"/>
      <point x="133" y="21" type="curve"/>
      <point x="73" y="-108" type="line"/>
      <point x="146" y="-130" type="line"/>
    </contour>
    <contour>
      <point x="158" y="109"/>
      <point x="148" y="143"/>
      <point x="148" y="196" type="curve" smooth="yes"/>
      <point x="148" y="297"/>
      <point x="185" y="465"/>
      <point x="322" y="465" type="curve" smooth="yes"/>
      <point x="333" y="465"/>
      <point x="343" y="464"/>
      <point x="353" y="462" type="curve"/>
      <point x="178" y="89" type="line"/>
    </contour>
    <contour>
      <point x="246" y="62"/>
      <point x="236" y="63"/>
      <point x="226" y="64" type="curve"/>
      <point x="402" y="437" type="line"/>
      <point x="420" y="416"/>
      <point x="430" y="383"/>
      <point x="430" y="331" type="curve" smooth="yes"/>
      <point x="430" y="230"/>
      <point x="394" y="62"/>
      <point x="257" y="62" type="curve" smooth="yes"/>
    </contour>
    <contour>
      <point x="326" y="527" type="move" name="top"/>
    </contour>
    <contour>
      <point x="261" y="0" type="move" name="bottom"/>
    </contour>
  </outline>
</glyph>
<glyph name="thorn" format="1">
  <advance width="584"/>
  <unicode hex="00FE"/>
  <outline>
    <contour>
      <point x="310" y="539"/>
      <point x="262" y="516"/>
      <point x="214" y="474" type="curve"/>
      <point x="253" y="750" type="line"/>
      <point x="161" y="739" type="line"/>
      <point x="26" y="-217" type="line"/>
      <point x="119" y="-204" type="line"/>
      <point x="148" y="8" type="line"/>
      <point x="179" y="-5"/>
      <point x="212" y="-12"/>
      <point x="246" y="-12" type="curve" smooth="yes"/>
      <point x="454" y="-12"/>
      <point x="528" y="184"/>
      <point x="528" y="332" type="curve" smooth="yes"/>
      <point x="528" y="465"/>
      <point x="468" y="539"/>
      <point x="368" y="539" type="curve" smooth="yes"/>
    </contour>
    <contour>
      <point x="216" y="61"/>
      <point x="193" y="66"/>
      <point x="160" y="78" type="curve"/>
      <point x="203" y="390" type="line"/>
      <point x="241" y="430"/>
      <point x="284" y="466"/>
      <point x="339" y="466" type="curve" smooth="yes"/>
      <point x="394" y="466"/>
      <point x="433" y="433"/>
      <point x="433" y="339" type="curve" smooth="yes"/>
      <point x="433" y="221"/>
      <point x="384" y="61"/>
      <point x="253" y="61" type="curve" smooth="yes"/>
    </contour>
    <contour>
      <point x="359" y="739" type="move" name="top"/>
    </contour>
  </outline>
</glyph>
<glyph name="dcroat" format="1">
  <advance width="602"/>
  <unicode hex="0111"/>
  <outline>
    <contour>
      <point x="306" y="676" type="line"/>
      <point x="306" y="606" type="line"/>
      <point x="548" y="606" type="line"/>
      <point x="626" y="606" type="line"/>
      <point x="636" y="676" type="line"/>
    </contour>
    <component base="d"/>
  </outline>
</glyph>
<glyph name="Hbar" format="1">
  <advance width="682"/>
  <unicode hex="0126"/>
  <outline>
    <contour>
      <point x="617" y="577" type="line"/>
      <point x="79" y="577" type="line"/>
      <point x="69" y="508" type="line"/>
      <point x="137" y="508" type="line"/>
      <point x="681" y="508" type="line"/>
      <point x="691" y="577" type="line"/>
    </contour>
    <component base="H" xOffset="3"/>
  </outline>
</glyph>
<glyph name="hbar" format="1">
  <advance width="589"/>
  <unicode hex="0127"/>
  <outline>
    <contour>
      <point x="82" y="676" type="line"/>
      <point x="72" y="606" type="line"/>
      <point x="151" y="606" type="line"/>
      <point x="384" y="606" type="line"/>
      <point x="403" y="676" type="line"/>
    </contour>
    <component base="h" xOffset="8"/>
  </outline>
</glyph>
<glyph name="dotlessi" format="1">
  <advance width="280"/>
  <unicode hex="0131"/>
  <outline>
    <contour>
      <point x="131" y="527" type="line"/>
      <point x="57" y="0" type="line"/>
      <point x="149" y="0" type="line"/>
      <point x="223" y="527" type="line"/>
    </contour>
    <contour>
      <point x="128" y="0" type="move" name="ogonek"/>
    </contour>
    <contour>
      <point x="103" y="0" type="move" name="bottom"/>
    </contour>
    <contour>
      <point x="177" y="527" type="move" name="top"/>
    </contour>
  </outline>
</glyph>
<glyph name="kgreenlandic" format="1">
  <advance width="508"/>
  <unicode hex="0138"/>
  <outline>
    <contour>
      <point x="411" y="527" type="line"/>
      <point x="190" y="278" type="line"/>
      <point x="362" y="0" type="line"/>
      <point x="466" y="0" type="line"/>
      <point x="293" y="278" type="line"/>
      <point x="520" y="527" type="line"/>
    </contour>
    <contour>
      <point x="131" y="527" type="line"/>
      <point x="57" y="0" type="line"/>
      <point x="148" y="0" type="line"/>
      <point x="222" y="527" type="line"/>
    </contour>
  </outline>
</glyph>
<glyph name="Lslash" format="1">
  <advance width="502"/>
  <unicode hex="0141"/>
  <outline>
    <contour>
      <point x="178" y="83" type="line"/>
      <point x="210" y="313" type="line"/>
      <point x="427" y="438" type="line"/>
      <point x="397" y="498" type="line"/>
      <point x="222" y="398" type="line"/>
      <point x="263" y="689" type="line"/>
      <point x="169" y="689" type="line"/>
      <point x="120" y="339" type="line"/>
      <point x="23" y="282" type="line"/>
      <point x="52" y="222" type="line"/>
      <point x="108" y="254" type="line"/>
      <point x="72" y="0" type="line"/>
      <point x="436" y="0" type="line"/>
      <point x="458" y="83" type="line"/>
    </contour>
  </outline>
</glyph>
<glyph name="lslash" format="1">
  <advance width="296"/>
  <unicode hex="0142"/>
  <outline>
    <contour>
      <point x="24" y="341" type="line"/>
      <point x="46" y="275" type="line"/>
      <point x="308" y="425" type="line"/>
      <point x="286" y="491" type="line"/>
    </contour>
    <component base="l"/>
  </outline>
</glyph>
<glyph name="napostrophe" format="1">
  <advance width="580"/>
  <unicode hex="0149"/>
  <outline>
    <contour>
      <point x="125" y="771"/>
      <point x="99" y="750"/>
      <point x="95" y="720" type="curve" smooth="yes"/>
      <point x="92" y="699"/>
      <point x="101" y="682"/>
      <point x="113" y="670" type="curve"/>
      <point x="66" y="552" type="line"/>
      <point x="120" y="552" type="line"/>
      <point x="172" y="636" type="line" smooth="yes"/>
      <point x="199" y="680"/>
      <point x="205" y="695"/>
      <point x="207" y="710" type="curve" smooth="yes"/>
      <point x="212" y="744"/>
      <point x="189" y="771"/>
      <point x="155" y="771" type="curve" smooth="yes"/>
    </contour>
    <component base="n"/>
  </outline>
</glyph>
<glyph name="eng" format="1">
  <advance width="580"/>
  <unicode hex="014B"/>
  <outline>
    <component base="n"/>
    <component base="hookHELPER" xOffset="196"/>
    <contour>
      <point x="238" y="-202" type="move" name="bottom"/>
    </contour>
  </outline>
</glyph>
<glyph name="OE" format="1">
  <advance width="901"/>
  <unicode hex="0152"/>
  <outline>
    <contour>
      <point x="151" y="701"/>
      <point x="61" y="439"/>
      <point x="61" y="264" type="curve" smooth="yes"/>
      <point x="61" y="85"/>
      <point x="156" y="-12"/>
      <point x="295" y="-12" type="curve" smooth="yes"/>
      <point x="343" y="-12"/>
      <point x="395" y="2"/>
      <point x="434" y="34" type="curve"/>
      <point x="581" y="115"/>
      <point x="627" y="287"/>
      <point x="627" y="416" type="curve" smooth="yes"/>
      <point x="627" y="520"/>
      <point x="595" y="601"/>
      <point x="531" y="641" type="curve"/>
      <point x="498" y="681"/>
      <point x="446" y="701"/>
      <point x="387" y="701" type="curve" smooth="yes"/>
    </contour>
    <contour>
      <point x="470" y="76" type="line"/>
      <point x="364" y="0" type="line"/>
      <point x="798" y="0" type="line"/>
      <point x="809" y="76" type="line"/>
    </contour>
    <contour>
      <point x="563" y="388" type="line"/>
      <point x="553" y="312" type="line"/>
      <point x="789" y="312" type="line"/>
      <point x="799" y="388" type="line"/>
    </contour>
    <contour>
      <point x="463" y="689" type="line"/>
      <point x="556" y="613" type="line"/>
      <point x="866" y="613" type="line"/>
      <point x="887" y="689" type="line"/>
    </contour>
    <contour>
      <point x="475" y="623"/>
      <point x="530" y="569"/>
      <point x="530" y="439" type="curve" smooth="yes"/>
      <point x="530" y="291"/>
      <point x="479" y="66"/>
      <point x="301" y="66" type="curve" smooth="yes"/>
      <point x="217" y="66"/>
      <point x="159" y="119"/>
      <point x="159" y="255" type="curve" smooth="yes"/>
      <point x="159" y="394"/>
      <point x="212" y="623"/>
      <point x="388" y="623" type="curve" smooth="yes"/>
    </contour>
    <contour>
      <point x="510" y="689" type="move" name="top"/>
    </contour>
    <contour>
      <point x="413" y="0" type="move" name="bottom"/>
    </contour>
  </outline>
</glyph>
<glyph name="oe" format="1">
  <advance width="890"/>
  <unicode hex="0153"/>
  <outline>
    <contour>
      <point x="119" y="539"/>
      <point x="52" y="336"/>
      <point x="52" y="206" type="curve" smooth="yes"/>
      <point x="52" y="72"/>
      <point x="123" y="-12"/>
      <point x="254" y="-12" type="curve" smooth="yes"/>
      <point x="461" y="-12"/>
      <point x="496" y="184"/>
      <point x="516" y="321" type="curve"/>
      <point x="516" y="425"/>
      <point x="456" y="539"/>
      <point x="325" y="539" type="curve" smooth="yes"/>
    </contour>
    <contour>
      <point x="392" y="465"/>
      <point x="430" y="423"/>
      <point x="430" y="331" type="curve" smooth="yes"/>
      <point x="430" y="230"/>
      <point x="394" y="62"/>
      <point x="257" y="62" type="curve" smooth="yes"/>
      <point x="186" y="62"/>
      <point x="148" y="104"/>
      <point x="148" y="196" type="curve" smooth="yes"/>
      <point x="148" y="297"/>
      <point x="185" y="465"/>
      <point x="322" y="465" type="curve" smooth="yes"/>
    </contour>
    <contour>
      <point x="491" y="539"/>
      <point x="434" y="344"/>
      <point x="420" y="202" type="curve"/>
      <point x="430" y="83"/>
      <point x="492" y="-12"/>
      <point x="621" y="-12" type="curve" smooth="yes"/>
      <point x="691" y="-12"/>
      <point x="753" y="11"/>
      <point x="810" y="52" type="curve"/>
      <point x="771" y="114" type="line"/>
      <point x="723" y="80"/>
      <point x="679" y="65"/>
      <point x="630" y="65" type="curve" smooth="yes"/>
      <point x="562" y="65"/>
      <point x="516" y="101"/>
      <point x="516" y="202" type="curve" smooth="yes"/>
      <point x="516" y="307"/>
      <point x="554" y="466"/>
      <point x="690" y="466" type="curve" smooth="yes"/>
      <point x="747" y="466"/>
      <point x="762" y="427"/>
      <point x="762" y="402" type="curve" smooth="yes"/>
      <point x="762" y="310"/>
      <point x="668" y="282"/>
      <point x="511" y="265" type="curve"/>
      <point x="502" y="195" type="line"/>
      <point x="692" y="214"/>
      <point x="858" y="253"/>
      <point x="858" y="405" type="curve" smooth="yes"/>
      <point x="858" y="475"/>
      <point x="803" y="539"/>
      <point x="691" y="539" type="curve" smooth="yes"/>
    </contour>
    <contour>
      <point x="482" y="527" type="move" name="top"/>
    </contour>
    <contour>
      <point x="434" y="0" type="move" name="bottom"/>
    </contour>
  </outline>
</glyph>
<glyph name="Tbar" format="1">
  <advance width="513"/>
  <unicode hex="0166"/>
  <outline>
    <contour>
      <point x="540" y="608" type="line"/>
      <point x="562" y="689" type="line"/>
      <point x="74" y="689" type="line"/>
      <point x="62" y="608" type="line"/>
      <point x="256" y="608" type="line"/>
      <point x="225" y="389" type="line"/>
      <point x="104" y="389" type="line"/>
      <point x="95" y="319" type="line"/>
      <point x="216" y="319" type="line"/>
      <point x="171" y="0" type="line"/>
      <point x="266" y="0" type="line"/>
      <point x="311" y="319" type="line"/>
      <point x="434" y="319" type="line"/>
      <point x="443" y="389" type="line"/>
      <point x="320" y="389" type="line"/>
      <point x="351" y="608" type="line"/>
    </contour>
  </outline>
</glyph>
<glyph name="tbar" format="1">
  <advance width="355"/>
  <unicode hex="0167"/>
  <outline>
    <contour>
      <point x="115" y="357" type="line"/>
      <point x="35" y="357" type="line"/>
      <point x="25" y="286" type="line"/>
      <point x="300" y="286" type="line"/>
      <point x="320" y="357" type="line"/>
    </contour>
    <component base="t"/>
  </outline>
</glyph>
<glyph name="longs" format="1">
  <advance width="329"/>
  <unicode hex="017F"/>
  <outline>
    <contour>
      <point x="225" y="750"/>
      <point x="162" y="690"/>
      <point x="150" y="602" type="curve" smooth="yes"/>
      <point x="65" y="0" type="line"/>
      <point x="156" y="0" type="line"/>
      <point x="240" y="597" type="line" smooth="yes"/>
      <point x="247" y="648"/>
      <point x="273" y="676"/>
      <point x="332" y="676" type="curve" smooth="yes"/>
      <point x="357" y="676"/>
      <point x="387" y="672"/>
      <point x="418" y="651" type="curve"/>
      <point x="453" y="712" type="line"/>
      <point x="414" y="736"/>
      <point x="380" y="750"/>
      <point x="329" y="750" type="curve" smooth="yes"/>
    </contour>
    <contour>
      <point x="46" y="527" type="line"/>
      <point x="36" y="456" type="line"/>
      <point x="169" y="456" type="line"/>
      <point x="189" y="527" type="line"/>
    </contour>
  </outline>
</glyph>
<glyph name="uni0180" format="1">
  <advance width="588"/>
  <unicode hex="0180"/>
  <outline>
    <contour>
      <point x="82" y="676" type="line"/>
      <point x="72" y="606" type="line"/>
      <point x="151" y="606" type="line"/>
      <point x="384" y="606" type="line"/>
      <point x="403" y="676" type="line"/>
    </contour>
    <component base="b" xOffset="9"/>
  </outline>
</glyph>
<glyph name="uni0183" format="1">
  <advance width="579"/>
  <unicode hex="0183"/>
  <outline>
    <contour>
      <point x="453" y="669" type="line"/>
      <point x="475" y="739" type="line"/>
      <point x="169" y="739" type="line"/>
      <point x="241" y="669" type="line"/>
    </contour>
    <contour>
      <point x="161" y="739" type="line"/>
      <point x="60" y="23" type="line"/>
      <point x="136" y="-2"/>
      <point x="186" y="-12"/>
      <point x="246" y="-12" type="curve" smooth="yes"/>
      <point x="454" y="-12"/>
      <point x="528" y="184"/>
      <point x="528" y="332" type="curve" smooth="yes"/>
      <point x="528" y="465"/>
      <point x="468" y="539"/>
      <point x="368" y="539" type="curve" smooth="yes"/>
      <point x="310" y="539"/>
      <point x="262" y="516"/>
      <point x="215" y="475" type="curve"/>
      <point x="252" y="739" type="line"/>
    </contour>
    <contour>
      <point x="394" y="466"/>
      <point x="433" y="433"/>
      <point x="433" y="339" type="curve" smooth="yes"/>
      <point x="433" y="221"/>
      <point x="384" y="61"/>
      <point x="253" y="61" type="curve" smooth="yes"/>
      <point x="216" y="61"/>
      <point x="193" y="65"/>
      <point x="160" y="77" type="curve"/>
      <point x="204" y="390" type="line"/>
      <point x="241" y="430"/>
      <point x="284" y="466"/>
      <point x="339" y="466" type="curve" smooth="yes"/>
    </contour>
  </outline>
</glyph>
<glyph name="uni0184" format="1">
  <advance width="568"/>
  <unicode hex="0184"/>
  <outline>
    <contour>
      <point x="244" y="0" type="line" smooth="yes"/>
      <point x="468" y="0"/>
      <point x="541" y="123"/>
      <point x="541" y="241" type="curve" smooth="yes"/>
      <point x="541" y="372"/>
      <point x="451" y="436"/>
      <point x="305" y="436" type="curve" smooth="yes"/>
      <point x="201" y="436" type="line"/>
      <point x="191" y="362" type="line"/>
      <point x="300" y="362" type="line" smooth="yes"/>
      <point x="389" y="362"/>
      <point x="441" y="331"/>
      <point x="441" y="241" type="curve" smooth="yes"/>
      <point x="441" y="160"/>
      <point x="405" y="76"/>
      <point x="259" y="76" type="curve" smooth="yes"/>
      <point x="167" y="76" type="line"/>
      <point x="253" y="689" type="line"/>
      <point x="170" y="689" type="line"/>
      <point x="136" y="524" type="line"/>
      <point x="62" y="0" type="line"/>
    </contour>
    <contour>
      <point x="170" y="689" type="line"/>
      <point x="142" y="642"/>
      <point x="107" y="597"/>
      <point x="73" y="566" type="curve"/>
      <point x="136" y="524" type="line"/>
    </contour>
  </outline>
</glyph>
<glyph name="uni0185" format="1">
  <advance width="510"/>
  <unicode hex="0185"/>
  <outline>
    <contour>
      <point x="141" y="527" type="line"/>
      <point x="113" y="483"/>
      <point x="81" y="445"/>
      <point x="46" y="414" type="curve"/>
      <point x="109" y="372" type="line"/>
    </contour>
    <contour>
      <point x="198" y="357" type="line"/>
      <point x="222" y="527" type="line"/>
      <point x="141" y="527" type="line"/>
      <point x="109" y="372" type="line"/>
      <point x="59" y="14" type="line"/>
      <point x="108" y="-1"/>
      <point x="165" y="-12"/>
      <point x="230" y="-12" type="curve" smooth="yes"/>
      <point x="396" y="-12"/>
      <point x="467" y="100"/>
      <point x="467" y="200" type="curve" smooth="yes"/>
      <point x="467" y="289"/>
      <point x="411" y="357"/>
      <point x="265" y="357" type="curve" smooth="yes"/>
    </contour>
    <contour>
      <point x="202" y="60"/>
      <point x="183" y="63"/>
      <point x="158" y="68" type="curve"/>
      <point x="188" y="287" type="line"/>
      <point x="258" y="287" type="line" smooth="yes"/>
      <point x="341" y="287"/>
      <point x="372" y="252"/>
      <point x="372" y="201" type="curve" smooth="yes"/>
      <point x="372" y="131"/>
      <point x="334" y="60"/>
      <point x="227" y="60" type="curve" smooth="yes"/>
    </contour>
    <contour>
      <point x="292" y="527" type="move" name="top"/>
    </contour>
    <contour>
      <point x="218" y="0" type="move" name="bottom"/>
    </contour>
  </outline>
</glyph>
<glyph name="uni0186" format="1">
  <advance width="554"/>
  <unicode hex="0186"/>
  <outline>
    <contour>
      <point x="195" y="701"/>
      <point x="137" y="678"/>
      <point x="76" y="635" type="curve"/>
      <point x="120" y="571" type="line"/>
      <point x="173" y="606"/>
      <point x="221" y="623"/>
      <point x="275" y="623" type="curve" smooth="yes"/>
      <point x="356" y="623"/>
      <point x="417" y="571"/>
      <point x="417" y="423" type="curve" smooth="yes"/>
      <point x="417" y="261"/>
      <point x="347" y="68"/>
      <point x="178" y="68" type="curve" smooth="yes"/>
      <point x="116" y="68"/>
      <point x="78" y="95"/>
      <point x="42" y="123" type="curve"/>
      <point x="-10" y="67" type="line"/>
      <point x="29" y="28"/>
      <point x="83" y="-12"/>
      <point x="178" y="-12" type="curve" smooth="yes"/>
      <point x="394" y="-12"/>
      <point x="515" y="196"/>
      <point x="515" y="423" type="curve" smooth="yes"/>
      <point x="515" y="604"/>
      <point x="423" y="701"/>
      <point x="283" y="701" type="curve" smooth="yes"/>
    </contour>
    <contour>
      <point x="287" y="689" type="move" name="top"/>
    </contour>
    <contour>
      <point x="190" y="0" type="move" name="bottom"/>
    </contour>
  </outline>
</glyph>
<glyph name="uni0187" format="1">
  <advance width="560"/>
  <unicode hex="0187"/>
  <outline>
    <contour>
      <point x="579" y="630" type="line"/>
      <point x="586" y="681" type="line" smooth="yes"/>
      <point x="593" y="734"/>
      <point x="622" y="758"/>
      <point x="663" y="758" type="curve" smooth="yes"/>
      <point x="694" y="758"/>
      <point x="710" y="750"/>
      <point x="731" y="736" type="curve"/>
      <point x="772" y="792" type="line"/>
      <point x="749" y="811"/>
      <point x="715" y="832"/>
      <point x="661" y="832" type="curve" smooth="yes"/>
      <point x="568" y="832"/>
      <point x="507" y="779"/>
      <point x="493" y="679" type="curve" smooth="yes"/>
      <point x="492" y="665" type="line"/>
    </contour>
    <contour>
      <point x="157" y="701"/>
      <point x="61" y="452"/>
      <point x="61" y="268" type="curve" smooth="yes"/>
      <point x="61" y="86"/>
      <point x="159" y="-12"/>
      <point x="306" y="-12" type="curve" smooth="yes"/>
      <point x="396" y="-12"/>
      <point x="464" y="25"/>
      <point x="509" y="63" type="curve"/>
      <point x="467" y="128" type="line"/>
      <point x="425" y="99"/>
      <point x="379" y="68"/>
      <point x="312" y="68" type="curve" smooth="yes"/>
      <point x="224" y="68"/>
      <point x="160" y="122"/>
      <point x="160" y="260" type="curve" smooth="yes"/>
      <point x="160" y="415"/>
      <point x="219" y="623"/>
      <point x="400" y="623" type="curve" smooth="yes"/>
      <point x="445" y="623"/>
      <point x="494" y="607"/>
      <point x="532" y="584" type="curve"/>
      <point x="579" y="630" type="line"/>
      <point x="561" y="646"/>
      <point x="543" y="660"/>
      <point x="520" y="663" type="curve"/>
      <point x="490" y="686"/>
      <point x="445" y="701"/>
      <point x="390" y="701" type="curve" smooth="yes"/>
    </contour>
  </outline>
</glyph>
<glyph name="uni0188" format="1">
  <advance width="472"/>
  <unicode hex="0188"/>
  <outline>
    <contour>
      <point x="125" y="539"/>
      <point x="52" y="341"/>
      <point x="52" y="203" type="curve" smooth="yes"/>
      <point x="52" y="68"/>
      <point x="124" y="-12"/>
      <point x="249" y="-12" type="curve" smooth="yes"/>
      <point x="307" y="-12"/>
      <point x="362" y="6"/>
      <point x="414" y="43" type="curve"/>
      <point x="377" y="107" type="line"/>
      <point x="335" y="81"/>
      <point x="301" y="66"/>
      <point x="255" y="66" type="curve" smooth="yes"/>
      <point x="188" y="66"/>
      <point x="148" y="104"/>
      <point x="148" y="196" type="curve" smooth="yes"/>
      <point x="148" y="305"/>
      <point x="187" y="463"/>
      <point x="320" y="463" type="curve" smooth="yes"/>
      <point x="361" y="463"/>
      <point x="398" y="451"/>
      <point x="432" y="434" type="curve"/>
      <point x="472" y="481" type="line"/>
      <point x="452" y="500"/>
      <point x="431" y="513"/>
      <point x="408" y="513" type="curve"/>
      <point x="383" y="530"/>
      <point x="354" y="539"/>
      <point x="315" y="539" type="curve" smooth="yes"/>
    </contour>
    <contour>
      <point x="488" y="599" type="line" smooth="yes"/>
      <point x="495" y="652"/>
      <point x="526" y="676"/>
      <point x="566" y="676" type="curve" smooth="yes"/>
      <point x="597" y="676"/>
      <point x="613" y="668"/>
      <point x="634" y="654" type="curve"/>
      <point x="675" y="710" type="line"/>
      <point x="652" y="729"/>
      <point x="618" y="750"/>
      <point x="563" y="750" type="curve" smooth="yes"/>
      <point x="474" y="750"/>
      <point x="412" y="701"/>
      <point x="397" y="597" type="curve" smooth="yes"/>
      <point x="383" y="498" type="line"/>
      <point x="472" y="481" type="line"/>
    </contour>
  </outline>
</glyph>
<glyph name="uni018B" format="1">
  <advance width="575"/>
  <unicode hex="018B"/>
  <outline>
    <contour>
      <point x="355" y="76" type="line"/>
      <point x="259" y="76" type="line" smooth="yes"/>
      <point x="174" y="76"/>
      <point x="120" y="106"/>
      <point x="120" y="193" type="curve" smooth="yes"/>
      <point x="120" y="296"/>
      <point x="183" y="356"/>
      <point x="305" y="356" type="curve" smooth="yes"/>
      <point x="410" y="356" type="line"/>
      <point x="421" y="430" type="line"/>
      <point x="313" y="430" type="line" smooth="yes"/>
      <point x="139" y="430"/>
      <point x="20" y="348"/>
      <point x="20" y="194" type="curve" smooth="yes"/>
      <point x="20" y="64"/>
      <point x="114" y="0"/>
      <point x="250" y="0" type="curve" smooth="yes"/>
      <point x="438" y="0" type="line"/>
      <point x="535" y="689" type="line"/>
      <point x="440" y="679" type="line"/>
    </contour>
    <contour>
      <point x="157" y="611" type="line"/>
      <point x="446" y="611" type="line"/>
      <point x="536" y="689" type="line"/>
      <point x="168" y="689" type="line"/>
    </contour>
  </outline>
</glyph>
<glyph name="uni018C" format="1">
  <advance width="598"/>
  <unicode hex="018C"/>
  <outline>
    <contour>
      <point x="465" y="669" type="line"/>
      <point x="557" y="739" type="line"/>
      <point x="257" y="739" type="line"/>
      <point x="247" y="669" type="line"/>
    </contour>
    <contour>
      <point x="437" y="473" type="line"/>
      <point x="408" y="510"/>
      <point x="364" y="539"/>
      <point x="302" y="539" type="curve" smooth="yes"/>
      <point x="122" y="539"/>
      <point x="57" y="333"/>
      <point x="57" y="197" type="curve" smooth="yes"/>
      <point x="57" y="70"/>
      <point x="115" y="-12"/>
      <point x="224" y="-12" type="curve" smooth="yes"/>
      <point x="292" y="-12"/>
      <point x="346" y="26"/>
      <point x="383" y="87" type="curve"/>
      <point x="382" y="0" type="line"/>
      <point x="462" y="0" type="line"/>
      <point x="566" y="739" type="line"/>
      <point x="475" y="739" type="line"/>
    </contour>
    <contour>
      <point x="368" y="466"/>
      <point x="401" y="443"/>
      <point x="427" y="402" type="curve"/>
      <point x="396" y="183" type="line"/>
      <point x="350" y="109"/>
      <point x="307" y="61"/>
      <point x="242" y="61" type="curve" smooth="yes"/>
      <point x="187" y="61"/>
      <point x="154" y="101"/>
      <point x="154" y="190" type="curve" smooth="yes"/>
      <point x="154" y="295"/>
      <point x="191" y="466"/>
      <point x="319" y="466" type="curve" smooth="yes"/>
    </contour>
  </outline>
</glyph>
<glyph name="uni018D" format="1">
  <advance width="574"/>
  <unicode hex="018D"/>
  <outline>
    <contour>
      <point x="349" y="-216"/>
      <point x="413" y="-136"/>
      <point x="413" y="-64" type="curve" smooth="yes"/>
      <point x="413" y="-22"/>
      <point x="392" y="15"/>
      <point x="335" y="52" type="curve"/>
      <point x="477" y="114"/>
      <point x="523" y="207"/>
      <point x="523" y="325" type="curve" smooth="yes"/>
      <point x="523" y="452"/>
      <point x="446" y="539"/>
      <point x="321" y="539" type="curve" smooth="yes"/>
      <point x="124" y="539"/>
      <point x="55" y="341"/>
      <point x="55" y="238" type="curve" smooth="yes"/>
      <point x="55" y="133"/>
      <point x="113" y="74"/>
      <point x="218" y="26" type="curve" smooth="yes"/>
      <point x="298" y="-10"/>
      <point x="320" y="-30"/>
      <point x="320" y="-67" type="curve" smooth="yes"/>
      <point x="320" y="-110"/>
      <point x="288" y="-144"/>
      <point x="219" y="-144" type="curve" smooth="yes"/>
      <point x="171" y="-144"/>
      <point x="139" y="-134"/>
      <point x="101" y="-103" type="curve"/>
      <point x="51" y="-155" type="line"/>
      <point x="95" y="-194"/>
      <point x="141" y="-216"/>
      <point x="220" y="-216" type="curve" smooth="yes"/>
    </contour>
    <contour>
      <point x="188" y="121"/>
      <point x="152" y="161"/>
      <point x="152" y="235" type="curve" smooth="yes"/>
      <point x="152" y="309"/>
      <point x="187" y="465"/>
      <point x="318" y="465" type="curve" smooth="yes"/>
      <point x="391" y="465"/>
      <point x="426" y="412"/>
      <point x="426" y="334" type="curve" smooth="yes"/>
      <point x="426" y="224"/>
      <point x="395" y="146"/>
      <point x="277" y="80" type="curve"/>
    </contour>
  </outline>
</glyph>
<glyph name="uni018E" format="1">
  <advance width="529"/>
  <unicode hex="018E"/>
  <outline>
    <contour>
      <point x="108" y="613" type="line"/>
      <point x="385" y="613" type="line"/>
      <point x="353" y="388" type="line"/>
      <point x="123" y="388" type="line"/>
      <point x="112" y="312" type="line"/>
      <point x="342" y="312" type="line"/>
      <point x="309" y="76" type="line"/>
      <point x="26" y="76" type="line"/>
      <point x="16" y="0" type="line"/>
      <point x="393" y="0" type="line"/>
      <point x="489" y="689" type="line"/>
      <point x="118" y="689" type="line"/>
    </contour>
  </outline>
</glyph>
<glyph name="uni0190" format="1">
  <advance width="517"/>
  <unicode hex="0190"/>
  <outline>
    <contour>
      <point x="202" y="701"/>
      <point x="102" y="621"/>
      <point x="102" y="504" type="curve" smooth="yes"/>
      <point x="102" y="431"/>
      <point x="149" y="386"/>
      <point x="216" y="370" type="curve"/>
      <point x="110" y="358"/>
      <point x="33" y="284"/>
      <point x="33" y="176" type="curve" smooth="yes"/>
      <point x="33" y="64"/>
      <point x="121" y="-12"/>
      <point x="253" y="-12" type="curve" smooth="yes"/>
      <point x="335" y="-12"/>
      <point x="416" y="16"/>
      <point x="481" y="79" type="curve"/>
      <point x="430" y="137" type="line"/>
      <point x="385" y="95"/>
      <point x="330" y="68"/>
      <point x="261" y="68" type="curve" smooth="yes"/>
      <point x="179" y="68"/>
      <point x="133" y="106"/>
      <point x="133" y="177" type="curve" smooth="yes"/>
      <point x="133" y="276"/>
      <point x="201" y="325"/>
      <point x="307" y="325" type="curve" smooth="yes"/>
      <point x="357" y="325" type="line"/>
      <point x="380" y="403" type="line"/>
      <point x="313" y="403" type="line" smooth="yes"/>
      <point x="242" y="403"/>
      <point x="199" y="436"/>
      <point x="199" y="499" type="curve" smooth="yes"/>
      <point x="199" y="566"/>
      <point x="243" y="623"/>
      <point x="335" y="623" type="curve" smooth="yes"/>
      <point x="389" y="623"/>
      <point x="437" y="603"/>
      <point x="481" y="561" type="curve"/>
      <point x="537" y="614" type="line"/>
      <point x="483" y="670"/>
      <point x="418" y="701"/>
      <point x="333" y="701" type="curve" smooth="yes"/>
    </contour>
    <contour>
      <point x="339" y="689" type="move" name="top"/>
    </contour>
    <contour>
      <point x="252" y="0" type="move" name="bottom"/>
    </contour>
  </outline>
</glyph>
<glyph name="florin" format="1">
  <advance width="329"/>
  <unicode hex="0192"/>
  <outline>
    <contour>
      <point x="225" y="750"/>
      <point x="162" y="690"/>
      <point x="150" y="602" type="curve" smooth="yes"/>
      <point x="69" y="29" type="line" smooth="yes"/>
      <point x="53" y="-84"/>
      <point x="9" y="-112"/>
      <point x="-63" y="-144" type="curve"/>
      <point x="-37" y="-213" type="line"/>
      <point x="80" y="-163"/>
      <point x="139" y="-120"/>
      <point x="160" y="29" type="curve" smooth="yes"/>
      <point x="240" y="597" type="line" smooth="yes"/>
      <point x="247" y="648"/>
      <point x="273" y="676"/>
      <point x="332" y="676" type="curve" smooth="yes"/>
      <point x="357" y="676"/>
      <point x="387" y="672"/>
      <point x="418" y="651" type="curve"/>
      <point x="453" y="712" type="line"/>
      <point x="414" y="736"/>
      <point x="380" y="750"/>
      <point x="329" y="750" type="curve" smooth="yes"/>
    </contour>
    <contour>
      <point x="46" y="527" type="line"/>
      <point x="36" y="456" type="line"/>
      <point x="337" y="456" type="line"/>
      <point x="357" y="527" type="line"/>
    </contour>
  </outline>
</glyph>
<glyph name="uni0193" format="1">
  <advance width="589"/>
  <unicode hex="0193"/>
  <outline>
    <contour>
      <point x="163" y="701"/>
      <point x="60" y="457"/>
      <point x="60" y="259" type="curve" smooth="yes"/>
      <point x="60" y="79"/>
      <point x="154" y="-12"/>
      <point x="302" y="-12" type="curve" smooth="yes"/>
      <point x="396" y="-12"/>
      <point x="468" y="11"/>
      <point x="535" y="54" type="curve"/>
      <point x="580" y="382" type="line"/>
      <point x="356" y="382" type="line"/>
      <point x="356" y="305" type="line"/>
      <point x="476" y="305" type="line"/>
      <point x="446" y="101" type="line"/>
      <point x="404" y="76"/>
      <point x="359" y="66"/>
      <point x="315" y="66" type="curve" smooth="yes"/>
      <point x="213" y="66"/>
      <point x="159" y="119"/>
      <point x="159" y="247" type="curve" smooth="yes"/>
      <point x="159" y="413"/>
      <point x="227" y="623"/>
      <point x="406" y="623" type="curve" smooth="yes"/>
      <point x="465" y="623"/>
      <point x="512" y="606"/>
      <point x="556" y="578" type="curve"/>
      <point x="607" y="622" type="line"/>
      <point x="589" y="640"/>
      <point x="569" y="645"/>
      <point x="547" y="657" type="curve"/>
      <point x="514" y="685"/>
      <point x="465" y="701"/>
      <point x="405" y="701" type="curve" smooth="yes"/>
    </contour>
    <contour>
      <point x="607" y="622" type="line"/>
      <point x="615" y="681" type="line" smooth="yes"/>
      <point x="622" y="734"/>
      <point x="651" y="758"/>
      <point x="692" y="758" type="curve" smooth="yes"/>
      <point x="723" y="758"/>
      <point x="739" y="750"/>
      <point x="760" y="736" type="curve"/>
      <point x="801" y="792" type="line"/>
      <point x="778" y="811"/>
      <point x="744" y="832"/>
      <point x="690" y="832" type="curve" smooth="yes"/>
      <point x="597" y="832"/>
      <point x="536" y="779"/>
      <point x="522" y="679" type="curve" smooth="yes"/>
      <point x="521" y="665" type="line"/>
    </contour>
  </outline>
</glyph>
<glyph name="uni0194" format="1">
  <advance width="550"/>
  <unicode hex="0194"/>
  <outline>
    <contour>
      <point x="291" y="-213"/>
      <point x="342" y="-168"/>
      <point x="342" y="-89" type="curve" smooth="yes"/>
      <point x="342" y="-40"/>
      <point x="330" y="5"/>
      <point x="304" y="68" type="curve"/>
      <point x="255" y="135" type="line"/>
      <point x="163" y="689" type="line"/>
      <point x="65" y="689" type="line"/>
      <point x="192" y="69" type="line"/>
      <point x="239" y="9" type="line"/>
      <point x="249" y="-27"/>
      <point x="256" y="-60"/>
      <point x="256" y="-91" type="curve" smooth="yes"/>
      <point x="256" y="-120"/>
      <point x="242" y="-140"/>
      <point x="215" y="-140" type="curve" smooth="yes"/>
      <point x="197" y="-140"/>
      <point x="189" y="-129"/>
      <point x="189" y="-112" type="curve" smooth="yes"/>
      <point x="189" y="-81"/>
      <point x="210" y="-39"/>
      <point x="239" y="9" type="curve"/>
      <point x="304" y="68" type="line"/>
      <point x="604" y="689" type="line"/>
      <point x="506" y="689" type="line"/>
      <point x="255" y="135" type="line"/>
      <point x="192" y="69" type="line"/>
      <point x="133" y="-15"/>
      <point x="103" y="-67"/>
      <point x="103" y="-119" type="curve" smooth="yes"/>
      <point x="103" y="-173"/>
      <point x="140" y="-213"/>
      <point x="211" y="-213" type="curve" smooth="yes"/>
    </contour>
  </outline>
</glyph>
<glyph name="uni0195" format="1">
  <advance width="875"/>
  <unicode hex="0195"/>
  <outline>
    <contour>
      <point x="720" y="527" type="line"/>
      <point x="724" y="488"/>
      <point x="725" y="449"/>
      <point x="725" y="413" type="curve" smooth="yes"/>
      <point x="725" y="262"/>
      <point x="701" y="62"/>
      <point x="551" y="62" type="curve" smooth="yes"/>
      <point x="492" y="62"/>
      <point x="469" y="101"/>
      <point x="478" y="168" type="curve" smooth="yes"/>
      <point x="507" y="373" type="line" smooth="yes"/>
      <point x="521" y="475"/>
      <point x="473" y="539"/>
      <point x="381" y="539" type="curve" smooth="yes"/>
      <point x="308" y="539"/>
      <point x="251" y="494"/>
      <point x="207" y="428" type="curve"/>
      <point x="253" y="748" type="line"/>
      <point x="161" y="738" type="line"/>
      <point x="57" y="0" type="line"/>
      <point x="148" y="0" type="line"/>
      <point x="191" y="316" type="line"/>
      <point x="233" y="391"/>
      <point x="292" y="462"/>
      <point x="362" y="462" type="curve" smooth="yes"/>
      <point x="400" y="462"/>
      <point x="425" y="442"/>
      <point x="415" y="368" type="curve" smooth="yes"/>
      <point x="387" y="169" type="line" smooth="yes"/>
      <point x="374" y="74"/>
      <point x="422" y="-12"/>
      <point x="546" y="-12" type="curve" smooth="yes"/>
      <point x="752" y="-12"/>
      <point x="816" y="184"/>
      <point x="816" y="397" type="curve" smooth="yes"/>
      <point x="816" y="441"/>
      <point x="813" y="483"/>
      <point x="808" y="527" type="curve"/>
    </contour>
  </outline>
</glyph>
<glyph name="uni0196" format="1">
  <advance width="355"/>
  <unicode hex="0196"/>
  <outline>
    <contour>
      <point x="150" y="689" type="line"/>
      <point x="80" y="201" type="line"/>
      <point x="174" y="201" type="line"/>
      <point x="244" y="689" type="line"/>
    </contour>
    <component base="hookHELPERright.case" xOffset="86" yOffset="201"/>
    <contour>
      <point x="197" y="689" type="move" name="top"/>
    </contour>
    <contour>
      <point x="141" y="0" type="move" name="bottom"/>
    </contour>
  </outline>
</glyph>
<glyph name="uni0198" format="1">
  <advance width="622"/>
  <unicode hex="0198"/>
  <outline>
    <contour>
      <point x="159" y="689" type="line"/>
      <point x="62" y="0" type="line"/>
      <point x="157" y="0" type="line"/>
      <point x="254" y="689" type="line"/>
    </contour>
    <contour>
      <point x="532" y="612"/>
      <point x="549" y="624"/>
      <point x="578" y="624" type="curve" smooth="yes"/>
      <point x="601" y="624"/>
      <point x="614" y="618"/>
      <point x="633" y="605" type="curve"/>
      <point x="677" y="657" type="line"/>
      <point x="650" y="684"/>
      <point x="622" y="701"/>
      <point x="576" y="701" type="curve" smooth="yes"/>
      <point x="514" y="701"/>
      <point x="479" y="676"/>
      <point x="424" y="612" type="curve" smooth="yes"/>
      <point x="213" y="368" type="line"/>
      <point x="432" y="0" type="line"/>
      <point x="546" y="0" type="line"/>
      <point x="319" y="368" type="line"/>
      <point x="490" y="564" type="line" smooth="yes"/>
    </contour>
  </outline>
</glyph>
<glyph name="uni0199" format="1">
  <advance width="545"/>
  <unicode hex="0199"/>
  <outline>
    <contour>
      <point x="131" y="526" type="line"/>
      <point x="57" y="0" type="line"/>
      <point x="148" y="0" type="line"/>
      <point x="192" y="316" type="line"/>
      <point x="237" y="419"/>
      <point x="307" y="466"/>
      <point x="363" y="466" type="curve" smooth="yes"/>
      <point x="399" y="466"/>
      <point x="420" y="446"/>
      <point x="420" y="409" type="curve" smooth="yes"/>
      <point x="420" y="336"/>
      <point x="369" y="292"/>
      <point x="245" y="257" type="curve"/>
      <point x="371" y="0" type="line"/>
      <point x="473" y="0" type="line"/>
      <point x="354" y="233" type="line"/>
      <point x="464" y="268"/>
      <point x="517" y="336"/>
      <point x="517" y="419" type="curve" smooth="yes"/>
      <point x="517" y="489"/>
      <point x="464" y="539"/>
      <point x="389" y="539" type="curve" smooth="yes"/>
      <point x="323" y="539"/>
      <point x="259" y="506"/>
      <point x="210" y="435" type="curve"/>
      <point x="223" y="526" type="line"/>
    </contour>
    <component base="hookaboveHELPER" xOffset="63"/>
  </outline>
</glyph>
<glyph name="uni019B" format="1">
  <advance width="488"/>
  <unicode hex="019B"/>
  <outline>
    <contour>
      <point x="271" y="620" type="line"/>
      <point x="310" y="655" type="line"/>
      <point x="389" y="729" type="line"/>
      <point x="341" y="776" type="line"/>
      <point x="249" y="690" type="line"/>
      <point x="212" y="657" type="line"/>
      <point x="116" y="569" type="line"/>
      <point x="174" y="537" type="line"/>
    </contour>
    <contour>
      <point x="130" y="688" type="line"/>
      <point x="234" y="664"/>
      <point x="260" y="622"/>
      <point x="268" y="499" type="curve"/>
      <point x="230" y="506" type="line"/>
      <point x="-17" y="10" type="line"/>
      <point x="69" y="-12" type="line"/>
      <point x="274" y="421" type="line"/>
      <point x="287" y="174"/>
      <point x="321" y="83"/>
      <point x="378" y="-11" type="curve"/>
      <point x="464" y="20" type="line"/>
      <point x="405" y="106"/>
      <point x="377" y="197"/>
      <point x="357" y="434" type="curve" smooth="yes"/>
      <point x="338" y="659"/>
      <point x="291" y="722"/>
      <point x="148" y="752" type="curve"/>
    </contour>
  </outline>
</glyph>
<glyph name="uni019C" format="1">
  <advance width="923"/>
  <unicode hex="019C"/>
  <outline>
    <contour>
      <point x="288" y="-12"/>
      <point x="349" y="20"/>
      <point x="412" y="96" type="curve"/>
      <point x="397" y="163" type="line"/>
      <point x="340" y="95"/>
      <point x="300" y="66"/>
      <point x="240" y="66" type="curve" smooth="yes"/>
      <point x="184" y="66"/>
      <point x="161" y="109"/>
      <point x="172" y="188" type="curve" smooth="yes"/>
      <point x="243" y="689" type="line"/>
      <point x="149" y="689" type="line"/>
      <point x="79" y="192" type="line" smooth="yes"/>
      <point x="63" y="75"/>
      <point x="111" y="-12"/>
      <point x="220" y="-12" type="curve" smooth="yes"/>
    </contour>
    <contour>
      <point x="609" y="-12"/>
      <point x="668" y="20"/>
      <point x="727" y="96" type="curve"/>
      <point x="718" y="164" type="line"/>
      <point x="661" y="95"/>
      <point x="621" y="66"/>
      <point x="561" y="66" type="curve" smooth="yes"/>
      <point x="505" y="66"/>
      <point x="482" y="109"/>
      <point x="493" y="188" type="curve" smooth="yes"/>
      <point x="564" y="689" type="line"/>
      <point x="469" y="689" type="line"/>
      <point x="399" y="192" type="line" smooth="yes"/>
      <point x="383" y="75"/>
      <point x="433" y="-12"/>
      <point x="541" y="-12" type="curve" smooth="yes"/>
    </contour>
    <contour>
      <point x="787" y="0" type="line"/>
      <point x="884" y="689" type="line"/>
      <point x="790" y="689" type="line"/>
      <point x="711" y="129" type="line"/>
      <point x="706" y="0" type="line"/>
    </contour>
  </outline>
</glyph>
<glyph name="uni019D" format="1">
  <advance width="677"/>
  <unicode hex="019D"/>
  <outline>
    <contour>
      <point x="63" y="-213"/>
      <point x="128" y="-165"/>
      <point x="143" y="-60" type="curve" smooth="yes"/>
      <point x="151" y="0" type="line"/>
      <point x="62" y="0" type="line"/>
      <point x="54" y="-60" type="line" smooth="yes"/>
      <point x="47" y="-114"/>
      <point x="19" y="-139"/>
      <point x="-22" y="-139" type="curve" smooth="yes"/>
      <point x="-53" y="-139"/>
      <point x="-69" y="-131"/>
      <point x="-90" y="-117" type="curve"/>
      <point x="-131" y="-173" type="line"/>
      <point x="-108" y="-192"/>
      <point x="-74" y="-213"/>
      <point x="-20" y="-213" type="curve" smooth="yes"/>
    </contour>
    <component base="N"/>
  </outline>
</glyph>
<glyph name="uni019E" format="1">
  <advance width="580"/>
  <unicode hex="019E"/>
  <outline>
    <contour>
      <point x="308" y="539"/>
      <point x="250" y="493"/>
      <point x="201" y="424" type="curve"/>
      <point x="209" y="527" type="line"/>
      <point x="131" y="527" type="line"/>
      <point x="57" y="0" type="line"/>
      <point x="148" y="0" type="line"/>
      <point x="191" y="316" type="line"/>
      <point x="233" y="391"/>
      <point x="292" y="462"/>
      <point x="359" y="462" type="curve" smooth="yes"/>
      <point x="399" y="462"/>
      <point x="426" y="442"/>
      <point x="415" y="368" type="curve" smooth="yes"/>
      <point x="332" y="-216" type="line"/>
      <point x="425" y="-205" type="line"/>
      <point x="506" y="370" type="line" smooth="yes"/>
      <point x="521" y="475"/>
      <point x="472" y="539"/>
      <point x="384" y="539" type="curve" smooth="yes"/>
    </contour>
  </outline>
</glyph>
<glyph name="uni01A2" format="1">
  <advance width="917"/>
  <unicode hex="01A2"/>
  <outline>
    <contour>
      <point x="658" y="703"/>
      <point x="607" y="685"/>
      <point x="553" y="647" type="curve"/>
      <point x="600" y="599" type="line"/>
      <point x="634" y="619"/>
      <point x="667" y="629"/>
      <point x="706" y="629" type="curve" smooth="yes"/>
      <point x="758" y="629"/>
      <point x="772" y="600"/>
      <point x="764" y="543" type="curve" smooth="yes"/>
      <point x="659" y="-202" type="line"/>
      <point x="753" y="-202" type="line"/>
      <point x="857" y="540" type="line" smooth="yes"/>
      <point x="871" y="639"/>
      <point x="826" y="703"/>
      <point x="715" y="703" type="curve" smooth="yes"/>
    </contour>
    <contour>
      <point x="147" y="701"/>
      <point x="61" y="441"/>
      <point x="61" y="265" type="curve" smooth="yes"/>
      <point x="61" y="85"/>
      <point x="158" y="-12"/>
      <point x="308" y="-12" type="curve" smooth="yes"/>
      <point x="562" y="-12"/>
      <point x="648" y="239"/>
      <point x="648" y="421" type="curve" smooth="yes"/>
      <point x="648" y="603"/>
      <point x="550" y="701"/>
      <point x="402" y="701" type="curve" smooth="yes"/>
    </contour>
    <contour>
      <point x="494" y="623"/>
      <point x="550" y="566"/>
      <point x="550" y="428" type="curve" smooth="yes"/>
      <point x="550" y="288"/>
      <point x="500" y="66"/>
      <point x="311" y="66" type="curve" smooth="yes"/>
      <point x="219" y="66"/>
      <point x="159" y="120"/>
      <point x="159" y="262" type="curve" smooth="yes"/>
      <point x="159" y="403"/>
      <point x="211" y="623"/>
      <point x="398" y="623" type="curve" smooth="yes"/>
    </contour>
  </outline>
</glyph>
<glyph name="uni01A3" format="1">
  <advance width="780"/>
  <unicode hex="01A3"/>
  <outline>
    <contour>
      <point x="625" y="-205" type="line"/>
      <point x="706" y="376" type="line" smooth="yes"/>
      <point x="719" y="473"/>
      <point x="676" y="539"/>
      <point x="571" y="539" type="curve" smooth="yes"/>
      <point x="516" y="539"/>
      <point x="467" y="521"/>
      <point x="412" y="486" type="curve"/>
      <point x="461" y="438" type="line"/>
      <point x="495" y="455"/>
      <point x="524" y="465"/>
      <point x="560" y="465" type="curve" smooth="yes"/>
      <point x="610" y="465"/>
      <point x="623" y="434"/>
      <point x="616" y="385" type="curve" smooth="yes"/>
      <point x="532" y="-216" type="line"/>
    </contour>
    <contour>
      <point x="119" y="539"/>
      <point x="52" y="336"/>
      <point x="52" y="206" type="curve" smooth="yes"/>
      <point x="52" y="72"/>
      <point x="123" y="-12"/>
      <point x="254" y="-12" type="curve" smooth="yes"/>
      <point x="461" y="-12"/>
      <point x="526" y="194"/>
      <point x="526" y="321" type="curve" smooth="yes"/>
      <point x="526" y="455"/>
      <point x="451" y="539"/>
      <point x="325" y="539" type="curve" smooth="yes"/>
    </contour>
    <contour>
      <point x="392" y="465"/>
      <point x="430" y="423"/>
      <point x="430" y="331" type="curve" smooth="yes"/>
      <point x="430" y="230"/>
      <point x="394" y="62"/>
      <point x="257" y="62" type="curve" smooth="yes"/>
      <point x="186" y="62"/>
      <point x="148" y="104"/>
      <point x="148" y="196" type="curve" smooth="yes"/>
      <point x="148" y="297"/>
      <point x="185" y="465"/>
      <point x="322" y="465" type="curve" smooth="yes"/>
    </contour>
  </outline>
</glyph>
<glyph name="uni01A5" format="1">
  <advance width="585"/>
  <unicode hex="01A5"/>
  <outline>
    <contour>
      <point x="121" y="-204" type="line"/>
      <point x="149" y="5" type="line"/>
      <point x="182" y="-6"/>
      <point x="213" y="-12"/>
      <point x="249" y="-12" type="curve" smooth="yes"/>
      <point x="455" y="-12"/>
      <point x="529" y="184"/>
      <point x="529" y="332" type="curve" smooth="yes"/>
      <point x="529" y="465"/>
      <point x="469" y="539"/>
      <point x="369" y="539" type="curve" smooth="yes"/>
      <point x="314" y="539"/>
      <point x="264" y="522"/>
      <point x="217" y="469" type="curve"/>
      <point x="224" y="526" type="line"/>
      <point x="132" y="526" type="line"/>
      <point x="28" y="-216" type="line"/>
    </contour>
    <contour>
      <point x="217" y="61"/>
      <point x="194" y="65"/>
      <point x="161" y="77" type="curve"/>
      <point x="205" y="388" type="line"/>
      <point x="243" y="430"/>
      <point x="285" y="466"/>
      <point x="340" y="466" type="curve" smooth="yes"/>
      <point x="395" y="466"/>
      <point x="434" y="433"/>
      <point x="434" y="339" type="curve" smooth="yes"/>
      <point x="434" y="221"/>
      <point x="385" y="61"/>
      <point x="254" y="61" type="curve" smooth="yes"/>
    </contour>
    <component base="hookaboveHELPER" xOffset="63"/>
  </outline>
</glyph>
<glyph name="yr" format="1">
  <advance width="599"/>
  <unicode hex="01A6"/>
  <outline>
    <contour>
      <point x="156" y="0" type="line"/>
      <point x="253" y="689" type="line"/>
      <point x="159" y="689" type="line"/>
      <point x="62" y="0" type="line"/>
    </contour>
    <contour>
      <point x="295" y="170" type="line"/>
      <point x="492" y="185"/>
      <point x="555" y="296"/>
      <point x="555" y="398" type="curve" smooth="yes"/>
      <point x="555" y="510"/>
      <point x="477" y="567"/>
      <point x="319" y="567" type="curve" smooth="yes"/>
      <point x="222" y="567" type="line"/>
      <point x="211" y="493" type="line"/>
      <point x="314" y="493" type="line" smooth="yes"/>
      <point x="412" y="493"/>
      <point x="456" y="468"/>
      <point x="456" y="398" type="curve" smooth="yes"/>
      <point x="456" y="325"/>
      <point x="419" y="243"/>
      <point x="291" y="243" type="curve" smooth="yes"/>
      <point x="175" y="243" type="line"/>
      <point x="165" y="170" type="line"/>
    </contour>
    <contour>
      <point x="520" y="-122" type="line"/>
      <point x="376" y="195" type="line"/>
      <point x="283" y="184" type="line"/>
      <point x="416" y="-122" type="line"/>
    </contour>
  </outline>
</glyph>
<glyph name="uni01A7" format="1">
  <advance width="531"/>
  <unicode hex="01A7"/>
  <outline>
    <contour>
      <point x="245" y="701"/>
      <point x="177" y="675"/>
      <point x="109" y="623" type="curve"/>
      <point x="155" y="562" type="line"/>
      <point x="212" y="603"/>
      <point x="263" y="623"/>
      <point x="326" y="623" type="curve" smooth="yes"/>
      <point x="385" y="623"/>
      <point x="426" y="602"/>
      <point x="426" y="543" type="curve" smooth="yes"/>
      <point x="426" y="461"/>
      <point x="367" y="431"/>
      <point x="254" y="398" type="curve" smooth="yes"/>
      <point x="103" y="354"/>
      <point x="25" y="285"/>
      <point x="25" y="161" type="curve" smooth="yes"/>
      <point x="25" y="61"/>
      <point x="104" y="-12"/>
      <point x="237" y="-12" type="curve" smooth="yes"/>
      <point x="334" y="-12"/>
      <point x="415" y="19"/>
      <point x="480" y="75" type="curve"/>
      <point x="434" y="136" type="line"/>
      <point x="379" y="95"/>
      <point x="316" y="66"/>
      <point x="243" y="66" type="curve" smooth="yes"/>
      <point x="176" y="66"/>
      <point x="122" y="97"/>
      <point x="122" y="162" type="curve" smooth="yes"/>
      <point x="122" y="245"/>
      <point x="162" y="284"/>
      <point x="296" y="325" type="curve" smooth="yes"/>
      <point x="438" y="368"/>
      <point x="523" y="423"/>
      <point x="523" y="544" type="curve" smooth="yes"/>
      <point x="524" y="642"/>
      <point x="448" y="701"/>
      <point x="333" y="701" type="curve" smooth="yes"/>
    </contour>
  </outline>
</glyph>
<glyph name="uni01A8" format="1">
  <advance width="461"/>
  <unicode hex="01A8"/>
  <outline>
    <component base="uni0433"/>
    <contour>
      <point x="268" y="527" type="move" name="top"/>
    </contour>
    <contour>
      <point x="193" y="0" type="move" name="bottom"/>
    </contour>
  </outline>
</glyph>
<glyph name="uni01AA" format="1">
  <advance width="319"/>
  <unicode hex="01AA"/>
  <outline>
    <contour>
      <point x="55" y="750"/>
      <point x="-17" y="690"/>
      <point x="-17" y="591" type="curve" smooth="yes"/>
      <point x="-17" y="521"/>
      <point x="35" y="476"/>
      <point x="95" y="476" type="curve" smooth="yes"/>
      <point x="137" y="476"/>
      <point x="165" y="494"/>
      <point x="206" y="523" type="curve"/>
      <point x="176" y="562" type="line"/>
      <point x="154" y="553"/>
      <point x="134" y="548"/>
      <point x="115" y="548" type="curve" smooth="yes"/>
      <point x="88" y="548"/>
      <point x="73" y="561"/>
      <point x="74" y="592" type="curve" smooth="yes"/>
      <point x="73" y="641"/>
      <point x="96" y="678"/>
      <point x="135" y="678" type="curve" smooth="yes"/>
      <point x="165" y="678"/>
      <point x="174" y="657"/>
      <point x="168" y="614" type="curve" smooth="yes"/>
      <point x="82" y="0" type="line"/>
      <point x="173" y="0" type="line"/>
      <point x="256" y="592" type="line" smooth="yes"/>
      <point x="271" y="698"/>
      <point x="222" y="750"/>
      <point x="135" y="750" type="curve" smooth="yes"/>
    </contour>
    <component base="hookHELPERright" xOffset="88"/>
  </outline>
</glyph>
<glyph name="uni01AB" format="1">
  <advance width="355"/>
  <unicode hex="01AB"/>
  <outline>
    <contour>
      <point x="232" y="-213"/>
      <point x="297" y="-164"/>
      <point x="312" y="-60" type="curve" smooth="yes"/>
      <point x="324" y="23" type="line"/>
      <point x="236" y="0" type="line"/>
      <point x="227" y="-62" type="line" smooth="yes"/>
      <point x="220" y="-116"/>
      <point x="189" y="-139"/>
      <point x="147" y="-139" type="curve" smooth="yes"/>
      <point x="113" y="-139"/>
      <point x="95" y="-131"/>
      <point x="74" y="-117" type="curve"/>
      <point x="33" y="-173" type="line"/>
      <point x="56" y="-192"/>
      <point x="90" y="-213"/>
      <point x="144" y="-213" type="curve" smooth="yes"/>
    </contour>
    <contour>
      <point x="173" y="649" type="line"/>
      <point x="132" y="497" type="line"/>
      <point x="82" y="141" type="line" smooth="yes"/>
      <point x="68" y="43"/>
      <point x="115" y="-12"/>
      <point x="198" y="-12" type="curve" smooth="yes"/>
      <point x="220" y="-12"/>
      <point x="246" y="-5"/>
      <point x="262" y="5" type="curve"/>
      <point x="324" y="23" type="line"/>
      <point x="298" y="81" type="line"/>
      <point x="270" y="72"/>
      <point x="244" y="65"/>
      <point x="220" y="65" type="curve" smooth="yes"/>
      <point x="177" y="65"/>
      <point x="165" y="86"/>
      <point x="173" y="139" type="curve" smooth="yes"/>
      <point x="245" y="657" type="line"/>
    </contour>
    <contour>
      <point x="45" y="527" type="line"/>
      <point x="35" y="456" type="line"/>
      <point x="331" y="456" type="line"/>
      <point x="351" y="527" type="line"/>
    </contour>
  </outline>
</glyph>
<glyph name="uni01AC" format="1">
  <advance width="550"/>
  <unicode hex="01AC"/>
  <outline>
    <contour>
      <point x="304" y="0" type="line"/>
      <point x="389" y="608" type="line"/>
      <point x="579" y="608" type="line"/>
      <point x="601" y="689" type="line"/>
      <point x="242" y="689" type="line"/>
      <point x="230" y="608" type="line"/>
      <point x="295" y="608" type="line"/>
      <point x="210" y="0" type="line"/>
    </contour>
    <contour>
      <point x="150" y="492" type="line"/>
      <point x="144" y="510"/>
      <point x="139" y="526"/>
      <point x="139" y="543" type="curve" smooth="yes"/>
      <point x="139" y="582"/>
      <point x="160" y="608"/>
      <point x="202" y="608" type="curve" smooth="yes"/>
      <point x="231" y="608" type="line"/>
      <point x="243" y="689" type="line"/>
      <point x="218" y="689" type="line" smooth="yes"/>
      <point x="113" y="689"/>
      <point x="53" y="632"/>
      <point x="53" y="550" type="curve" smooth="yes"/>
      <point x="53" y="515"/>
      <point x="65" y="484"/>
      <point x="77" y="460" type="curve"/>
    </contour>
  </outline>
</glyph>
<glyph name="uni01AD" format="1">
  <advance width="355"/>
  <unicode hex="01AD"/>
  <outline>
    <contour>
      <point x="227" y="526" type="line"/>
      <point x="237" y="599" type="line" smooth="yes"/>
      <point x="245" y="652"/>
      <point x="275" y="676"/>
      <point x="312" y="676" type="curve" smooth="yes"/>
      <point x="340" y="676"/>
      <point x="357" y="668"/>
      <point x="377" y="654" type="curve"/>
      <point x="418" y="710" type="line"/>
      <point x="395" y="729"/>
      <point x="361" y="750"/>
      <point x="309" y="750" type="curve" smooth="yes"/>
      <point x="223" y="750"/>
      <point x="160" y="701"/>
      <point x="146" y="597" type="curve" smooth="yes"/>
      <point x="136" y="526" type="line"/>
    </contour>
    <contour>
      <point x="136" y="526" type="line"/>
      <point x="132" y="497" type="line"/>
      <point x="82" y="141" type="line" smooth="yes"/>
      <point x="68" y="43"/>
      <point x="114" y="-12"/>
      <point x="205" y="-12" type="curve" smooth="yes"/>
      <point x="247" y="-12"/>
      <point x="286" y="-1"/>
      <point x="324" y="23" type="curve"/>
      <point x="294" y="89" type="line"/>
      <point x="266" y="73"/>
      <point x="244" y="65"/>
      <point x="220" y="65" type="curve" smooth="yes"/>
      <point x="177" y="65"/>
      <point x="166" y="86"/>
      <point x="173" y="139" type="curve" smooth="yes"/>
      <point x="227" y="526" type="line"/>
    </contour>
    <contour>
      <point x="45" y="527" type="line"/>
      <point x="35" y="456" type="line"/>
      <point x="331" y="456" type="line"/>
      <point x="351" y="527" type="line"/>
    </contour>
  </outline>
</glyph>
<glyph name="uni01B1" format="1">
  <advance width="685"/>
  <unicode hex="01B1"/>
  <outline>
    <contour>
      <point x="511" y="-12"/>
      <point x="644" y="168"/>
      <point x="644" y="389" type="curve" smooth="yes"/>
      <point x="644" y="504"/>
      <point x="601" y="567"/>
      <point x="552" y="609" type="curve"/>
      <point x="659" y="611" type="line"/>
      <point x="670" y="689" type="line"/>
      <point x="470" y="689" type="line"/>
      <point x="461" y="613" type="line"/>
      <point x="512" y="561"/>
      <point x="545" y="500"/>
      <point x="545" y="392" type="curve" smooth="yes"/>
      <point x="545" y="219"/>
      <point x="468" y="66"/>
      <point x="312" y="66" type="curve" smooth="yes"/>
      <point x="213" y="66"/>
      <point x="157" y="128"/>
      <point x="157" y="248" type="curve" smooth="yes"/>
      <point x="157" y="397"/>
      <point x="206" y="521"/>
      <point x="327" y="609" type="curve"/>
      <point x="337" y="689" type="line"/>
      <point x="137" y="689" type="line"/>
      <point x="126" y="611" type="line"/>
      <point x="237" y="613" type="line"/>
      <point x="115" y="522"/>
      <point x="58" y="406"/>
      <point x="58" y="251" type="curve" smooth="yes"/>
      <point x="58" y="91"/>
      <point x="152" y="-12"/>
      <point x="309" y="-12" type="curve" smooth="yes"/>
    </contour>
  </outline>
</glyph>
<glyph name="uni01B2" format="1">
  <advance width="641"/>
  <unicode hex="01B2"/>
  <outline>
    <contour>
      <point x="478" y="701"/>
      <point x="453" y="695"/>
      <point x="431" y="684" type="curve"/>
      <point x="450" y="617" type="line"/>
      <point x="463" y="621"/>
      <point x="476" y="624"/>
      <point x="489" y="624" type="curve" smooth="yes"/>
      <point x="511" y="624"/>
      <point x="520" y="611"/>
      <point x="516" y="580" type="curve" smooth="yes"/>
      <point x="479" y="311" type="line" smooth="yes"/>
      <point x="456" y="150"/>
      <point x="385" y="68"/>
      <point x="278" y="68" type="curve" smooth="yes"/>
      <point x="199" y="68"/>
      <point x="163" y="118"/>
      <point x="176" y="213" type="curve" smooth="yes"/>
      <point x="243" y="689" type="line"/>
      <point x="149" y="689" type="line"/>
      <point x="82" y="214" type="line" smooth="yes"/>
      <point x="64" y="86"/>
      <point x="135" y="-12"/>
      <point x="274" y="-12" type="curve" smooth="yes"/>
      <point x="429" y="-12"/>
      <point x="544" y="104"/>
      <point x="572" y="298" type="curve" smooth="yes"/>
      <point x="610" y="569" type="line" smooth="yes"/>
      <point x="622" y="652"/>
      <point x="581" y="701"/>
      <point x="506" y="701" type="curve" smooth="yes"/>
    </contour>
    <contour>
      <point x="371" y="689" type="move" name="top"/>
    </contour>
    <contour>
      <point x="274" y="0" type="move" name="bottom"/>
    </contour>
  </outline>
</glyph>
<glyph name="uni01B3" format="1">
  <advance width="582"/>
  <unicode hex="01B3"/>
  <outline>
    <contour>
      <point x="283" y="348" type="line"/>
      <point x="165" y="689" type="line"/>
      <point x="65" y="689" type="line"/>
      <point x="225" y="264" type="line"/>
      <point x="187" y="0" type="line"/>
      <point x="282" y="0" type="line"/>
      <point x="320" y="265" type="line"/>
      <point x="510" y="568" type="line" smooth="yes"/>
      <point x="537" y="611"/>
      <point x="554" y="627"/>
      <point x="586" y="627" type="curve" smooth="yes"/>
      <point x="610" y="627"/>
      <point x="629" y="618"/>
      <point x="646" y="606" type="curve"/>
      <point x="687" y="658" type="line"/>
      <point x="663" y="682"/>
      <point x="629" y="701"/>
      <point x="581" y="701" type="curve" smooth="yes"/>
      <point x="513" y="701"/>
      <point x="477" y="676"/>
      <point x="431" y="598" type="curve" smooth="yes"/>
    </contour>
    <contour>
      <point x="339" y="689" type="move" name="top"/>
    </contour>
    <contour>
      <point x="254" y="0" type="move" name="bottom"/>
    </contour>
    <contour>
      <point x="66" y="689" type="move" name="topleft"/>
    </contour>
  </outline>
</glyph>
<glyph name="uni01B4" format="1">
  <advance width="489"/>
  <unicode hex="01B4"/>
  <outline>
    <contour>
      <point x="141" y="-196"/>
      <point x="218" y="-123"/>
      <point x="271" y="4" type="curve" smooth="yes"/>
      <point x="459" y="453" type="line" smooth="yes"/>
      <point x="473" y="487"/>
      <point x="485" y="500"/>
      <point x="512" y="500" type="curve" smooth="yes"/>
      <point x="523" y="500"/>
      <point x="533" y="498"/>
      <point x="543" y="494" type="curve"/>
      <point x="571" y="555" type="line"/>
      <point x="553" y="566"/>
      <point x="532" y="574"/>
      <point x="503" y="574" type="curve" smooth="yes"/>
      <point x="440" y="574"/>
      <point x="406" y="545"/>
      <point x="376" y="469" type="curve" smooth="yes"/>
      <point x="217" y="69" type="line"/>
      <point x="143" y="527" type="line"/>
      <point x="47" y="527" type="line"/>
      <point x="148" y="0" type="line"/>
      <point x="183" y="2" type="line"/>
      <point x="140" y="-80"/>
      <point x="100" y="-123"/>
      <point x="-9" y="-141" type="curve"/>
      <point x="-5" y="-213" type="line"/>
    </contour>
  </outline>
</glyph>
<glyph name="uni01B5" format="1">
  <advance width="516"/>
  <unicode hex="01B5"/>
  <outline>
    <contour>
      <point x="424" y="0" type="line"/>
      <point x="446" y="81" type="line"/>
      <point x="109" y="80" type="line"/>
      <point x="522" y="612" type="line"/>
      <point x="532" y="689" type="line"/>
      <point x="125" y="689" type="line"/>
      <point x="114" y="609" type="line"/>
      <point x="418" y="609" type="line"/>
      <point x="2" y="76" type="line"/>
      <point x="-8" y="0" type="line"/>
    </contour>
    <component base="hyphen" xOffset="18" yOffset="50" xScale="1.2" yScale="0.95"/>
  </outline>
</glyph>
<glyph name="uni01B6" format="1">
  <advance width="431"/>
  <unicode hex="01B6"/>
  <outline>
    <contour>
      <point x="84" y="527" type="line"/>
      <point x="73" y="449" type="line"/>
      <point x="318" y="449" type="line"/>
      <point x="-4" y="69" type="line"/>
      <point x="-13" y="0" type="line"/>
      <point x="355" y="0" type="line"/>
      <point x="376" y="77" type="line"/>
      <point x="104" y="77" type="line"/>
      <point x="427" y="457" type="line"/>
      <point x="436" y="527" type="line"/>
    </contour>
    <component base="hyphen" xOffset="-13" yOffset="-18" xScale="1.1" yScale="0.9"/>
  </outline>
</glyph>
<glyph name="uni01B7" format="1">
  <advance width="514"/>
  <unicode hex="01B7"/>
  <outline>
    <contour>
      <point x="347" y="-12"/>
      <point x="463" y="80"/>
      <point x="463" y="227" type="curve" smooth="yes"/>
      <point x="463" y="333"/>
      <point x="396" y="397"/>
      <point x="252" y="397" type="curve"/>
      <point x="226" y="397" type="line"/>
      <point x="136" y="328" type="line"/>
      <point x="226" y="328" type="line" smooth="yes"/>
      <point x="320" y="328"/>
      <point x="364" y="302"/>
      <point x="364" y="226" type="curve" smooth="yes"/>
      <point x="364" y="127"/>
      <point x="296" y="66"/>
      <point x="191" y="66" type="curve" smooth="yes"/>
      <point x="125" y="66"/>
      <point x="84" y="84"/>
      <point x="46" y="130" type="curve"/>
      <point x="-13" y="80" type="line"/>
      <point x="31" y="20"/>
      <point x="93" y="-12"/>
      <point x="191" y="-12" type="curve" smooth="yes"/>
    </contour>
    <contour>
      <point x="137" y="328" type="line"/>
      <point x="217" y="360" type="line"/>
      <point x="495" y="612" type="line"/>
      <point x="505" y="689" type="line"/>
      <point x="103" y="689" type="line"/>
      <point x="92" y="611" type="line"/>
      <point x="380" y="611" type="line"/>
      <point x="146" y="396" type="line"/>
    </contour>
  </outline>
</glyph>
<glyph name="uni01B8" format="1">
  <advance width="515"/>
  <unicode hex="01B8"/>
  <outline>
    <contour>
      <point x="346" y="-12"/>
      <point x="417" y="19"/>
      <point x="476" y="76" type="curve"/>
      <point x="426" y="132" type="line"/>
      <point x="376" y="89"/>
      <point x="328" y="66"/>
      <point x="251" y="66" type="curve" smooth="yes"/>
      <point x="171" y="66"/>
      <point x="130" y="105"/>
      <point x="130" y="174" type="curve" smooth="yes"/>
      <point x="130" y="268"/>
      <point x="196" y="328"/>
      <point x="309" y="328" type="curve" smooth="yes"/>
      <point x="393" y="328" type="line"/>
      <point x="324" y="397" type="line"/>
      <point x="295" y="397" type="line"/>
      <point x="141" y="397"/>
      <point x="33" y="309"/>
      <point x="33" y="173" type="curve" smooth="yes"/>
      <point x="33" y="62"/>
      <point x="113" y="-12"/>
      <point x="245" y="-12" type="curve" smooth="yes"/>
    </contour>
    <contour>
      <point x="222" y="611" type="line"/>
      <point x="519" y="611" type="line"/>
      <point x="530" y="689" type="line"/>
      <point x="128" y="689" type="line"/>
      <point x="118" y="612" type="line"/>
      <point x="334" y="360" type="line"/>
      <point x="394" y="328" type="line"/>
      <point x="402" y="395" type="line"/>
    </contour>
  </outline>
</glyph>
<glyph name="uni01B9" format="1">
  <advance width="479"/>
  <unicode hex="01B9"/>
  <outline>
    <contour>
      <point x="294" y="-213"/>
      <point x="363" y="-184"/>
      <point x="424" y="-125" type="curve"/>
      <point x="376" y="-72" type="line"/>
      <point x="323" y="-116"/>
      <point x="275" y="-138"/>
      <point x="207" y="-138" type="curve" smooth="yes"/>
      <point x="130" y="-138"/>
      <point x="88" y="-100"/>
      <point x="88" y="-24" type="curve" smooth="yes"/>
      <point x="88" y="76"/>
      <point x="149" y="138"/>
      <point x="268" y="138" type="curve" smooth="yes"/>
      <point x="343" y="138" type="line"/>
      <point x="278" y="206" type="line"/>
      <point x="253" y="206" type="line"/>
      <point x="98" y="206"/>
      <point x="-9" y="115"/>
      <point x="-9" y="-22" type="curve" smooth="yes"/>
      <point x="-9" y="-138"/>
      <point x="73" y="-213"/>
      <point x="202" y="-213" type="curve" smooth="yes"/>
    </contour>
    <contour>
      <point x="182" y="451" type="line"/>
      <point x="473" y="451" type="line"/>
      <point x="483" y="527" type="line"/>
      <point x="91" y="527" type="line"/>
      <point x="83" y="457" type="line"/>
      <point x="289" y="169" type="line"/>
      <point x="344" y="138" type="line"/>
      <point x="352" y="205" type="line"/>
    </contour>
  </outline>
</glyph>
<glyph name="uni01BA" format="1">
  <advance width="467"/>
  <unicode hex="01BA"/>
  <outline>
    <contour>
      <point x="133" y="-155" type="line"/>
      <point x="95" y="-133"/>
      <point x="72" y="-114"/>
      <point x="72" y="-88" type="curve" smooth="yes"/>
      <point x="72" y="-62"/>
      <point x="100" y="-46"/>
      <point x="205" y="-29" type="curve" smooth="yes"/>
      <point x="337" y="-7"/>
      <point x="424" y="42"/>
      <point x="424" y="148" type="curve" smooth="yes"/>
      <point x="424" y="230"/>
      <point x="362" y="272"/>
      <point x="265" y="272" type="curve" smooth="yes"/>
      <point x="215" y="272" type="line"/>
      <point x="441" y="457" type="line"/>
      <point x="449" y="527" type="line"/>
      <point x="62" y="527" type="line"/>
      <point x="52" y="451" type="line"/>
      <point x="326" y="451" type="line"/>
      <point x="111" y="271" type="line"/>
      <point x="102" y="204" type="line"/>
      <point x="254" y="204" type="line" smooth="yes"/>
      <point x="301" y="204"/>
      <point x="327" y="189"/>
      <point x="327" y="147" type="curve" smooth="yes"/>
      <point x="327" y="77"/>
      <point x="271" y="60"/>
      <point x="167" y="43" type="curve" smooth="yes"/>
      <point x="53" y="24"/>
      <point x="-20" y="-6"/>
      <point x="-20" y="-86" type="curve" smooth="yes"/>
      <point x="-20" y="-135"/>
      <point x="22" y="-180"/>
      <point x="95" y="-214" type="curve"/>
    </contour>
  </outline>
</glyph>
<glyph name="uni01BD" format="1">
  <advance width="447"/>
  <unicode hex="01BD"/>
  <outline>
    <contour>
      <point x="102" y="527" type="line"/>
      <point x="63" y="250" type="line"/>
      <point x="129" y="249" type="line"/>
      <point x="163" y="264"/>
      <point x="189" y="271"/>
      <point x="224" y="271" type="curve" smooth="yes"/>
      <point x="267" y="271"/>
      <point x="299" y="248"/>
      <point x="299" y="197" type="curve" smooth="yes"/>
      <point x="299" y="114"/>
      <point x="239" y="67"/>
      <point x="170" y="67" type="curve" smooth="yes"/>
      <point x="116" y="67"/>
      <point x="90" y="81"/>
      <point x="55" y="112" type="curve"/>
      <point x="1" y="61" type="line"/>
      <point x="40" y="18"/>
      <point x="87" y="-12"/>
      <point x="168" y="-12" type="curve" smooth="yes"/>
      <point x="300" y="-12"/>
      <point x="396" y="74"/>
      <point x="396" y="199" type="curve" smooth="yes"/>
      <point x="395" y="289"/>
      <point x="337" y="346"/>
      <point x="252" y="346" type="curve" smooth="yes"/>
      <point x="208" y="346"/>
      <point x="184" y="337"/>
      <point x="161" y="327" type="curve"/>
      <point x="181" y="451" type="line"/>
      <point x="387" y="451" type="line"/>
      <point x="414" y="527" type="line"/>
    </contour>
  </outline>
</glyph>
<glyph name="uni01BE" format="1">
  <advance width="505"/>
  <unicode hex="01BE"/>
  <outline>
    <contour>
      <point x="120" y="545" type="line"/>
      <point x="198" y="545" type="line"/>
      <point x="398" y="545" type="line"/>
      <point x="408" y="615" type="line"/>
      <point x="130" y="615" type="line"/>
    </contour>
    <component base="uni0296"/>
  </outline>
</glyph>
